<?xml version="1.0" encoding="UTF-8" standalone="no"?>
<svg
   xmlns:dc="http://purl.org/dc/elements/1.1/"
   xmlns:cc="http://creativecommons.org/ns#"
   xmlns:rdf="http://www.w3.org/1999/02/22-rdf-syntax-ns#"
   xmlns:svg="http://www.w3.org/2000/svg"
   xmlns="http://www.w3.org/2000/svg"
   id="svg4410"
   version="1.1"
   viewBox="0 0 92.604164 39.687501"
   height="150"
   width="350">
  <defs
     id="defs4404" />
  <metadata
     id="metadata4407">
    <rdf:RDF>
      <cc:Work
         rdf:about="">
        <dc:format>image/svg+xml</dc:format>
        <dc:type
           rdf:resource="http://purl.org/dc/dcmitype/StillImage" />
        <dc:title></dc:title>
      </cc:Work>
    </rdf:RDF>
  </metadata>
  <g
     transform="translate(0,-257.31248)"
     id="layer1">
    <g
       transform="matrix(2.0008308,0,0,2.0243538,4.3466084e-8,-304.23101)"
       id="g9819">
      <g
         id="g9744"
         transform="translate(-2.7026939,10.718733)">
        <g
           transform="matrix(0.35277777,0,0,-0.35277777,35.518753,286.10484)"
           id="g1470">
          <path
             id="path1472"
             style="fill:none;stroke:#ffffff;stroke-width:1;stroke-linecap:round;stroke-linejoin:round;stroke-miterlimit:4;stroke-dasharray:none;stroke-opacity:1"
             d="M 0,0 C -2.44,0 -4.42,1.186 -4.42,2.653 -4.42,1.186 -6.397,0 -8.838,0 c -2.441,0 -4.419,1.186 -4.419,2.653 0,-1.467 -1.974,-2.653 -4.418,-2.653 -2.44,0 -4.418,1.186 -4.418,2.653 0,-1.467 -1.975,-2.653 -4.419,-2.653 -2.438,0 -4.417,1.186 -4.417,2.653 0,-1.467 -1.976,-2.653 -4.419,-2.653 -2.44,0 -4.419,1.186 -4.419,2.653 0,-1.467 -1.977,-2.653 -4.418,-2.653 -2.44,0 -4.419,1.186 -4.419,2.653 C -48.604,1.186 -50.578,0 -53.022,0 -55.461,0 -57.439,1.186 -57.439,2.653 -57.439,1.186 -59.415,0 -61.857,0" />
        </g>
        <g
           transform="matrix(0.35277777,0,0,-0.35277777,35.518753,281.11667)"
           id="g1474">
          <path
             id="path1476"
             style="fill:none;stroke:#ffffff;stroke-width:1;stroke-linecap:round;stroke-linejoin:round;stroke-miterlimit:4;stroke-dasharray:none;stroke-opacity:1"
             d="M 0,0 C -2.44,0 -4.42,1.185 -4.42,2.649 -4.42,1.185 -6.397,0 -8.838,0 c -2.441,0 -4.419,1.185 -4.419,2.649 0,-1.464 -1.974,-2.649 -4.418,-2.649 -2.44,0 -4.418,1.185 -4.418,2.649 0,-1.464 -1.975,-2.649 -4.419,-2.649 -2.438,0 -4.417,1.185 -4.417,2.649 0,-1.464 -1.976,-2.649 -4.419,-2.649 -2.44,0 -4.419,1.185 -4.419,2.649 0,-1.464 -1.977,-2.649 -4.418,-2.649 -2.44,0 -4.419,1.185 -4.419,2.649 C -48.604,1.185 -50.578,0 -53.022,0 -55.461,0 -57.439,1.185 -57.439,2.649 -57.439,1.185 -59.415,0 -61.857,0" />
        </g>
        <g
           transform="matrix(0.35277777,0,0,-0.35277777,35.518753,276.1013)"
           id="g1478">
          <path
             id="path1480"
             style="fill:none;stroke:#ffffff;stroke-width:1;stroke-linecap:round;stroke-linejoin:round;stroke-miterlimit:4;stroke-dasharray:none;stroke-opacity:1"
             d="M 0,0 C -2.44,0 -4.42,1.186 -4.42,2.653 -4.42,1.186 -6.397,0 -8.838,0 c -2.441,0 -4.419,1.186 -4.419,2.653 0,-1.467 -1.974,-2.653 -4.418,-2.653 -2.44,0 -4.418,1.186 -4.418,2.653 0,-1.467 -1.975,-2.653 -4.419,-2.653 -2.438,0 -4.417,1.186 -4.417,2.653 0,-1.467 -1.976,-2.653 -4.419,-2.653 -2.44,0 -4.419,1.186 -4.419,2.653 0,-1.467 -1.977,-2.653 -4.418,-2.653 -2.44,0 -4.419,1.186 -4.419,2.653 C -48.604,1.186 -50.578,0 -53.022,0 -55.461,0 -57.439,1.186 -57.439,2.653 -57.439,1.186 -59.415,0 -61.857,0" />
        </g>
        <g
           transform="matrix(0.35277777,0,0,-0.35277777,27.054483,273.54694)"
           id="g1482">
          <path
             id="path1484"
             style="fill:#ffffff;fill-opacity:1;fill-rule:nonzero;stroke:none"
             d="M 0,0 H 3.805 L 4.161,-2.038 1.9,-1.223 -0.358,-2.038 Z m 1.9,-4.588 c 0,-1.033 0.993,-1.915 2.422,-2.355 L 5.737,-2.607 4.836,-2.281 4.436,0 H 4.774 V 1.245 H 3.163 L 2.628,2.778 H 1.175 L 0.64,1.245 H -0.969 V 0 h 0.337 l -0.401,-2.284 -0.902,-0.325 1.414,-4.334 C 0.91,-6.505 1.9,-5.621 1.9,-4.588" />
        </g>
        <g
           transform="matrix(0.35277777,0,0,-0.35277777,33.289091,278.56284)"
           id="g1486">
          <path
             id="path1488"
             style="fill:#ffffff;fill-opacity:1;fill-rule:nonzero;stroke:none"
             d="M 0,0 H 3.805 L 4.163,-2.038 1.9,-1.222 -0.358,-2.038 Z m 1.9,-4.59 c 0,-1.03 0.993,-1.912 2.424,-2.352 L 5.737,-2.605 4.836,-2.282 4.436,0 H 4.774 V 1.247 H 3.163 L 2.627,2.78 H 1.176 L 0.642,1.247 H -0.967 V 0 h 0.336 l -0.4,-2.282 -0.902,-0.326 1.412,-4.334 C 0.912,-6.505 1.9,-5.62 1.9,-4.59" />
        </g>
        <g
           transform="matrix(0.35277777,0,0,-0.35277777,30.171275,283.55013)"
           id="g1490">
          <path
             id="path1492"
             style="fill:#ffffff;fill-opacity:1;fill-rule:nonzero;stroke:none"
             d="M 0,0 H 3.805 L 4.163,-2.04 1.901,-1.224 -0.358,-2.04 Z m 1.901,-4.589 c 0,-1.033 0.992,-1.915 2.423,-2.355 L 5.738,-2.608 4.836,-2.282 4.436,0 H 4.775 V 1.244 H 3.164 L 2.628,2.781 H 1.176 L 0.642,1.244 H -0.967 V 0 H -0.63 L -1.031,-2.282 -1.933,-2.61 -0.52,-6.944 c 1.432,0.44 2.421,1.322 2.421,2.355" />
        </g>
        <g
           transform="matrix(0.35277777,0,0,-0.35277777,38.715131,285.45869)"
           id="g1494">
          <path
             id="path1496"
             style="fill:#ffffff;fill-opacity:1;fill-rule:nonzero;stroke:none"
             d="m 0,0 c 0,-0.359 -0.093,-0.677 -0.273,-0.955 -0.181,-0.276 -0.443,-0.493 -0.786,-0.646 -0.341,-0.153 -0.742,-0.231 -1.205,-0.231 -0.381,0 -0.704,0.028 -0.965,0.082 -0.259,0.055 -0.532,0.149 -0.81,0.28 v 1.392 c 0.295,-0.156 0.604,-0.273 0.927,-0.359 0.319,-0.084 0.615,-0.128 0.882,-0.128 0.231,0 0.401,0.042 0.509,0.12 0.106,0.08 0.161,0.183 0.161,0.308 0,0.081 -0.022,0.151 -0.066,0.209 C -1.668,0.13 -1.737,0.191 -1.834,0.25 -1.929,0.312 -2.186,0.434 -2.6,0.624 -2.977,0.796 -3.26,0.96 -3.446,1.119 -3.636,1.28 -3.774,1.464 -3.866,1.673 -3.955,1.878 -4,2.126 -4,2.411 c 0,0.53 0.192,0.943 0.579,1.24 0.387,0.299 0.918,0.446 1.595,0.446 0.595,0 1.205,-0.136 1.826,-0.412 L -0.479,2.479 c -0.538,0.249 -1.004,0.374 -1.394,0.374 -0.204,0 -0.351,-0.036 -0.443,-0.108 -0.092,-0.071 -0.139,-0.16 -0.139,-0.266 0,-0.11 0.058,-0.214 0.176,-0.303 C -2.16,2.087 -1.846,1.923 -1.328,1.686 -0.829,1.464 -0.484,1.224 -0.29,0.968 -0.098,0.712 0,0.386 0,0" />
        </g>
        <g
           transform="matrix(0.35277777,0,0,-0.35277777,39.926746,286.07623)"
           id="g1498">
          <path
             id="path1500"
             style="fill:#ffffff;fill-opacity:1;fill-rule:nonzero;stroke:none"
             d="M 0,0 H -1.56 V 4.492 H -2.968 V 5.764 H 1.405 V 4.492 H 0 Z" />
        </g>
        <g
           transform="matrix(0.35277777,0,0,-0.35277777,41.263103,284.92264)"
           id="g1502">
          <path
             id="path1504"
             style="fill:#ffffff;fill-opacity:1;fill-rule:nonzero;stroke:none"
             d="m 0,0 h 0.292 c 0.543,0 0.815,0.239 0.815,0.721 0,0.395 -0.267,0.595 -0.801,0.595 L 0,1.316 Z M 0,-1.172 V -3.27 h -1.56 v 5.764 h 1.891 c 1.566,0 2.352,-0.565 2.352,-1.703 0,-0.669 -0.329,-1.183 -0.98,-1.55 L 3.385,-3.27 H 1.617 l -1.222,2.098 z" />
        </g>
        <g
           transform="matrix(0.35277777,0,0,-0.35277777,43.146196,285.05702)"
           id="g1506">
          <path
             id="path1508"
             style="fill:#ffffff;fill-opacity:1;fill-rule:nonzero;stroke:none"
             d="m 0,0 c 0,-1.114 0.387,-1.673 1.164,-1.673 0.392,0 0.687,0.136 0.876,0.409 0.189,0.27 0.287,0.69 0.287,1.264 0,0.575 -0.098,1.001 -0.29,1.277 C 1.843,1.553 1.554,1.689 1.169,1.689 0.39,1.689 0,1.126 0,0 M 3.967,0 C 3.967,-0.969 3.73,-1.707 3.254,-2.213 2.777,-2.717 2.08,-2.97 1.164,-2.97 c -0.905,0 -1.601,0.253 -2.082,0.762 -0.482,0.507 -0.724,1.248 -0.724,2.216 0,0.963 0.24,1.692 0.721,2.199 0.479,0.509 1.175,0.76 2.09,0.76 0.919,0 1.614,-0.251 2.087,-0.752 C 3.73,1.711 3.967,0.974 3.967,0" />
        </g>
        <g
           transform="matrix(0.35277777,0,0,-0.35277777,46.851069,286.07623)"
           id="g1510">
          <path
             id="path1512"
             style="fill:#ffffff;fill-opacity:1;fill-rule:nonzero;stroke:none"
             d="M 0,0 H -2.046 L -4.153,4.061 H -4.187 C -4.137,3.423 -4.111,2.936 -4.111,2.6 V 0 h -1.384 v 5.764 h 2.038 l 2.099,-4.006 h 0.022 C -1.373,2.34 -1.392,2.806 -1.392,3.159 V 5.764 H 0 Z" />
        </g>
        <g
           transform="matrix(0.35277777,0,0,-0.35277777,48.106781,284.88543)"
           id="g1514">
          <path
             id="path1516"
             style="fill:#ffffff;fill-opacity:1;fill-rule:nonzero;stroke:none"
             d="M 0,0 H 2.491 V -3.108 C 1.814,-3.34 1.071,-3.457 0.262,-3.457 c -0.888,0 -1.576,0.259 -2.063,0.774 -0.484,0.515 -0.726,1.249 -0.726,2.204 0,0.933 0.264,1.656 0.796,2.174 0.532,0.521 1.275,0.777 2.232,0.777 0.365,0 0.707,-0.034 1.029,-0.1 C 1.851,2.302 2.132,2.216 2.372,2.11 L 1.879,0.888 C 1.464,1.092 1.008,1.194 0.51,1.194 c -0.454,0 -0.808,-0.147 -1.055,-0.442 -0.248,-0.295 -0.373,-0.718 -0.373,-1.27 0,-0.537 0.113,-0.949 0.336,-1.232 0.226,-0.281 0.549,-0.423 0.974,-0.423 0.231,0 0.446,0.022 0.637,0.066 v 0.902 H 0 Z" />
        </g>
        <g
           transform="matrix(0.35277777,0,0,-0.35277777,37.839043,280.23698)"
           id="g1518">
          <path
             id="path1520"
             style="fill:#ffffff;fill-opacity:1;fill-rule:nonzero;stroke:none"
             d="m 0,0 v -1.21 h 0.549 c 0.486,0 0.729,0.202 0.729,0.614 0,0.192 -0.064,0.339 -0.195,0.44 C 0.955,-0.053 0.766,0 0.518,0 Z m 0,1.138 h 0.471 c 0.222,0 0.395,0.048 0.517,0.139 0.122,0.092 0.184,0.229 0.184,0.41 0,0.325 -0.245,0.487 -0.733,0.487 H 0 Z m -1.556,2.216 h 2.01 C 1.239,3.354 1.821,3.237 2.199,3.003 2.58,2.769 2.77,2.408 2.77,1.918 2.77,1.592 2.689,1.316 2.522,1.088 2.357,0.859 2.138,0.712 1.868,0.646 V 0.607 C 2.224,0.512 2.483,0.353 2.645,0.134 2.806,-0.09 2.884,-0.376 2.884,-0.727 2.884,-1.25 2.689,-1.665 2.294,-1.963 1.901,-2.263 1.367,-2.416 0.688,-2.416 h -2.244 z" />
        </g>
        <path
           id="path1522"
           style="fill:#ffffff;fill-opacity:1;fill-rule:nonzero;stroke:none;stroke-width:0.35277775"
           d="m 39.209794,279.05383 h 0.55245 v 2.03553 h -0.55245 z" />
        <g
           transform="matrix(0.35277777,0,0,-0.35277777,41.099803,281.08929)"
           id="g1524">
          <path
             id="path1526"
             style="fill:#ffffff;fill-opacity:1;fill-rule:nonzero;stroke:none"
             d="M 0,0 H -1.559 V 4.495 H -2.967 V 5.77 H 1.405 V 4.495 H 0 Z" />
        </g>
        <g
           transform="matrix(0.35277777,0,0,-0.35277777,42.783788,281.08929)"
           id="g1528">
          <path
             id="path1530"
             style="fill:#ffffff;fill-opacity:1;fill-rule:nonzero;stroke:none"
             d="M 0,0 H -1.559 V 4.495 H -2.967 V 5.77 h 4.37 V 4.495 H 0 Z" />
        </g>
        <g
           transform="matrix(0.35277777,0,0,-0.35277777,44.778146,281.08929)"
           id="g1532">
          <path
             id="path1534"
             style="fill:#ffffff;fill-opacity:1;fill-rule:nonzero;stroke:none"
             d="M 0,0 H -3.423 V 5.77 H 0 V 4.518 H -1.865 V 3.609 h 1.726 V 2.36 H -1.865 V 1.272 H 0 Z" />
        </g>
        <g
           transform="matrix(0.35277777,0,0,-0.35277777,45.684537,279.93571)"
           id="g1536">
          <path
             id="path1538"
             style="fill:#ffffff;fill-opacity:1;fill-rule:nonzero;stroke:none"
             d="M 0,0 H 0.292 C 0.834,0 1.107,0.243 1.107,0.724 1.107,1.12 0.84,1.32 0.306,1.32 H 0 Z M 0,-1.172 V -3.27 H -1.559 V 2.5 h 1.89 c 1.567,0 2.352,-0.571 2.352,-1.707 0,-0.668 -0.329,-1.183 -0.98,-1.55 L 3.384,-3.27 H 1.617 l -1.222,2.098 z" />
        </g>
        <g
           transform="matrix(0.35277777,0,0,-0.35277777,38.446066,275.06053)"
           id="g1540">
          <path
             id="path1542"
             style="fill:#ffffff;fill-opacity:1;fill-rule:nonzero;stroke:none"
             d="m 0,0 c 0,0.529 -0.104,0.921 -0.314,1.177 -0.21,0.254 -0.527,0.382 -0.953,0.382 h -0.454 v -3.232 h 0.349 c 0.473,0 0.82,0.139 1.04,0.415 C -0.111,-0.985 0,-0.564 0,0 M 1.617,0.056 C 1.617,-0.907 1.353,-1.647 0.82,-2.17 0.292,-2.689 -0.451,-2.95 -1.412,-2.95 h -1.864 v 5.767 h 1.995 c 0.924,0 1.639,-0.236 2.143,-0.71 C 1.366,1.634 1.617,0.949 1.617,0.056" />
        </g>
        <g
           transform="matrix(0.35277777,0,0,-0.35277777,40.415624,275.26863)"
           id="g1544">
          <path
             id="path1546"
             style="fill:#ffffff;fill-opacity:1;fill-rule:nonzero;stroke:none"
             d="M 0,0 -0.251,0.946 C -0.309,1.155 -0.379,1.428 -0.459,1.762 -0.543,2.096 -0.599,2.335 -0.624,2.479 -0.648,2.346 -0.696,2.124 -0.763,1.817 -0.835,1.509 -0.988,0.905 -1.228,0 Z M 0.607,-2.36 0.322,-1.278 H -1.551 L -1.843,-2.36 h -1.715 l 1.885,5.792 H 0.406 L 2.31,-2.36 Z" />
        </g>
        <g
           transform="matrix(0.35277777,0,0,-0.35277777,42.000373,274.94753)"
           id="g1548">
          <path
             id="path1550"
             style="fill:#ffffff;fill-opacity:1;fill-rule:nonzero;stroke:none"
             d="m 0,0 h 0.292 c 0.543,0 0.819,0.242 0.819,0.721 0,0.398 -0.27,0.595 -0.804,0.595 L 0,1.316 Z m 0,-1.172 v -2.099 h -1.559 v 5.768 h 1.89 c 1.567,0 2.353,-0.568 2.353,-1.704 0,-0.668 -0.327,-1.186 -0.981,-1.55 L 3.385,-3.271 H 1.617 l -1.221,2.099 z" />
        </g>
        <g
           transform="matrix(0.35277777,0,0,-0.35277777,45.117836,276.1013)"
           id="g1552">
          <path
             id="path1554"
             style="fill:#ffffff;fill-opacity:1;fill-rule:nonzero;stroke:none"
             d="M 0,0 H -1.759 L -2.9,2.205 -3.362,1.929 V 0 h -1.564 v 5.767 h 1.564 V 3.262 C -3.284,3.417 -3.123,3.663 -2.884,4 l 1.211,1.767 H 0.031 L -1.787,3.184 Z" />
        </g>
        <g
           transform="matrix(0.35277777,0,0,-0.35277777,4.1280907,280.47091)"
           id="g1556">
          <path
             id="path1558"
             style="fill:#ffffff;fill-opacity:1;fill-rule:nonzero;stroke:none"
             d="M 0,0 C 0,-0.358 -0.09,-0.676 -0.272,-0.954 -0.453,-1.23 -0.715,-1.447 -1.056,-1.6 -1.398,-1.753 -1.8,-1.831 -2.26,-1.831 c -0.384,0 -0.707,0.025 -0.968,0.081 -0.258,0.053 -0.531,0.147 -0.812,0.281 v 1.389 c 0.298,-0.153 0.607,-0.271 0.928,-0.356 0.32,-0.087 0.615,-0.128 0.883,-0.128 0.233,0 0.402,0.039 0.509,0.119 0.108,0.081 0.163,0.184 0.163,0.309 0,0.08 -0.022,0.151 -0.066,0.209 -0.043,0.058 -0.113,0.116 -0.21,0.177 -0.095,0.062 -0.351,0.184 -0.766,0.371 -0.377,0.172 -0.659,0.337 -0.847,0.499 -0.188,0.161 -0.326,0.345 -0.419,0.55 -0.09,0.209 -0.136,0.457 -0.136,0.738 0,0.531 0.195,0.946 0.582,1.244 0.385,0.298 0.917,0.446 1.592,0.446 0.598,0 1.208,-0.14 1.827,-0.415 L -0.478,2.48 c -0.538,0.248 -1.004,0.371 -1.396,0.371 -0.201,0 -0.35,-0.034 -0.441,-0.106 -0.091,-0.07 -0.139,-0.159 -0.139,-0.265 0,-0.114 0.059,-0.214 0.176,-0.303 0.117,-0.089 0.434,-0.254 0.952,-0.49 C -0.828,1.465 -0.482,1.225 -0.29,0.966 -0.096,0.713 0,0.387 0,0" />
        </g>
        <g
           transform="matrix(0.35277777,0,0,-0.35277777,6.6402567,281.08929)"
           id="g1560">
          <path
             id="path1562"
             style="fill:#ffffff;fill-opacity:1;fill-rule:nonzero;stroke:none"
             d="M 0,0 H -1.842 L -2.396,2.513 C -2.421,2.619 -2.463,2.828 -2.519,3.14 -2.574,3.454 -2.616,3.715 -2.644,3.928 -2.663,3.754 -2.699,3.542 -2.745,3.287 -2.794,3.034 -2.839,2.803 -2.886,2.589 -2.933,2.374 -3.124,1.511 -3.459,0 H -5.302 L -6.73,5.77 h 1.503 l 0.626,-2.895 c 0.142,-0.638 0.24,-1.146 0.292,-1.525 0.034,0.267 0.097,0.631 0.184,1.094 0.088,0.459 0.171,0.84 0.247,1.143 l 0.51,2.183 h 1.442 l 0.492,-2.183 c 0.085,-0.35 0.17,-0.754 0.257,-1.213 0.088,-0.457 0.146,-0.799 0.175,-1.024 0.033,0.292 0.126,0.798 0.28,1.517 L -0.084,5.77 H 1.42 Z" />
        </g>
        <g
           transform="matrix(0.35277777,0,0,-0.35277777,8.6118629,281.08929)"
           id="g1564">
          <path
             id="path1566"
             style="fill:#ffffff;fill-opacity:1;fill-rule:nonzero;stroke:none"
             d="M 0,0 H -3.424 V 5.77 H 0 V 4.518 H -1.864 V 3.609 h 1.728 V 2.36 H -1.864 V 1.272 H 0 Z" />
        </g>
        <g
           transform="matrix(0.35277777,0,0,-0.35277777,10.175937,281.08929)"
           id="g1568">
          <path
             id="path1570"
             style="fill:#ffffff;fill-opacity:1;fill-rule:nonzero;stroke:none"
             d="M 0,0 H -3.423 V 5.77 H 0 V 4.518 H -1.864 V 3.609 h 1.727 V 2.36 H -1.864 V 1.272 H 0 Z" />
        </g>
        <g
           transform="matrix(0.35277777,0,0,-0.35277777,11.430662,281.08929)"
           id="g1572">
          <path
             id="path1574"
             style="fill:#ffffff;fill-opacity:1;fill-rule:nonzero;stroke:none"
             d="M 0,0 H -1.56 V 4.495 H -2.967 V 5.77 H 1.404 V 4.495 H 0 Z" />
        </g>
        <g
           transform="matrix(0.35277777,0,0,-0.35277777,3.2526744,274.97805)"
           id="g1576">
          <path
             id="path1578"
             style="fill:#ffffff;fill-opacity:1;fill-rule:nonzero;stroke:none"
             d="M 0,0 H 0.284 C 0.519,0 0.704,0.066 0.842,0.198 0.98,0.328 1.05,0.509 1.05,0.741 1.05,1.13 0.834,1.325 0.404,1.325 H 0 Z m 2.628,0.749 c 0,-0.644 -0.19,-1.141 -0.57,-1.492 C 1.679,-1.097 1.137,-1.269 0.438,-1.269 H 0 V -3.184 H -1.559 V 2.583 H 0.438 C 1.166,2.583 1.715,2.425 2.08,2.107 2.445,1.787 2.628,1.336 2.628,0.749" />
        </g>
        <g
           transform="matrix(0.35277777,0,0,-0.35277777,6.2475092,275.26863)"
           id="g1580">
          <path
             id="path1582"
             style="fill:#ffffff;fill-opacity:1;fill-rule:nonzero;stroke:none"
             d="M 0,0 -0.248,0.946 C -0.306,1.155 -0.376,1.428 -0.46,1.762 -0.543,2.096 -0.597,2.335 -0.623,2.479 -0.647,2.346 -0.693,2.124 -0.763,1.817 -0.832,1.509 -0.986,0.905 -1.226,0 Z M 0.606,-2.36 0.324,-1.278 H -1.55 L -1.841,-2.36 h -1.714 l 1.882,5.792 H 0.406 L 2.313,-2.36 Z" />
        </g>
        <g
           transform="matrix(0.35277777,0,0,-0.35277777,7.9927723,276.1013)"
           id="g1584">
          <path
             id="path1586"
             style="fill:#ffffff;fill-opacity:1;fill-rule:nonzero;stroke:none"
             d="M 0,0 V 5.767 H 1.558 V 1.258 h 2.22 L 3.778,0 Z" />
        </g>
        <g
           transform="matrix(0.35277777,0,0,-0.35277777,11.569481,276.1013)"
           id="g1588">
          <path
             id="path1590"
             style="fill:#ffffff;fill-opacity:1;fill-rule:nonzero;stroke:none"
             d="M 0,0 H -3.424 V 5.767 H 0 V 4.517 H -1.866 V 3.61 H -0.14 V 2.36 H -1.866 V 1.27 H 0 Z" />
        </g>
        <g
           transform="matrix(0.35277777,0,0,-0.35277777,2.702833,286.07623)"
           id="g1592">
          <path
             id="path1594"
             style="fill:#ffffff;fill-opacity:1;fill-rule:nonzero;stroke:none"
             d="M 0,0 V 5.764 H 1.559 V 1.258 H 3.78 V 0 Z" />
        </g>
        <path
           id="path1596"
           style="fill:#ffffff;fill-opacity:1;fill-rule:nonzero;stroke:none;stroke-width:0.35277775"
           d="m 4.5105732,284.04282 h 0.5520972 v 2.03341 H 4.5105732 Z" />
        <g
           transform="matrix(0.35277777,0,0,-0.35277777,6.4686664,284.88543)"
           id="g1598">
          <path
             id="path1600"
             style="fill:#ffffff;fill-opacity:1;fill-rule:nonzero;stroke:none"
             d="m 0,0 h 2.488 v -3.108 c -0.675,-0.232 -1.42,-0.349 -2.23,-0.349 -0.887,0 -1.575,0.259 -2.059,0.774 -0.486,0.515 -0.73,1.249 -0.73,2.204 0,0.933 0.266,1.656 0.8,2.174 0.529,0.521 1.274,0.777 2.232,0.777 0.363,0 0.704,-0.034 1.026,-0.1 C 1.851,2.302 2.131,2.216 2.371,2.11 L 1.877,0.888 C 1.461,1.092 1.005,1.194 0.508,1.194 0.054,1.194 -0.299,1.047 -0.548,0.752 -0.797,0.457 -0.92,0.031 -0.92,-0.518 c 0,-0.539 0.112,-0.949 0.338,-1.232 0.226,-0.281 0.548,-0.423 0.972,-0.423 0.23,0 0.444,0.022 0.637,0.066 v 0.902 H 0 Z" />
        </g>
        <g
           transform="matrix(0.35277777,0,0,-0.35277777,9.6533317,286.07623)"
           id="g1602">
          <path
             id="path1604"
             style="fill:#ffffff;fill-opacity:1;fill-rule:nonzero;stroke:none"
             d="M 0,0 H -1.565 V 2.348 H -3.377 V 0 h -1.565 v 5.764 h 1.565 V 3.626 h 1.812 V 5.764 H 0 Z" />
        </g>
        <g
           transform="matrix(0.35277777,0,0,-0.35277777,11.139549,286.07623)"
           id="g1606">
          <path
             id="path1608"
             style="fill:#ffffff;fill-opacity:1;fill-rule:nonzero;stroke:none"
             d="M 0,0 H -1.56 V 4.492 H -2.967 V 5.764 H 1.405 V 4.492 H 0 Z" />
        </g>
      </g>
      <text
         y="280.53586"
         x="16.439306"
         style="font-variant:normal;font-weight:normal;font-stretch:normal;font-size:4.23333311px;font-family:'Myriad Pro';-inkscape-font-specification:MyriadPro-Regular;writing-mode:lr-tb;fill:#ffffff;fill-opacity:1;fill-rule:nonzero;stroke:none;stroke-width:0.35277775"
         id="text1752">
        <tspan
           style="stroke-width:0.35277775"
           x="16.439306"
           id="tspan1750"
           y="280.53586">67 IPA</tspan>
      </text>
    </g>
  </g>
</svg>
