<?xml version="1.0" encoding="UTF-8" standalone="no"?>
<svg
   xmlns:dc="http://purl.org/dc/elements/1.1/"
   xmlns:cc="http://creativecommons.org/ns#"
   xmlns:rdf="http://www.w3.org/1999/02/22-rdf-syntax-ns#"
   xmlns:svg="http://www.w3.org/2000/svg"
   xmlns="http://www.w3.org/2000/svg"
   id="svg4410"
   version="1.1"
   viewBox="0 0 92.604164 39.687501"
   height="150"
   width="350">
  <defs
     id="defs4404" />
  <metadata
     id="metadata4407">
    <rdf:RDF>
      <cc:Work
         rdf:about="">
        <dc:format>image/svg+xml</dc:format>
        <dc:type
           rdf:resource="http://purl.org/dc/dcmitype/StillImage" />
        <dc:title></dc:title>
      </cc:Work>
    </rdf:RDF>
  </metadata>
  <g
     transform="translate(0,-257.31248)"
     id="layer1">
    <g
       id="g3497"
       transform="matrix(0.71284751,0,0,-0.69068606,-155.62453,631.49507)">
      <g
         id="g28"
         transform="translate(248.7954,484.6689)">
        <path
           d="m 0,0 c 0,0.209 0.167,0.375 0.376,0.375 1.147,0 2.181,0.283 2.9,0.716 0.726,0.438 1.103,0.991 1.099,1.534 0,0.1 0.04,0.197 0.109,0.267 0.071,0.069 0.167,0.109 0.266,0.109 0.1,0 0.196,-0.04 0.267,-0.109 C 5.086,2.822 5.126,2.725 5.126,2.625 5.122,2.082 5.499,1.529 6.225,1.091 6.944,0.658 7.978,0.375 9.125,0.375 c 1.147,0 2.183,0.283 2.9,0.716 0.728,0.438 1.103,0.991 1.099,1.534 0,0.1 0.042,0.197 0.111,0.267 0.071,0.069 0.165,0.109 0.267,0.109 0.097,0 0.193,-0.04 0.264,-0.109 0.069,-0.07 0.109,-0.167 0.109,-0.267 -0.004,-0.543 0.373,-1.096 1.099,-1.534 0.719,-0.433 1.755,-0.716 2.902,-0.716 1.147,0 2.181,0.283 2.9,0.716 0.726,0.438 1.103,0.991 1.099,1.534 0,0.1 0.04,0.197 0.109,0.267 0.071,0.069 0.167,0.109 0.267,0.109 0.099,0 0.195,-0.04 0.264,-0.109 0.071,-0.07 0.111,-0.167 0.111,-0.267 -0.004,-0.543 0.373,-1.096 1.099,-1.534 0.719,-0.433 1.753,-0.716 2.9,-0.716 1.147,0 2.183,0.283 2.9,0.716 0.728,0.438 1.103,0.991 1.099,1.534 0,0.1 0.042,0.197 0.112,0.267 0.07,0.069 0.164,0.109 0.264,0.109 0.099,0 0.195,-0.04 0.266,-0.109 0.069,-0.07 0.109,-0.167 0.109,-0.267 -0.004,-0.543 0.373,-1.096 1.099,-1.534 0.719,-0.433 1.755,-0.716 2.902,-0.716 1.147,0 2.181,0.283 2.901,0.716 0.725,0.438 1.104,0.991 1.098,1.534 0,0.1 0.041,0.197 0.111,0.267 0.069,0.069 0.166,0.109 0.266,0.109 0.098,0 0.195,-0.04 0.264,-0.109 0.07,-0.07 0.111,-0.167 0.111,-0.267 -0.004,-0.543 0.373,-1.096 1.098,-1.534 0.72,-0.433 1.754,-0.716 2.9,-0.716 1.148,0 2.182,0.283 2.9,0.716 0.729,0.438 1.104,0.991 1.1,1.534 0,0.1 0.041,0.197 0.109,0.267 0.073,0.069 0.166,0.109 0.266,0.109 0.1,0 0.197,-0.04 0.266,-0.109 0.07,-0.07 0.109,-0.167 0.109,-0.267 -0.004,-0.543 0.373,-1.096 1.1,-1.534 0.718,-0.433 1.754,-0.716 2.902,-0.716 1.146,0 2.182,0.283 2.9,0.716 0.725,0.438 1.1,0.991 1.098,1.534 0,0.1 0.041,0.197 0.111,0.267 0.069,0.069 0.166,0.109 0.266,0.109 0.098,0 0.193,-0.04 0.264,-0.109 0.07,-0.07 0.111,-0.167 0.111,-0.267 C 57.623,2.082 58,1.529 58.727,1.091 59.445,0.658 60.479,0.375 61.625,0.375 61.832,0.375 62,0.207 62,0 62,-0.205 61.832,-0.373 61.625,-0.373 59.713,-0.363 57.986,0.316 57.25,1.448 56.516,0.316 54.791,-0.363 52.877,-0.373 50.961,-0.363 49.236,0.316 48.5,1.449 47.766,0.316 46.041,-0.363 44.125,-0.373 42.213,-0.363 40.486,0.316 39.75,1.448 39.016,0.316 37.291,-0.363 35.376,-0.373 33.462,-0.363 31.736,0.315 31,1.448 30.265,0.315 28.54,-0.363 26.625,-0.373 24.712,-0.363 22.986,0.316 22.25,1.448 21.515,0.316 19.79,-0.363 17.876,-0.373 15.962,-0.363 14.236,0.315 13.5,1.448 12.765,0.315 11.039,-0.363 9.125,-0.373 7.212,-0.363 5.486,0.316 4.75,1.448 4.015,0.315 2.29,-0.364 0.376,-0.375 0.167,-0.375 0,-0.207 0,0"
           style="fill:#ffffff;fill-opacity:1;fill-rule:nonzero;stroke:none"
           id="path30" />
      </g>
      <g
         id="g32"
         transform="translate(306.0454,500.1167)">
        <path
           d="m 0,0 c -0.734,-1.133 -2.459,-1.813 -4.373,-1.823 -1.916,0.01 -3.641,0.69 -4.377,1.824 -0.734,-1.134 -2.459,-1.814 -4.375,-1.824 -1.912,0.01 -3.639,0.69 -4.375,1.823 -0.734,-1.133 -2.459,-1.813 -4.374,-1.823 -1.915,0.01 -3.641,0.69 -4.375,1.823 -0.735,-1.133 -2.461,-1.813 -4.376,-1.823 -1.913,0.01 -3.64,0.69 -4.375,1.823 -0.735,-1.133 -2.459,-1.813 -4.374,-1.823 -1.915,0.01 -3.641,0.69 -4.376,1.823 -0.734,-1.133 -2.46,-1.813 -4.375,-1.823 -1.913,0.01 -3.64,0.69 -4.375,1.823 -0.735,-1.133 -2.459,-1.813 -4.374,-1.823 -0.209,0 -0.376,0.169 -0.376,0.376 0,0.207 0.167,0.375 0.376,0.375 1.147,-0.002 2.181,0.281 2.9,0.716 0.726,0.436 1.103,0.989 1.099,1.533 0,0.099 0.04,0.196 0.109,0.265 0.071,0.07 0.167,0.11 0.266,0.11 0.1,0 0.194,-0.038 0.267,-0.11 0.069,-0.071 0.107,-0.164 0.107,-0.265 -0.002,-0.544 0.375,-1.097 1.101,-1.533 0.719,-0.435 1.753,-0.718 2.9,-0.716 1.147,-0.002 2.183,0.281 2.9,0.716 0.728,0.436 1.103,0.989 1.101,1.533 0,0.099 0.038,0.196 0.109,0.265 0.069,0.07 0.165,0.11 0.267,0.11 0.099,0 0.193,-0.038 0.264,-0.11 0.071,-0.071 0.109,-0.164 0.109,-0.265 -0.004,-0.544 0.373,-1.097 1.099,-1.533 0.719,-0.435 1.755,-0.718 2.902,-0.716 1.147,-0.002 2.181,0.281 2.9,0.716 0.726,0.436 1.103,0.989 1.099,1.533 0,0.099 0.04,0.196 0.109,0.265 0.071,0.07 0.167,0.11 0.267,0.11 0.099,0 0.193,-0.038 0.264,-0.11 0.071,-0.071 0.109,-0.164 0.109,-0.265 -0.002,-0.544 0.375,-1.097 1.101,-1.533 0.719,-0.435 1.753,-0.718 2.9,-0.716 1.147,-0.002 2.183,0.281 2.9,0.716 0.728,0.436 1.103,0.989 1.101,1.533 0,0.099 0.038,0.196 0.11,0.265 0.068,0.07 0.164,0.11 0.264,0.11 0.101,0 0.195,-0.038 0.266,-0.11 0.071,-0.071 0.109,-0.164 0.109,-0.265 -0.004,-0.544 0.373,-1.097 1.099,-1.533 0.719,-0.435 1.755,-0.718 2.902,-0.716 1.147,-0.002 2.181,0.281 2.901,0.716 0.725,0.436 1.104,0.989 1.098,1.533 0,0.099 0.041,0.196 0.111,0.265 0.069,0.07 0.166,0.11 0.266,0.11 0.098,0 0.193,-0.038 0.264,-0.11 0.07,-0.071 0.109,-0.164 0.109,-0.265 -0.002,-0.544 0.375,-1.097 1.1,-1.533 0.72,-0.435 1.754,-0.718 2.9,-0.716 1.148,-0.002 2.182,0.281 2.9,0.716 0.729,0.436 1.104,0.989 1.102,1.533 0,0.099 0.037,0.196 0.107,0.265 0.071,0.07 0.166,0.11 0.266,0.11 0.102,0 0.197,-0.038 0.266,-0.11 0.072,-0.071 0.109,-0.164 0.109,-0.265 -0.004,-0.544 0.373,-1.097 1.1,-1.533 0.718,-0.435 1.754,-0.718 2.902,-0.716 1.146,-0.002 2.182,0.281 2.9,0.716 0.725,0.436 1.1,0.989 1.098,1.533 0,0.099 0.041,0.196 0.111,0.265 0.069,0.07 0.166,0.11 0.266,0.11 0.098,0 0.193,-0.038 0.264,-0.11 C 0.336,1.371 0.375,1.278 0.375,1.177 0.373,0.633 0.75,0.08 1.477,-0.356 2.195,-0.791 3.229,-1.074 4.375,-1.072 v -0.002 c 0.207,0 0.375,-0.166 0.375,-0.373 0,-0.207 -0.168,-0.376 -0.375,-0.376 C 2.463,-1.813 0.736,-1.133 0,0"
           style="fill:#ffffff;fill-opacity:1;fill-rule:nonzero;stroke:none"
           id="path34" />
      </g>
      <g
         id="g36"
         transform="translate(306.0454,514.1958)">
        <path
           d="m 0,0 c -0.734,-1.133 -2.459,-1.813 -4.373,-1.823 -1.916,0.01 -3.641,0.69 -4.377,1.823 -0.734,-1.133 -2.459,-1.813 -4.375,-1.823 -1.912,0.01 -3.639,0.69 -4.375,1.823 -0.734,-1.133 -2.459,-1.813 -4.374,-1.823 -1.915,0.01 -3.641,0.69 -4.375,1.823 -0.735,-1.133 -2.461,-1.813 -4.376,-1.823 -1.913,0.01 -3.64,0.69 -4.375,1.823 -0.735,-1.133 -2.459,-1.813 -4.374,-1.823 -1.915,0.01 -3.641,0.69 -4.376,1.823 -0.734,-1.133 -2.46,-1.813 -4.375,-1.823 -1.913,0.01 -3.64,0.69 -4.375,1.823 -0.735,-1.133 -2.459,-1.813 -4.374,-1.823 -0.209,0 -0.376,0.167 -0.376,0.374 0,0.208 0.167,0.375 0.376,0.375 1.147,0 2.181,0.282 2.9,0.715 0.726,0.439 1.103,0.991 1.099,1.536 0,0.099 0.04,0.196 0.109,0.265 0.071,0.07 0.167,0.11 0.266,0.11 0.1,0 0.194,-0.04 0.267,-0.11 0.069,-0.071 0.107,-0.166 0.107,-0.265 -0.002,-0.545 0.375,-1.097 1.101,-1.536 0.719,-0.433 1.753,-0.715 2.9,-0.715 1.147,0 2.183,0.282 2.9,0.715 0.728,0.439 1.103,0.991 1.101,1.536 0,0.099 0.038,0.196 0.109,0.265 0.069,0.07 0.165,0.11 0.267,0.11 0.099,0 0.193,-0.04 0.264,-0.11 0.071,-0.071 0.109,-0.166 0.109,-0.265 -0.004,-0.545 0.373,-1.097 1.099,-1.536 0.719,-0.433 1.755,-0.715 2.902,-0.715 1.147,0 2.181,0.282 2.9,0.715 0.726,0.439 1.103,0.991 1.099,1.536 0,0.099 0.04,0.196 0.109,0.265 0.071,0.07 0.167,0.11 0.267,0.11 0.099,0 0.193,-0.04 0.264,-0.11 0.071,-0.071 0.109,-0.166 0.109,-0.265 -0.002,-0.545 0.375,-1.097 1.101,-1.536 0.719,-0.433 1.753,-0.715 2.9,-0.715 1.147,0 2.183,0.282 2.9,0.715 0.728,0.439 1.103,0.991 1.101,1.536 0,0.099 0.038,0.196 0.11,0.265 0.068,0.07 0.164,0.11 0.264,0.11 0.101,0 0.195,-0.04 0.266,-0.11 0.071,-0.071 0.109,-0.166 0.109,-0.265 -0.004,-0.545 0.373,-1.097 1.099,-1.536 0.719,-0.433 1.755,-0.715 2.902,-0.715 1.147,0 2.181,0.282 2.901,0.715 0.725,0.439 1.104,0.991 1.098,1.536 0,0.099 0.041,0.196 0.111,0.265 0.069,0.07 0.166,0.11 0.266,0.11 0.098,0 0.193,-0.04 0.264,-0.11 0.07,-0.071 0.109,-0.166 0.109,-0.265 -0.002,-0.545 0.375,-1.097 1.1,-1.536 0.72,-0.433 1.754,-0.715 2.9,-0.715 1.148,0 2.182,0.282 2.9,0.715 0.729,0.439 1.104,0.991 1.102,1.536 0,0.099 0.037,0.196 0.107,0.265 0.071,0.07 0.166,0.11 0.266,0.11 0.102,0 0.197,-0.04 0.266,-0.11 0.072,-0.071 0.109,-0.166 0.109,-0.265 -0.004,-0.545 0.373,-1.097 1.1,-1.536 0.718,-0.433 1.754,-0.715 2.902,-0.715 1.146,0 2.182,0.282 2.9,0.715 0.725,0.439 1.1,0.991 1.098,1.536 0,0.099 0.041,0.196 0.111,0.265 0.069,0.07 0.166,0.11 0.266,0.11 0.098,0 0.193,-0.04 0.264,-0.11 C 0.336,1.371 0.375,1.276 0.375,1.177 0.373,0.632 0.75,0.08 1.477,-0.359 2.195,-0.792 3.229,-1.074 4.375,-1.074 4.582,-1.074 4.75,-1.241 4.75,-1.449 4.75,-1.656 4.582,-1.823 4.375,-1.823 2.463,-1.813 0.736,-1.133 0,0"
           style="fill:#ffffff;fill-opacity:1;fill-rule:nonzero;stroke:none"
           id="path38" />
      </g>
      <g
         id="g40"
         transform="translate(251.6636,519.917)">
        <path
           d="M 0,0 H 3.768 L 4.121,-2.02 1.883,-1.211 -0.355,-2.02 Z m 1.883,-4.545 c 0,-1.021 0.98,-1.895 2.398,-2.33 L 5.682,-2.582 4.789,-2.26 4.393,0 H 4.729 V 1.232 H 3.133 L 2.602,2.752 H 1.164 L 0.635,1.232 H -0.959 V 0 h 0.334 l -0.396,-2.262 -0.893,-0.322 1.398,-4.291 c 1.418,0.434 2.399,1.309 2.399,2.33"
           style="fill:#ffffff;fill-opacity:1;fill-rule:nonzero;stroke:none"
           id="path42" />
      </g>
      <g
         id="g44"
         transform="translate(260.4136,505.8389)">
        <path
           d="M 0,0 H 3.768 L 4.121,-2.02 1.883,-1.211 -0.355,-2.02 Z m 1.883,-4.545 c 0,-1.021 0.98,-1.895 2.398,-2.33 L 5.682,-2.582 4.789,-2.26 4.393,0 H 4.729 V 1.232 H 3.133 L 2.602,2.752 H 1.164 L 0.635,1.232 H -0.959 V 0 h 0.334 l -0.396,-2.262 -0.893,-0.322 1.398,-4.291 c 1.418,0.434 2.399,1.309 2.399,2.33"
           style="fill:#ffffff;fill-opacity:1;fill-rule:nonzero;stroke:none"
           id="path46" />
      </g>
      <g
         id="g48"
         transform="translate(260.4136,491.8389)">
        <path
           d="M 0,0 H 3.768 L 4.121,-2.02 1.883,-1.211 -0.355,-2.02 Z m 1.883,-4.545 c 0,-1.02 0.98,-1.894 2.398,-2.329 L 5.682,-2.582 4.789,-2.26 4.393,0 H 4.729 V 1.232 H 3.133 L 2.602,2.753 H 1.164 L 0.635,1.232 H -0.959 V 0 h 0.334 l -0.396,-2.261 -0.893,-0.322 1.398,-4.292 c 1.418,0.435 2.399,1.31 2.399,2.33"
           style="fill:#ffffff;fill-opacity:1;fill-rule:nonzero;stroke:none"
           id="path50" />
      </g>
      <g
         id="g52"
         transform="translate(319.3931,486.4814)">
        <path
           d="m 0,0 c 0,-0.354 -0.09,-0.669 -0.27,-0.943 -0.179,-0.275 -0.439,-0.489 -0.777,-0.641 -0.34,-0.152 -0.736,-0.229 -1.191,-0.229 -0.381,0 -0.7,0.027 -0.957,0.081 -0.258,0.053 -0.528,0.146 -0.805,0.279 v 1.375 c 0.293,-0.151 0.6,-0.269 0.918,-0.354 0.316,-0.085 0.609,-0.127 0.875,-0.127 0.228,0 0.396,0.04 0.504,0.12 0.105,0.079 0.16,0.181 0.16,0.306 0,0.078 -0.021,0.147 -0.064,0.205 -0.043,0.059 -0.114,0.118 -0.207,0.178 -0.096,0.06 -0.35,0.182 -0.76,0.367 -0.373,0.17 -0.653,0.334 -0.838,0.492 -0.188,0.159 -0.324,0.342 -0.414,0.547 -0.09,0.205 -0.135,0.449 -0.135,0.731 0,0.525 0.191,0.935 0.574,1.23 0.383,0.295 0.908,0.442 1.578,0.442 0.59,0 1.194,-0.137 1.809,-0.411 L -0.473,2.457 C -1.008,2.701 -1.469,2.824 -1.855,2.824 -2.057,2.824 -2.203,2.789 -2.293,2.719 -2.385,2.648 -2.43,2.561 -2.43,2.457 c 0,-0.111 0.057,-0.213 0.174,-0.301 0.115,-0.088 0.43,-0.25 0.943,-0.484 C -0.82,1.451 -0.479,1.213 -0.287,0.959 -0.096,0.705 0,0.385 0,0"
           style="fill:#ffffff;fill-opacity:1;fill-rule:nonzero;stroke:none"
           id="path54" />
      </g>
      <g
         id="g56"
         transform="translate(322.7954,484.7471)">
        <path
           d="M 0,0 H -1.543 V 4.449 H -2.938 V 5.711 H 1.391 V 4.449 H 0 Z"
           style="fill:#ffffff;fill-opacity:1;fill-rule:nonzero;stroke:none"
           id="path58" />
      </g>
      <g
         id="g60"
         transform="translate(326.5454,487.9854)">
        <path
           d="m 0,0 h 0.289 c 0.539,0 0.809,0.238 0.809,0.715 0,0.392 -0.266,0.59 -0.793,0.59 H 0 Z m 0,-1.16 v -2.078 h -1.543 v 5.711 h 1.871 c 1.551,0 2.328,-0.563 2.328,-1.688 0,-0.662 -0.324,-1.174 -0.968,-1.535 L 3.352,-3.238 H 1.602 L 0.391,-1.16 Z"
           style="fill:#ffffff;fill-opacity:1;fill-rule:nonzero;stroke:none"
           id="path62" />
      </g>
      <g
         id="g64"
         transform="translate(331.8306,487.6104)">
        <path
           d="m 0,0 c 0,-1.104 0.383,-1.656 1.152,-1.656 0.391,0 0.68,0.134 0.869,0.402 C 2.209,-0.985 2.305,-0.568 2.305,0 2.305,0.57 2.209,0.992 2.018,1.264 1.826,1.535 1.539,1.672 1.16,1.672 0.387,1.672 0,1.115 0,0 m 3.93,0 c 0,-0.961 -0.237,-1.691 -0.707,-2.191 -0.473,-0.5 -1.162,-0.75 -2.071,-0.75 -0.896,0 -1.584,0.251 -2.06,0.753 -0.479,0.503 -0.717,1.235 -0.717,2.196 0,0.951 0.236,1.676 0.713,2.178 0.474,0.502 1.166,0.752 2.072,0.752 0.908,0 1.598,-0.249 2.067,-0.747 C 3.695,1.693 3.93,0.963 3.93,0"
           style="fill:#ffffff;fill-opacity:1;fill-rule:nonzero;stroke:none"
           id="path66" />
      </g>
      <g
         id="g68"
         transform="translate(342.229,484.7471)">
        <path
           d="M 0,0 H -2.023 L -4.109,4.023 H -4.145 C -4.096,3.391 -4.07,2.908 -4.07,2.574 V 0 h -1.368 v 5.711 h 2.016 L -1.344,1.742 H -1.32 C -1.357,2.318 -1.375,2.779 -1.375,3.129 V 5.711 H 0 Z"
           style="fill:#ffffff;fill-opacity:1;fill-rule:nonzero;stroke:none"
           id="path70" />
      </g>
      <g
         id="g72"
         transform="translate(345.7563,488.0908)">
        <path
           d="m 0,0 h 2.465 v -3.078 c -0.67,-0.23 -1.406,-0.344 -2.207,-0.344 -0.881,0 -1.561,0.255 -2.041,0.766 -0.481,0.51 -0.721,1.238 -0.721,2.183 0,0.922 0.262,1.639 0.789,2.153 0.526,0.513 1.262,0.769 2.211,0.769 0.359,0 0.697,-0.033 1.018,-0.101 C 1.832,2.279 2.109,2.193 2.348,2.09 L 1.859,0.879 C 1.447,1.082 0.996,1.184 0.504,1.184 0.053,1.184 -0.295,1.037 -0.541,0.744 -0.787,0.451 -0.91,0.033 -0.91,-0.512 c 0,-0.533 0.111,-0.94 0.334,-1.22 0.222,-0.281 0.543,-0.42 0.963,-0.42 0.228,0 0.439,0.022 0.633,0.066 v 0.895 H 0 Z"
           style="fill:#ffffff;fill-opacity:1;fill-rule:nonzero;stroke:none"
           id="path74" />
      </g>
      <g
         id="g76"
         transform="translate(316.936,501.1377)">
        <path
           d="m 0,0 v -1.199 h 0.543 c 0.48,0 0.723,0.203 0.723,0.609 0,0.191 -0.065,0.336 -0.194,0.438 C 0.943,-0.051 0.756,0 0.512,0 Z m 0,1.129 h 0.465 c 0.221,0 0.392,0.046 0.514,0.137 0.121,0.09 0.181,0.226 0.181,0.406 0,0.32 -0.242,0.48 -0.726,0.48 H 0 Z M -1.543,3.32 H 0.449 C 1.225,3.32 1.801,3.205 2.178,2.975 2.553,2.744 2.742,2.386 2.742,1.898 2.742,1.578 2.66,1.305 2.496,1.078 2.332,0.852 2.115,0.706 1.848,0.641 V 0.602 C 2.201,0.508 2.457,0.352 2.617,0.133 2.775,-0.086 2.855,-0.37 2.855,-0.719 2.855,-1.237 2.66,-1.646 2.271,-1.943 1.881,-2.241 1.352,-2.391 0.68,-2.391 h -2.223 z"
           style="fill:#ffffff;fill-opacity:1;fill-rule:nonzero;stroke:none"
           id="path78" />
      </g>
      <path
         d="m 320.784,504.458 h 1.551 v -5.711 h -1.551 z"
         style="fill:#ffffff;fill-opacity:1;fill-rule:nonzero;stroke:none"
         id="path80" />
      <g
         id="g82"
         transform="translate(326.0884,498.7471)">
        <path
           d="M 0,0 H -1.543 V 4.449 H -2.938 V 5.711 H 1.391 V 4.449 H 0 Z"
           style="fill:#ffffff;fill-opacity:1;fill-rule:nonzero;stroke:none"
           id="path84" />
      </g>
      <g
         id="g86"
         transform="translate(330.8149,498.7471)">
        <path
           d="M 0,0 H -1.543 V 4.449 H -2.938 V 5.711 H 1.391 V 4.449 H 0 Z"
           style="fill:#ffffff;fill-opacity:1;fill-rule:nonzero;stroke:none"
           id="path88" />
      </g>
      <g
         id="g90"
         transform="translate(336.4126,498.7471)">
        <path
           d="M 0,0 H -3.391 V 5.711 H 0 V 4.473 H -1.848 V 3.574 h 1.711 V 2.336 H -1.848 V 1.258 H 0 Z"
           style="fill:#ffffff;fill-opacity:1;fill-rule:nonzero;stroke:none"
           id="path92" />
      </g>
      <g
         id="g94"
         transform="translate(338.9556,501.9854)">
        <path
           d="m 0,0 h 0.289 c 0.539,0 0.809,0.238 0.809,0.715 0,0.393 -0.266,0.59 -0.793,0.59 H 0 Z m 0,-1.16 v -2.078 h -1.543 v 5.711 h 1.871 c 1.551,0 2.328,-0.563 2.328,-1.688 0,-0.661 -0.324,-1.173 -0.968,-1.535 L 3.352,-3.238 H 1.602 L 0.391,-1.16 Z"
           style="fill:#ffffff;fill-opacity:1;fill-rule:nonzero;stroke:none"
           id="path96" />
      </g>
      <g
         id="g98"
         transform="translate(318.6392,515.6689)">
        <path
           d="m 0,0 c 0,0.523 -0.104,0.911 -0.311,1.164 -0.207,0.253 -0.521,0.379 -0.943,0.379 h -0.449 v -3.199 h 0.344 c 0.468,0 0.812,0.135 1.031,0.408 C -0.109,-0.976 0,-0.56 0,0 m 1.602,0.055 c 0,-0.953 -0.264,-1.688 -0.788,-2.203 -0.525,-0.516 -1.263,-0.774 -2.212,-0.774 h -1.848 v 5.711 h 1.976 c 0.916,0 1.624,-0.234 2.124,-0.703 C 1.352,1.617 1.602,0.94 1.602,0.055"
           style="fill:#ffffff;fill-opacity:1;fill-rule:nonzero;stroke:none"
           id="path100" />
      </g>
      <g
         id="g102"
         transform="translate(324.1665,515.083)">
        <path
           d="M 0,0 -0.246,0.938 C -0.305,1.146 -0.373,1.415 -0.455,1.746 -0.537,2.077 -0.592,2.313 -0.617,2.457 -0.641,2.324 -0.688,2.105 -0.756,1.801 -0.826,1.496 -0.979,0.896 -1.215,0 Z m 0.602,-2.336 -0.282,1.07 h -1.855 l -0.289,-1.07 H -3.52 l 1.864,5.734 h 2.058 l 1.887,-5.734 z"
           style="fill:#ffffff;fill-opacity:1;fill-rule:nonzero;stroke:none"
           id="path104" />
      </g>
      <g
         id="g106"
         transform="translate(328.6157,515.9854)">
        <path
           d="m 0,0 h 0.289 c 0.539,0 0.809,0.238 0.809,0.715 0,0.393 -0.266,0.59 -0.793,0.59 H 0 Z m 0,-1.16 v -2.078 h -1.543 v 5.711 h 1.871 c 1.551,0 2.328,-0.563 2.328,-1.688 0,-0.661 -0.324,-1.173 -0.968,-1.535 L 3.352,-3.238 H 1.602 L 0.391,-1.16 Z"
           style="fill:#ffffff;fill-opacity:1;fill-rule:nonzero;stroke:none"
           id="path108" />
      </g>
      <g
         id="g110"
         transform="translate(337.3657,512.7471)">
        <path
           d="M 0,0 H -1.742 L -2.871,2.184 -3.328,1.91 V 0 h -1.551 v 5.711 h 1.551 V 3.23 c 0.078,0.154 0.234,0.398 0.473,0.731 l 1.199,1.75 H 0.031 L -1.77,3.152 Z"
           style="fill:#ffffff;fill-opacity:1;fill-rule:nonzero;stroke:none"
           id="path112" />
      </g>
      <g
         id="g114"
         transform="translate(222.314,500.4814)">
        <path
           d="m 0,0 c 0,-0.354 -0.09,-0.669 -0.27,-0.943 -0.179,-0.276 -0.438,-0.489 -0.777,-0.641 -0.339,-0.152 -0.735,-0.229 -1.191,-0.229 -0.38,0 -0.7,0.027 -0.957,0.081 -0.258,0.052 -0.527,0.146 -0.805,0.279 v 1.375 c 0.294,-0.151 0.601,-0.27 0.918,-0.354 0.317,-0.085 0.609,-0.127 0.875,-0.127 0.229,0 0.397,0.039 0.504,0.12 0.106,0.079 0.16,0.181 0.16,0.306 0,0.078 -0.021,0.147 -0.064,0.205 -0.043,0.059 -0.113,0.117 -0.207,0.178 -0.095,0.06 -0.349,0.182 -0.76,0.367 -0.372,0.169 -0.652,0.333 -0.838,0.492 -0.187,0.159 -0.324,0.341 -0.414,0.547 -0.09,0.205 -0.135,0.449 -0.135,0.731 0,0.525 0.191,0.935 0.574,1.23 0.383,0.294 0.909,0.442 1.578,0.442 0.591,0 1.195,-0.137 1.809,-0.411 L -0.473,2.457 C -1.007,2.701 -1.468,2.824 -1.855,2.824 -2.056,2.824 -2.202,2.789 -2.293,2.719 -2.384,2.648 -2.43,2.561 -2.43,2.457 -2.43,2.345 -2.372,2.244 -2.256,2.156 -2.14,2.067 -1.825,1.906 -1.313,1.672 -0.82,1.45 -0.479,1.213 -0.287,0.959 -0.096,0.705 0,0.385 0,0"
           style="fill:#ffffff;fill-opacity:1;fill-rule:nonzero;stroke:none"
           id="path116" />
      </g>
      <g
         id="g118"
         transform="translate(229.3647,498.7471)">
        <path
           d="M 0,0 H -1.824 L -2.371,2.488 C -2.397,2.592 -2.438,2.799 -2.494,3.109 -2.55,3.419 -2.591,3.678 -2.617,3.887 -2.638,3.717 -2.672,3.507 -2.719,3.256 -2.766,3.004 -2.812,2.773 -2.857,2.563 -2.903,2.352 -3.093,1.497 -3.426,0 H -5.25 l -1.414,5.711 h 1.488 l 0.621,-2.863 c 0.141,-0.633 0.238,-1.137 0.289,-1.512 0.035,0.266 0.095,0.626 0.182,1.082 0.087,0.455 0.169,0.833 0.244,1.133 l 0.504,2.16 h 1.43 l 0.488,-2.16 c 0.083,-0.347 0.168,-0.746 0.254,-1.199 0.086,-0.454 0.143,-0.792 0.172,-1.016 0.034,0.289 0.126,0.79 0.277,1.504 l 0.633,2.871 h 1.488 z"
           style="fill:#ffffff;fill-opacity:1;fill-rule:nonzero;stroke:none"
           id="path120" />
      </g>
      <g
         id="g122"
         transform="translate(234.8999,498.7471)">
        <path
           d="M 0,0 H -3.391 V 5.711 H 0 V 4.473 H -1.848 V 3.574 h 1.711 V 2.336 H -1.848 V 1.258 H 0 Z"
           style="fill:#ffffff;fill-opacity:1;fill-rule:nonzero;stroke:none"
           id="path124" />
      </g>
      <g
         id="g126"
         transform="translate(239.2905,498.7471)">
        <path
           d="M 0,0 H -3.391 V 5.711 H 0 V 4.473 H -1.848 V 3.574 h 1.711 V 2.336 H -1.848 V 1.258 H 0 Z"
           style="fill:#ffffff;fill-opacity:1;fill-rule:nonzero;stroke:none"
           id="path128" />
      </g>
      <g
         id="g130"
         transform="translate(242.8101,498.7471)">
        <path
           d="M 0,0 H -1.543 V 4.449 H -2.938 V 5.711 H 1.391 V 4.449 H 0 Z"
           style="fill:#ffffff;fill-opacity:1;fill-rule:nonzero;stroke:none"
           id="path132" />
      </g>
      <g
         id="g134"
         transform="translate(219.8569,515.8994)">
        <path
           d="m 0,0 h 0.281 c 0.232,0 0.416,0.065 0.553,0.195 0.137,0.13 0.205,0.31 0.205,0.539 0,0.386 -0.214,0.579 -0.641,0.579 H 0 Z M 2.602,0.742 C 2.602,0.104 2.413,-0.389 2.037,-0.736 1.661,-1.084 1.126,-1.258 0.434,-1.258 H 0 V -3.152 H -1.543 V 2.559 H 0.434 C 1.155,2.559 1.696,2.401 2.059,2.086 2.421,1.771 2.602,1.323 2.602,0.742"
           style="fill:#ffffff;fill-opacity:1;fill-rule:nonzero;stroke:none"
           id="path136" />
      </g>
      <g
         id="g138"
         transform="translate(228.2632,515.083)">
        <path
           d="M 0,0 -0.246,0.938 C -0.304,1.146 -0.373,1.415 -0.455,1.746 -0.537,2.077 -0.591,2.313 -0.617,2.457 -0.641,2.324 -0.687,2.105 -0.756,1.801 -0.825,1.496 -0.978,0.896 -1.215,0 Z m 0.602,-2.336 -0.282,1.07 h -1.855 l -0.289,-1.07 H -3.52 l 1.864,5.734 h 2.058 l 1.887,-5.734 z"
           style="fill:#ffffff;fill-opacity:1;fill-rule:nonzero;stroke:none"
           id="path140" />
      </g>
      <g
         id="g142"
         transform="translate(233.1616,512.7471)">
        <path
           d="M 0,0 V 5.711 H 1.543 V 1.246 H 3.742 V 0 Z"
           style="fill:#ffffff;fill-opacity:1;fill-rule:nonzero;stroke:none"
           id="path144" />
      </g>
      <g
         id="g146"
         transform="translate(243.2007,512.7471)">
        <path
           d="M 0,0 H -3.391 V 5.711 H 0 V 4.473 H -1.848 V 3.574 h 1.711 V 2.336 H -1.848 V 1.258 H 0 Z"
           style="fill:#ffffff;fill-opacity:1;fill-rule:nonzero;stroke:none"
           id="path148" />
      </g>
      <g
         id="g150"
         transform="translate(218.314,484.7471)">
        <path
           d="M 0,0 V 5.711 H 1.543 V 1.246 H 3.742 V 0 Z"
           style="fill:#ffffff;fill-opacity:1;fill-rule:nonzero;stroke:none"
           id="path152" />
      </g>
      <path
         d="m 223.387,490.458 h 1.551 v -5.711 h -1.551 z"
         style="fill:#ffffff;fill-opacity:1;fill-rule:nonzero;stroke:none"
         id="path154" />
      <g
         id="g156"
         transform="translate(228.8823,488.0908)">
        <path
           d="M 0,0 H 2.465 V -3.078 C 1.796,-3.308 1.06,-3.422 0.258,-3.422 c -0.88,0 -1.561,0.255 -2.041,0.766 -0.481,0.51 -0.721,1.238 -0.721,2.183 0,0.922 0.263,1.64 0.789,2.153 0.527,0.512 1.263,0.769 2.211,0.769 0.359,0 0.698,-0.034 1.018,-0.101 C 1.833,2.28 2.11,2.194 2.348,2.09 L 1.859,0.879 C 1.448,1.082 0.996,1.184 0.504,1.184 0.054,1.184 -0.295,1.037 -0.541,0.744 -0.787,0.451 -0.91,0.032 -0.91,-0.512 c 0,-0.534 0.111,-0.94 0.334,-1.22 0.222,-0.281 0.544,-0.42 0.963,-0.42 0.229,0 0.44,0.022 0.633,0.066 v 0.895 H 0 Z"
           style="fill:#ffffff;fill-opacity:1;fill-rule:nonzero;stroke:none"
           id="path158" />
      </g>
      <g
         id="g160"
         transform="translate(237.8228,484.7471)">
        <path
           d="M 0,0 H -1.551 V 2.328 H -3.344 V 0 h -1.551 v 5.711 h 1.551 V 3.594 h 1.793 V 5.711 H 0 Z"
           style="fill:#ffffff;fill-opacity:1;fill-rule:nonzero;stroke:none"
           id="path162" />
      </g>
      <g
         id="g164"
         transform="translate(241.9937,484.7471)">
        <path
           d="M 0,0 H -1.543 V 4.449 H -2.938 V 5.711 H 1.391 V 4.449 H 0 Z"
           style="fill:#ffffff;fill-opacity:1;fill-rule:nonzero;stroke:none"
           id="path166" />
      </g>
      <text
         y="-532.6377"
         x="250.2925"
         transform="scale(1,-1)"
         style="font-variant:normal;font-weight:normal;font-stretch:normal;font-size:12px;font-family:'Myriad Pro';-inkscape-font-specification:MyriadPro-Regular;writing-mode:lr-tb;fill:#ffffff;fill-opacity:1;fill-rule:nonzero;stroke:none"
         id="text170">
        <tspan
           x="250.2925 256.79651 259.62851 266.24051 272.2525 274.79651 280.46051 286.24451 292.95251 299.5405 306.12851"
           y="-532.6377"
           id="tspan168">Blue Lagoon</tspan>
      </text>
    </g>
  </g>
</svg>
