<?xml version="1.0" encoding="UTF-8" standalone="no"?>
<svg
   xmlns:dc="http://purl.org/dc/elements/1.1/"
   xmlns:cc="http://creativecommons.org/ns#"
   xmlns:rdf="http://www.w3.org/1999/02/22-rdf-syntax-ns#"
   xmlns:svg="http://www.w3.org/2000/svg"
   xmlns="http://www.w3.org/2000/svg"
   id="svg4410"
   version="1.1"
   viewBox="0 0 66.145832 66.145835"
   height="250"
   width="250">
  <defs
     id="defs4404" />
  <metadata
     id="metadata4407">
    <rdf:RDF>
      <cc:Work
         rdf:about="">
        <dc:format>image/svg+xml</dc:format>
        <dc:type
           rdf:resource="http://purl.org/dc/dcmitype/StillImage" />
        <dc:title></dc:title>
      </cc:Work>
    </rdf:RDF>
  </metadata>
  <g
     transform="translate(0,-230.85415)"
     id="layer1">
    <g
       transform="matrix(2.1197829,0,0,-2.0707458,48.95115,264.75847)"
       id="g22">
      <path
         id="path24"
         style="fill:#ffffff;fill-opacity:1;fill-rule:nonzero;stroke:none"
         d="M 0,0 -1.508,-2.568 -3.047,0 h -1.67 L -2.5,-3.457 -4.867,-7.139 h 1.621 l 1.66,2.701 1.66,-2.701 h 1.729 l -2.412,3.6 L 1.631,0 Z m -8.795,-5.801 0.918,0.865 c 0.611,0.56 1.039,0.991 1.281,1.293 0.242,0.303 0.422,0.599 0.537,0.887 0.116,0.288 0.174,0.597 0.174,0.926 0,0.377 -0.094,0.713 -0.283,1.006 -0.189,0.293 -0.455,0.52 -0.796,0.683 -0.342,0.162 -0.736,0.245 -1.182,0.245 -0.338,0 -0.645,-0.034 -0.918,-0.101 -0.273,-0.067 -0.526,-0.162 -0.757,-0.286 -0.231,-0.123 -0.522,-0.335 -0.874,-0.635 l 0.82,-0.971 c 0.284,0.235 0.556,0.414 0.816,0.541 0.26,0.127 0.529,0.192 0.806,0.192 0.263,0 0.474,-0.071 0.632,-0.211 0.158,-0.14 0.237,-0.353 0.237,-0.639 0,-0.192 -0.036,-0.378 -0.108,-0.557 -0.071,-0.179 -0.189,-0.374 -0.351,-0.583 -0.163,-0.21 -0.51,-0.587 -1.04,-1.131 l -1.792,-1.811 v -1.051 h 4.989 v 1.27 h -3.109 z m -7.898,3.971 0.728,-0.908 0.82,0.658 c 0.098,0.078 0.272,0.243 0.522,0.494 l -0.024,-0.742 -0.015,-0.68 v -4.131 h 1.509 V 0 h -1.24 z M 6.113,-14.57 H -21.095 V 8.431 h 1.448 c 0.005,0 0.012,-10e-4 0.018,-10e-4 0.002,0 0.004,10e-4 0.005,10e-4 h 9.982 c 0.006,0 0.012,-10e-4 0.018,-10e-4 0.002,0 0.004,10e-4 0.006,10e-4 h 9.981 c 0.006,0 0.012,-10e-4 0.018,-10e-4 0.002,0 0.004,10e-4 0.006,10e-4 h 5.726 z m -24.805,27.676 0.001,0.092 h 2.389 v -0.041 l 0.387,-3.727 h -3.163 z m 0.034,1.602 c 0.056,0.119 0.081,0.243 0.081,0.36 0,0.105 -0.02,0.208 -0.058,0.305 h 2.274 c -0.038,-0.097 -0.059,-0.2 -0.059,-0.305 0,-0.115 0.027,-0.245 0.085,-0.362 0.133,-0.278 0.222,-0.574 0.262,-0.88 -0.043,-0.034 -0.07,-0.084 -0.103,-0.129 h -2.645 c -0.032,0.044 -0.058,0.092 -0.1,0.126 0.04,0.309 0.128,0.606 0.263,0.885 m 9.97,-1.602 0.001,0.092 h 2.39 V 13.157 L -5.908,9.43 h -3.164 z m 0.036,1.602 c 0.055,0.121 0.08,0.243 0.08,0.358 0,0.106 -0.02,0.209 -0.058,0.307 h 2.276 c -0.039,-0.097 -0.058,-0.199 -0.058,-0.305 -0.002,-0.115 0.026,-0.247 0.086,-0.364 0.132,-0.276 0.221,-0.573 0.26,-0.879 -0.043,-0.034 -0.071,-0.083 -0.103,-0.128 h -2.645 c -0.032,0.043 -0.058,0.092 -0.1,0.125 0.039,0.309 0.125,0.607 0.262,0.886 M 1.32,13.106 v 0.092 H 3.71 V 13.157 L 4.1,9.43 H 0.934 Z m 0.035,1.602 c 0.055,0.119 0.081,0.243 0.081,0.36 0,0.105 -0.02,0.208 -0.059,0.305 h 2.275 c -0.039,-0.097 -0.059,-0.2 -0.059,-0.305 0,-0.115 0.026,-0.245 0.085,-0.362 C 3.811,14.428 3.899,14.131 3.939,13.825 3.896,13.791 3.87,13.742 3.838,13.697 H 1.191 c -0.031,0.044 -0.057,0.092 -0.099,0.126 0.039,0.309 0.127,0.606 0.263,0.885 M 6.967,9.283 C 6.873,9.376 6.746,9.43 6.613,9.43 H 5.104 l -0.391,3.716 c 0.148,0.142 0.239,0.339 0.24,0.557 0,0.006 0,0.025 -0.002,0.056 -0.035,0.434 -0.141,0.855 -0.313,1.25 0.11,0.105 0.177,0.251 0.177,0.411 -0.002,0.225 -0.071,0.44 -0.206,0.622 -0.16,0.216 -0.409,0.331 -0.662,0.331 H 1.088 C 0.834,16.373 0.581,16.258 0.42,16.042 0.291,15.858 0.217,15.648 0.217,15.42 0.215,15.263 0.283,15.114 0.393,15.01 0.225,14.627 0.122,14.218 0.084,13.801 c -0.026,-0.103 0.011,-0.093 -0.006,-0.1 0,-0.22 0.092,-0.42 0.244,-0.561 L -0.072,9.43 h -4.831 l -0.391,3.716 c 0.15,0.142 0.24,0.339 0.24,0.557 0,0.006 0.002,0.025 0,0.056 -0.035,0.434 -0.141,0.856 -0.313,1.251 0.113,0.109 0.177,0.261 0.176,0.41 0,0.223 -0.071,0.44 -0.208,0.624 -0.16,0.214 -0.408,0.329 -0.662,0.329 H -8.92 c -0.253,0 -0.506,-0.115 -0.667,-0.331 -0.128,-0.186 -0.202,-0.394 -0.202,-0.622 -0.004,-0.146 0.063,-0.302 0.175,-0.41 -0.17,-0.386 -0.273,-0.801 -0.309,-1.225 -0.013,-0.073 0.002,-0.086 -0.006,-0.086 0.002,-0.22 0.093,-0.418 0.243,-0.559 l -0.391,-3.71 h -4.832 l -0.39,3.716 c 0.149,0.142 0.238,0.339 0.24,0.557 0,0.006 0,0.025 -0.002,0.056 -0.035,0.434 -0.142,0.855 -0.314,1.251 0.11,0.104 0.176,0.25 0.176,0.41 0,0.225 -0.07,0.44 -0.204,0.622 -0.16,0.216 -0.41,0.331 -0.663,0.331 h -2.859 c -0.253,0 -0.507,-0.115 -0.667,-0.331 -0.13,-0.184 -0.204,-0.394 -0.204,-0.622 -0.001,-0.158 0.067,-0.307 0.176,-0.41 -0.167,-0.382 -0.27,-0.79 -0.308,-1.207 -0.029,-0.105 0.009,-0.095 -0.006,-0.102 0,-0.22 0.091,-0.42 0.243,-0.562 L -20.084,9.43 h -1.511 c -0.132,0 -0.26,-0.054 -0.353,-0.147 -0.093,-0.093 -0.146,-0.22 -0.146,-0.353 v -24 c 0,-0.132 0.053,-0.26 0.146,-0.353 0.093,-0.094 0.223,-0.147 0.353,-0.147 H 6.613 c 0.133,0 0.258,0.051 0.354,0.147 0.094,0.093 0.146,0.219 0.146,0.353 v 24 c 0,0.133 -0.054,0.26 -0.146,0.353" />
    </g>
  </g>
</svg>
