<?xml version="1.0" encoding="UTF-8" standalone="no"?>
<svg
   xmlns:dc="http://purl.org/dc/elements/1.1/"
   xmlns:cc="http://creativecommons.org/ns#"
   xmlns:rdf="http://www.w3.org/1999/02/22-rdf-syntax-ns#"
   xmlns:svg="http://www.w3.org/2000/svg"
   xmlns="http://www.w3.org/2000/svg"
   id="svg4410"
   version="1.1"
   viewBox="0 0 92.604164 39.687501"
   height="150"
   width="350">
  <defs
     id="defs4404" />
  <metadata
     id="metadata4407">
    <rdf:RDF>
      <cc:Work
         rdf:about="">
        <dc:format>image/svg+xml</dc:format>
        <dc:type
           rdf:resource="http://purl.org/dc/dcmitype/StillImage" />
        <dc:title></dc:title>
      </cc:Work>
    </rdf:RDF>
  </metadata>
  <g
     transform="translate(0,-257.31248)"
     id="layer1">
    <g
       id="g7629"
       transform="matrix(0.71285245,0,0,-0.69068597,-155.62595,341.40688)">
      <g
         id="g172"
         transform="translate(248.7949,64.6689)">
        <path
           d="m 0,0 c 0,0.209 0.168,0.375 0.377,0.375 1.146,0 2.18,0.283 2.9,0.716 0.725,0.438 1.102,0.991 1.098,1.535 0,0.099 0.041,0.195 0.109,0.266 0.071,0.069 0.168,0.109 0.266,0.109 0.1,0 0.197,-0.04 0.268,-0.109 C 5.086,2.821 5.127,2.725 5.127,2.626 5.123,2.082 5.5,1.529 6.225,1.091 c 0.72,-0.433 1.754,-0.716 2.9,-0.716 1.148,0 2.184,0.283 2.9,0.716 0.729,0.438 1.104,0.991 1.1,1.535 0,0.099 0.041,0.195 0.111,0.266 0.071,0.069 0.164,0.109 0.266,0.109 0.098,0 0.193,-0.04 0.264,-0.109 0.07,-0.071 0.109,-0.167 0.109,-0.266 -0.004,-0.544 0.373,-1.097 1.1,-1.535 0.718,-0.433 1.754,-0.716 2.902,-0.716 1.146,0 2.18,0.283 2.9,0.716 0.725,0.438 1.102,0.991 1.098,1.535 0,0.099 0.041,0.195 0.109,0.266 0.071,0.069 0.168,0.109 0.268,0.109 0.098,0 0.195,-0.04 0.264,-0.109 0.07,-0.071 0.111,-0.167 0.111,-0.266 C 22.623,2.082 23,1.529 23.725,1.091 c 0.72,-0.433 1.754,-0.716 2.9,-0.716 1.148,0 2.184,0.283 2.9,0.716 0.729,0.438 1.104,0.991 1.1,1.535 0,0.099 0.041,0.195 0.111,0.266 0.071,0.069 0.164,0.109 0.264,0.109 0.1,0 0.195,-0.04 0.266,-0.109 0.07,-0.071 0.109,-0.167 0.109,-0.266 -0.004,-0.544 0.373,-1.097 1.1,-1.535 0.718,-0.433 1.754,-0.716 2.902,-0.716 1.146,0 2.18,0.283 2.9,0.716 0.725,0.438 1.104,0.991 1.098,1.535 0,0.099 0.041,0.195 0.111,0.266 0.069,0.069 0.166,0.109 0.266,0.109 0.098,0 0.195,-0.04 0.264,-0.109 0.07,-0.071 0.111,-0.167 0.111,-0.266 -0.004,-0.544 0.373,-1.097 1.098,-1.535 0.72,-0.433 1.754,-0.716 2.9,-0.716 1.148,0 2.182,0.283 2.9,0.716 0.729,0.438 1.104,0.991 1.1,1.535 0,0.099 0.041,0.195 0.109,0.266 0.073,0.069 0.166,0.109 0.266,0.109 0.1,0 0.197,-0.04 0.266,-0.109 0.07,-0.071 0.109,-0.167 0.109,-0.266 -0.004,-0.544 0.373,-1.097 1.1,-1.535 0.718,-0.433 1.754,-0.716 2.902,-0.716 1.146,0 2.182,0.283 2.9,0.716 0.725,0.438 1.1,0.991 1.098,1.535 0,0.099 0.041,0.195 0.111,0.266 0.069,0.069 0.166,0.109 0.266,0.109 0.098,0 0.193,-0.04 0.264,-0.109 0.07,-0.071 0.111,-0.167 0.111,-0.266 C 57.623,2.082 58,1.529 58.727,1.091 59.445,0.658 60.479,0.375 61.625,0.375 61.832,0.375 62,0.207 62,0 62,-0.205 61.832,-0.373 61.625,-0.373 59.713,-0.363 57.986,0.316 57.25,1.448 56.516,0.316 54.791,-0.363 52.877,-0.373 50.961,-0.363 49.236,0.316 48.5,1.449 47.766,0.316 46.041,-0.363 44.125,-0.373 42.213,-0.363 40.486,0.316 39.75,1.448 39.016,0.316 37.291,-0.363 35.377,-0.373 33.463,-0.363 31.736,0.315 31,1.448 30.266,0.315 28.541,-0.363 26.625,-0.373 24.713,-0.363 22.986,0.316 22.25,1.448 21.516,0.316 19.791,-0.363 17.877,-0.373 15.963,-0.363 14.236,0.315 13.5,1.448 12.766,0.315 11.039,-0.363 9.125,-0.373 7.213,-0.363 5.486,0.316 4.75,1.448 4.016,0.315 2.291,-0.364 0.377,-0.375 0.168,-0.375 0,-0.207 0,0"
           style="fill:#ffffff;fill-opacity:1;fill-rule:nonzero;stroke:none"
           id="path174" />
      </g>
      <g
         id="g176"
         transform="translate(306.0449,80.1172)">
        <path
           d="m 0,0 c -0.734,-1.133 -2.459,-1.813 -4.373,-1.823 -1.916,0.01 -3.641,0.69 -4.377,1.823 -0.734,-1.133 -2.459,-1.813 -4.375,-1.823 -1.912,0.01 -3.639,0.69 -4.375,1.823 -0.734,-1.133 -2.459,-1.813 -4.373,-1.823 -1.916,0.01 -3.641,0.69 -4.375,1.823 -0.736,-1.133 -2.461,-1.813 -4.377,-1.823 -1.912,0.01 -3.639,0.69 -4.375,1.823 -0.734,-1.133 -2.459,-1.813 -4.373,-1.823 -1.916,0.01 -3.641,0.69 -4.377,1.823 -0.734,-1.133 -2.459,-1.813 -4.375,-1.823 -1.912,0.01 -3.639,0.69 -4.375,1.823 -0.734,-1.133 -2.459,-1.813 -4.373,-1.823 -0.209,0 -0.377,0.169 -0.377,0.376 0,0.207 0.168,0.375 0.377,0.375 1.146,-0.002 2.18,0.281 2.9,0.715 0.725,0.437 1.102,0.99 1.098,1.533 0,0.099 0.041,0.197 0.109,0.265 0.071,0.071 0.168,0.111 0.266,0.111 0.1,0 0.195,-0.038 0.268,-0.111 0.068,-0.071 0.107,-0.164 0.107,-0.265 -0.002,-0.543 0.375,-1.096 1.1,-1.533 0.72,-0.434 1.754,-0.717 2.9,-0.715 1.148,-0.002 2.184,0.281 2.9,0.715 0.729,0.437 1.104,0.99 1.102,1.533 0,0.099 0.037,0.197 0.109,0.265 0.069,0.071 0.164,0.111 0.266,0.111 0.1,0 0.193,-0.038 0.264,-0.111 0.072,-0.071 0.109,-0.164 0.109,-0.265 -0.004,-0.543 0.373,-1.096 1.1,-1.533 0.718,-0.434 1.754,-0.717 2.902,-0.715 1.146,-0.002 2.18,0.281 2.9,0.715 0.725,0.437 1.102,0.99 1.098,1.533 0,0.099 0.041,0.197 0.109,0.265 0.071,0.071 0.168,0.111 0.268,0.111 0.098,0 0.193,-0.038 0.264,-0.111 0.07,-0.071 0.109,-0.164 0.109,-0.265 -0.002,-0.543 0.375,-1.096 1.1,-1.533 0.72,-0.434 1.754,-0.717 2.9,-0.715 1.148,-0.002 2.184,0.281 2.9,0.715 0.729,0.437 1.104,0.99 1.102,1.533 0,0.099 0.037,0.197 0.109,0.265 0.069,0.071 0.164,0.111 0.264,0.111 0.102,0 0.195,-0.038 0.266,-0.111 0.072,-0.071 0.109,-0.164 0.109,-0.265 -0.004,-0.543 0.373,-1.096 1.1,-1.533 0.718,-0.434 1.754,-0.717 2.902,-0.715 1.146,-0.002 2.18,0.281 2.9,0.715 0.725,0.437 1.104,0.99 1.098,1.533 0,0.099 0.041,0.197 0.111,0.265 0.069,0.071 0.166,0.111 0.266,0.111 0.098,0 0.193,-0.038 0.264,-0.111 0.07,-0.071 0.109,-0.164 0.109,-0.265 -0.002,-0.543 0.375,-1.096 1.1,-1.533 0.72,-0.434 1.754,-0.717 2.9,-0.715 1.148,-0.002 2.182,0.281 2.9,0.715 0.729,0.437 1.104,0.99 1.102,1.533 0,0.099 0.037,0.197 0.107,0.265 0.071,0.071 0.166,0.111 0.266,0.111 0.102,0 0.197,-0.038 0.266,-0.111 0.072,-0.071 0.109,-0.164 0.109,-0.265 -0.004,-0.543 0.373,-1.096 1.1,-1.533 0.718,-0.434 1.754,-0.717 2.902,-0.715 1.146,-0.002 2.182,0.281 2.9,0.715 0.725,0.437 1.1,0.99 1.098,1.533 0,0.099 0.041,0.197 0.111,0.265 0.069,0.071 0.166,0.111 0.266,0.111 C 0.1,1.552 0.195,1.514 0.266,1.441 0.336,1.37 0.375,1.277 0.375,1.176 0.373,0.633 0.75,0.08 1.477,-0.357 2.195,-0.791 3.229,-1.074 4.375,-1.072 v -0.002 c 0.207,0 0.375,-0.166 0.375,-0.373 0,-0.207 -0.168,-0.376 -0.375,-0.376 C 2.463,-1.813 0.736,-1.133 0,0"
           style="fill:#ffffff;fill-opacity:1;fill-rule:nonzero;stroke:none"
           id="path178" />
      </g>
      <g
         id="g180"
         transform="translate(306.0449,94.1953)">
        <path
           d="m 0,0 c -0.734,-1.133 -2.459,-1.813 -4.373,-1.822 -1.916,0.009 -3.641,0.689 -4.377,1.823 -0.734,-1.134 -2.459,-1.814 -4.375,-1.823 -1.912,0.009 -3.639,0.689 -4.375,1.822 -0.734,-1.133 -2.459,-1.813 -4.373,-1.822 -1.916,0.009 -3.641,0.689 -4.375,1.822 -0.736,-1.133 -2.461,-1.813 -4.377,-1.822 -1.912,0.009 -3.639,0.689 -4.375,1.822 -0.734,-1.133 -2.459,-1.813 -4.373,-1.822 -1.916,0.009 -3.641,0.689 -4.377,1.822 -0.734,-1.133 -2.459,-1.813 -4.375,-1.822 -1.912,0.009 -3.639,0.689 -4.375,1.822 -0.734,-1.133 -2.459,-1.813 -4.373,-1.822 -0.209,0 -0.377,0.166 -0.377,0.373 0,0.209 0.168,0.376 0.377,0.376 1.146,0 2.18,0.282 2.9,0.715 0.725,0.438 1.102,0.991 1.098,1.536 0,0.098 0.041,0.195 0.109,0.265 0.071,0.07 0.168,0.11 0.266,0.11 0.1,0 0.195,-0.04 0.268,-0.11 0.068,-0.072 0.107,-0.167 0.107,-0.265 -0.002,-0.545 0.375,-1.098 1.1,-1.536 0.72,-0.433 1.754,-0.715 2.9,-0.715 1.148,0 2.184,0.282 2.9,0.715 0.729,0.438 1.104,0.991 1.102,1.536 0,0.098 0.037,0.195 0.109,0.265 0.069,0.07 0.164,0.11 0.266,0.11 0.1,0 0.193,-0.04 0.264,-0.11 0.072,-0.072 0.109,-0.167 0.109,-0.265 -0.004,-0.545 0.373,-1.098 1.1,-1.536 0.718,-0.433 1.754,-0.715 2.902,-0.715 1.146,0 2.18,0.282 2.9,0.715 0.725,0.438 1.102,0.991 1.098,1.536 0,0.098 0.041,0.195 0.109,0.265 0.071,0.07 0.168,0.11 0.268,0.11 0.098,0 0.193,-0.04 0.264,-0.11 0.07,-0.072 0.109,-0.167 0.109,-0.265 -0.002,-0.545 0.375,-1.098 1.1,-1.536 0.72,-0.433 1.754,-0.715 2.9,-0.715 1.148,0 2.184,0.282 2.9,0.715 0.729,0.438 1.104,0.991 1.102,1.536 0,0.098 0.037,0.195 0.109,0.265 0.069,0.07 0.164,0.11 0.264,0.11 0.102,0 0.195,-0.04 0.266,-0.11 0.072,-0.072 0.109,-0.167 0.109,-0.265 -0.004,-0.545 0.373,-1.098 1.1,-1.536 0.718,-0.433 1.754,-0.715 2.902,-0.715 1.146,0 2.18,0.282 2.9,0.715 0.725,0.438 1.104,0.991 1.098,1.536 0,0.098 0.041,0.195 0.111,0.265 0.069,0.07 0.166,0.11 0.266,0.11 0.098,0 0.193,-0.04 0.264,-0.11 0.07,-0.072 0.109,-0.167 0.109,-0.265 -0.002,-0.545 0.375,-1.098 1.1,-1.536 0.72,-0.433 1.754,-0.715 2.9,-0.715 1.148,0 2.182,0.282 2.9,0.715 0.729,0.438 1.104,0.991 1.102,1.536 0,0.098 0.037,0.195 0.107,0.265 0.071,0.07 0.166,0.11 0.266,0.11 0.102,0 0.197,-0.04 0.266,-0.11 0.072,-0.072 0.109,-0.167 0.109,-0.265 -0.004,-0.545 0.373,-1.098 1.1,-1.536 0.718,-0.433 1.754,-0.715 2.902,-0.715 1.146,0 2.182,0.282 2.9,0.715 0.725,0.438 1.1,0.991 1.098,1.536 0,0.098 0.041,0.195 0.111,0.265 0.069,0.07 0.166,0.11 0.266,0.11 0.098,0 0.193,-0.04 0.264,-0.11 C 0.336,1.371 0.375,1.276 0.375,1.178 0.373,0.633 0.75,0.08 1.477,-0.358 2.195,-0.791 3.229,-1.073 4.375,-1.073 4.582,-1.073 4.75,-1.24 4.75,-1.449 4.75,-1.656 4.582,-1.822 4.375,-1.822 2.463,-1.813 0.736,-1.133 0,0"
           style="fill:#ffffff;fill-opacity:1;fill-rule:nonzero;stroke:none"
           id="path182" />
      </g>
      <g
         id="g184"
         transform="translate(260.4141,99.917)">
        <path
           d="M 0,0 H 3.768 L 4.121,-2.02 1.883,-1.211 -0.355,-2.02 Z m 1.883,-4.545 c 0,-1.021 0.98,-1.895 2.398,-2.33 L 5.682,-2.582 4.789,-2.26 4.393,0 H 4.729 V 1.232 H 3.133 L 2.602,2.752 H 1.164 L 0.635,1.232 H -0.959 V 0 h 0.334 l -0.396,-2.262 -0.893,-0.322 1.398,-4.291 c 1.418,0.434 2.399,1.309 2.399,2.33"
           style="fill:#ffffff;fill-opacity:1;fill-rule:nonzero;stroke:none"
           id="path186" />
      </g>
      <g
         id="g188"
         transform="translate(260.4141,85.8389)">
        <path
           d="M 0,0 H 3.768 L 4.121,-2.02 1.883,-1.211 -0.355,-2.02 Z m 1.883,-4.545 c 0,-1.021 0.98,-1.895 2.398,-2.33 L 5.682,-2.582 4.789,-2.26 4.393,0 H 4.729 V 1.232 H 3.133 L 2.602,2.752 H 1.164 L 0.635,1.232 H -0.959 V 0 h 0.334 l -0.396,-2.262 -0.893,-0.322 1.398,-4.291 c 1.418,0.434 2.399,1.309 2.399,2.33"
           style="fill:#ffffff;fill-opacity:1;fill-rule:nonzero;stroke:none"
           id="path190" />
      </g>
      <g
         id="g192"
         transform="translate(260.4141,71.8389)">
        <path
           d="M 0,0 H 3.768 L 4.121,-2.02 1.883,-1.211 -0.355,-2.02 Z m 1.883,-4.545 c 0,-1.02 0.98,-1.894 2.398,-2.329 L 5.682,-2.582 4.789,-2.26 4.393,0 H 4.729 V 1.232 H 3.133 L 2.602,2.753 H 1.164 L 0.635,1.232 H -0.959 V 0 h 0.334 l -0.396,-2.261 -0.893,-0.322 1.398,-4.292 c 1.418,0.435 2.399,1.31 2.399,2.33"
           style="fill:#ffffff;fill-opacity:1;fill-rule:nonzero;stroke:none"
           id="path194" />
      </g>
      <g
         id="g196"
         transform="translate(319.3926,66.4814)">
        <path
           d="m 0,0 c 0,-0.354 -0.09,-0.669 -0.27,-0.943 -0.179,-0.275 -0.439,-0.489 -0.777,-0.641 -0.34,-0.152 -0.736,-0.229 -1.191,-0.229 -0.381,0 -0.7,0.027 -0.957,0.081 -0.258,0.053 -0.528,0.146 -0.805,0.279 v 1.375 c 0.293,-0.151 0.6,-0.269 0.918,-0.354 0.316,-0.085 0.609,-0.127 0.875,-0.127 0.228,0 0.396,0.04 0.504,0.12 0.105,0.079 0.16,0.181 0.16,0.306 0,0.078 -0.021,0.147 -0.064,0.205 -0.043,0.059 -0.114,0.118 -0.207,0.178 -0.096,0.06 -0.35,0.182 -0.76,0.367 -0.373,0.17 -0.653,0.334 -0.838,0.492 -0.188,0.159 -0.324,0.342 -0.414,0.547 -0.09,0.205 -0.135,0.449 -0.135,0.731 0,0.525 0.191,0.935 0.574,1.23 0.383,0.295 0.908,0.442 1.578,0.442 0.59,0 1.194,-0.137 1.809,-0.411 L -0.473,2.457 C -1.008,2.701 -1.469,2.824 -1.855,2.824 -2.057,2.824 -2.203,2.789 -2.293,2.719 -2.385,2.648 -2.43,2.561 -2.43,2.457 c 0,-0.111 0.057,-0.213 0.174,-0.301 0.115,-0.088 0.43,-0.25 0.943,-0.484 C -0.82,1.451 -0.479,1.213 -0.287,0.959 -0.096,0.705 0,0.385 0,0"
           style="fill:#ffffff;fill-opacity:1;fill-rule:nonzero;stroke:none"
           id="path198" />
      </g>
      <g
         id="g200"
         transform="translate(322.7949,64.7471)">
        <path
           d="M 0,0 H -1.543 V 4.449 H -2.938 V 5.711 H 1.391 V 4.449 H 0 Z"
           style="fill:#ffffff;fill-opacity:1;fill-rule:nonzero;stroke:none"
           id="path202" />
      </g>
      <g
         id="g204"
         transform="translate(326.5449,67.9854)">
        <path
           d="m 0,0 h 0.289 c 0.539,0 0.809,0.238 0.809,0.715 0,0.392 -0.266,0.59 -0.793,0.59 H 0 Z m 0,-1.16 v -2.078 h -1.543 v 5.711 h 1.871 c 1.551,0 2.328,-0.563 2.328,-1.688 0,-0.662 -0.324,-1.174 -0.968,-1.535 L 3.352,-3.238 H 1.602 L 0.391,-1.16 Z"
           style="fill:#ffffff;fill-opacity:1;fill-rule:nonzero;stroke:none"
           id="path206" />
      </g>
      <g
         id="g208"
         transform="translate(331.8301,67.6104)">
        <path
           d="m 0,0 c 0,-1.104 0.383,-1.656 1.152,-1.656 0.391,0 0.68,0.134 0.869,0.402 C 2.209,-0.985 2.305,-0.568 2.305,0 2.305,0.57 2.209,0.992 2.018,1.264 1.826,1.535 1.539,1.672 1.16,1.672 0.387,1.672 0,1.115 0,0 m 3.93,0 c 0,-0.961 -0.237,-1.691 -0.707,-2.191 -0.473,-0.5 -1.162,-0.75 -2.071,-0.75 -0.896,0 -1.584,0.251 -2.06,0.753 -0.479,0.503 -0.717,1.235 -0.717,2.196 0,0.951 0.236,1.676 0.713,2.178 0.474,0.502 1.166,0.752 2.072,0.752 0.908,0 1.598,-0.249 2.067,-0.747 C 3.695,1.693 3.93,0.963 3.93,0"
           style="fill:#ffffff;fill-opacity:1;fill-rule:nonzero;stroke:none"
           id="path210" />
      </g>
      <g
         id="g212"
         transform="translate(342.2285,64.7471)">
        <path
           d="M 0,0 H -2.023 L -4.109,4.023 H -4.145 C -4.096,3.391 -4.07,2.908 -4.07,2.574 V 0 h -1.368 v 5.711 h 2.016 L -1.344,1.742 H -1.32 C -1.357,2.318 -1.375,2.779 -1.375,3.129 V 5.711 H 0 Z"
           style="fill:#ffffff;fill-opacity:1;fill-rule:nonzero;stroke:none"
           id="path214" />
      </g>
      <g
         id="g216"
         transform="translate(345.7559,68.0908)">
        <path
           d="m 0,0 h 2.465 v -3.078 c -0.67,-0.23 -1.406,-0.344 -2.207,-0.344 -0.881,0 -1.561,0.255 -2.041,0.766 -0.481,0.51 -0.721,1.238 -0.721,2.183 0,0.922 0.262,1.639 0.789,2.153 0.526,0.513 1.262,0.769 2.211,0.769 0.359,0 0.697,-0.033 1.018,-0.101 C 1.832,2.279 2.109,2.193 2.348,2.09 L 1.859,0.879 C 1.447,1.082 0.996,1.184 0.504,1.184 0.053,1.184 -0.295,1.037 -0.541,0.744 -0.787,0.451 -0.91,0.033 -0.91,-0.512 c 0,-0.533 0.111,-0.94 0.334,-1.22 0.222,-0.281 0.543,-0.42 0.963,-0.42 0.228,0 0.439,0.022 0.633,0.066 v 0.895 H 0 Z"
           style="fill:#ffffff;fill-opacity:1;fill-rule:nonzero;stroke:none"
           id="path218" />
      </g>
      <g
         id="g220"
         transform="translate(316.9355,81.1377)">
        <path
           d="m 0,0 v -1.199 h 0.543 c 0.48,0 0.723,0.203 0.723,0.609 0,0.191 -0.065,0.336 -0.194,0.438 C 0.943,-0.051 0.756,0 0.512,0 Z m 0,1.129 h 0.465 c 0.221,0 0.392,0.046 0.514,0.137 0.121,0.09 0.181,0.226 0.181,0.406 0,0.32 -0.242,0.48 -0.726,0.48 H 0 Z M -1.543,3.32 H 0.449 C 1.225,3.32 1.801,3.205 2.178,2.975 2.553,2.744 2.742,2.386 2.742,1.898 2.742,1.578 2.66,1.305 2.496,1.078 2.332,0.852 2.115,0.706 1.848,0.641 V 0.602 C 2.201,0.508 2.457,0.352 2.617,0.133 2.775,-0.086 2.855,-0.37 2.855,-0.719 2.855,-1.237 2.66,-1.646 2.271,-1.943 1.881,-2.241 1.352,-2.391 0.68,-2.391 h -2.223 z"
           style="fill:#ffffff;fill-opacity:1;fill-rule:nonzero;stroke:none"
           id="path222" />
      </g>
      <path
         d="m 320.783,84.458 h 1.551 v -5.711 h -1.551 z"
         style="fill:#ffffff;fill-opacity:1;fill-rule:nonzero;stroke:none"
         id="path224" />
      <g
         id="g226"
         transform="translate(326.0879,78.7471)">
        <path
           d="M 0,0 H -1.543 V 4.449 H -2.938 V 5.711 H 1.391 V 4.449 H 0 Z"
           style="fill:#ffffff;fill-opacity:1;fill-rule:nonzero;stroke:none"
           id="path228" />
      </g>
      <g
         id="g230"
         transform="translate(330.8145,78.7471)">
        <path
           d="M 0,0 H -1.543 V 4.449 H -2.938 V 5.711 H 1.391 V 4.449 H 0 Z"
           style="fill:#ffffff;fill-opacity:1;fill-rule:nonzero;stroke:none"
           id="path232" />
      </g>
      <g
         id="g234"
         transform="translate(336.4121,78.7471)">
        <path
           d="M 0,0 H -3.391 V 5.711 H 0 V 4.473 H -1.848 V 3.574 h 1.711 V 2.336 H -1.848 V 1.258 H 0 Z"
           style="fill:#ffffff;fill-opacity:1;fill-rule:nonzero;stroke:none"
           id="path236" />
      </g>
      <g
         id="g238"
         transform="translate(338.9551,81.9854)">
        <path
           d="m 0,0 h 0.289 c 0.539,0 0.809,0.238 0.809,0.715 0,0.393 -0.266,0.59 -0.793,0.59 H 0 Z m 0,-1.16 v -2.078 h -1.543 v 5.711 h 1.871 c 1.551,0 2.328,-0.563 2.328,-1.688 0,-0.661 -0.324,-1.173 -0.968,-1.535 L 3.352,-3.238 H 1.602 L 0.391,-1.16 Z"
           style="fill:#ffffff;fill-opacity:1;fill-rule:nonzero;stroke:none"
           id="path240" />
      </g>
      <g
         id="g242"
         transform="translate(318.6387,95.6689)">
        <path
           d="m 0,0 c 0,0.523 -0.104,0.911 -0.311,1.164 -0.207,0.253 -0.521,0.379 -0.943,0.379 h -0.449 v -3.199 h 0.344 c 0.468,0 0.812,0.135 1.031,0.408 C -0.109,-0.976 0,-0.56 0,0 m 1.602,0.055 c 0,-0.953 -0.264,-1.688 -0.788,-2.203 -0.525,-0.516 -1.263,-0.774 -2.212,-0.774 h -1.848 v 5.711 h 1.976 c 0.916,0 1.624,-0.234 2.124,-0.703 C 1.352,1.617 1.602,0.94 1.602,0.055"
           style="fill:#ffffff;fill-opacity:1;fill-rule:nonzero;stroke:none"
           id="path244" />
      </g>
      <g
         id="g246"
         transform="translate(324.166,95.083)">
        <path
           d="M 0,0 -0.246,0.938 C -0.305,1.146 -0.373,1.415 -0.455,1.746 -0.537,2.077 -0.592,2.313 -0.617,2.457 -0.641,2.324 -0.688,2.105 -0.756,1.801 -0.826,1.496 -0.979,0.896 -1.215,0 Z m 0.602,-2.336 -0.282,1.07 h -1.855 l -0.289,-1.07 H -3.52 l 1.864,5.734 h 2.058 l 1.887,-5.734 z"
           style="fill:#ffffff;fill-opacity:1;fill-rule:nonzero;stroke:none"
           id="path248" />
      </g>
      <g
         id="g250"
         transform="translate(328.6152,95.9854)">
        <path
           d="m 0,0 h 0.289 c 0.539,0 0.809,0.238 0.809,0.715 0,0.393 -0.266,0.59 -0.793,0.59 H 0 Z m 0,-1.16 v -2.078 h -1.543 v 5.711 h 1.871 c 1.551,0 2.328,-0.563 2.328,-1.688 0,-0.661 -0.324,-1.173 -0.968,-1.535 L 3.352,-3.238 H 1.602 L 0.391,-1.16 Z"
           style="fill:#ffffff;fill-opacity:1;fill-rule:nonzero;stroke:none"
           id="path252" />
      </g>
      <g
         id="g254"
         transform="translate(337.3652,92.7471)">
        <path
           d="M 0,0 H -1.742 L -2.871,2.184 -3.328,1.91 V 0 h -1.551 v 5.711 h 1.551 V 3.23 c 0.078,0.154 0.234,0.398 0.473,0.731 l 1.199,1.75 H 0.031 L -1.77,3.152 Z"
           style="fill:#ffffff;fill-opacity:1;fill-rule:nonzero;stroke:none"
           id="path256" />
      </g>
      <g
         id="g258"
         transform="translate(222.3145,80.4814)">
        <path
           d="m 0,0 c 0,-0.354 -0.09,-0.669 -0.27,-0.943 -0.179,-0.276 -0.439,-0.489 -0.777,-0.641 -0.34,-0.152 -0.736,-0.229 -1.191,-0.229 -0.381,0 -0.7,0.027 -0.957,0.081 -0.258,0.052 -0.528,0.146 -0.805,0.279 v 1.375 c 0.293,-0.151 0.6,-0.27 0.918,-0.354 0.316,-0.085 0.609,-0.127 0.875,-0.127 0.228,0 0.396,0.039 0.504,0.12 0.105,0.079 0.16,0.181 0.16,0.306 0,0.078 -0.021,0.147 -0.064,0.205 C -1.65,0.131 -1.721,0.189 -1.814,0.25 -1.91,0.31 -2.164,0.432 -2.574,0.617 -2.947,0.786 -3.227,0.95 -3.412,1.109 -3.6,1.268 -3.736,1.45 -3.826,1.656 c -0.09,0.205 -0.135,0.449 -0.135,0.731 0,0.525 0.191,0.935 0.574,1.23 0.383,0.294 0.908,0.442 1.578,0.442 0.59,0 1.194,-0.137 1.809,-0.411 L -0.473,2.457 C -1.008,2.701 -1.469,2.824 -1.855,2.824 -2.057,2.824 -2.203,2.789 -2.293,2.719 -2.385,2.648 -2.43,2.561 -2.43,2.457 c 0,-0.112 0.057,-0.213 0.174,-0.301 0.115,-0.089 0.43,-0.25 0.943,-0.484 C -0.82,1.45 -0.479,1.213 -0.287,0.959 -0.096,0.705 0,0.385 0,0"
           style="fill:#ffffff;fill-opacity:1;fill-rule:nonzero;stroke:none"
           id="path260" />
      </g>
      <g
         id="g262"
         transform="translate(229.3652,78.7471)">
        <path
           d="M 0,0 H -1.824 L -2.371,2.488 C -2.398,2.592 -2.439,2.799 -2.494,3.109 -2.551,3.419 -2.592,3.678 -2.617,3.887 -2.639,3.717 -2.672,3.507 -2.719,3.256 -2.766,3.004 -2.813,2.773 -2.857,2.563 -2.904,2.352 -3.094,1.497 -3.426,0 H -5.25 l -1.414,5.711 h 1.488 l 0.621,-2.863 c 0.141,-0.633 0.237,-1.137 0.289,-1.512 0.034,0.266 0.094,0.626 0.182,1.082 0.086,0.455 0.168,0.833 0.244,1.133 l 0.504,2.16 h 1.43 l 0.488,-2.16 c 0.082,-0.347 0.168,-0.746 0.254,-1.199 0.086,-0.454 0.143,-0.792 0.172,-1.016 0.033,0.289 0.125,0.79 0.277,1.504 l 0.633,2.871 h 1.488 z"
           style="fill:#ffffff;fill-opacity:1;fill-rule:nonzero;stroke:none"
           id="path264" />
      </g>
      <g
         id="g266"
         transform="translate(234.9004,78.7471)">
        <path
           d="M 0,0 H -3.391 V 5.711 H 0 V 4.473 H -1.848 V 3.574 h 1.711 V 2.336 H -1.848 V 1.258 H 0 Z"
           style="fill:#ffffff;fill-opacity:1;fill-rule:nonzero;stroke:none"
           id="path268" />
      </g>
      <g
         id="g270"
         transform="translate(239.291,78.7471)">
        <path
           d="M 0,0 H -3.391 V 5.711 H 0 V 4.473 H -1.848 V 3.574 h 1.711 V 2.336 H -1.848 V 1.258 H 0 Z"
           style="fill:#ffffff;fill-opacity:1;fill-rule:nonzero;stroke:none"
           id="path272" />
      </g>
      <g
         id="g274"
         transform="translate(242.8105,78.7471)">
        <path
           d="M 0,0 H -1.543 V 4.449 H -2.938 V 5.711 H 1.391 V 4.449 H 0 Z"
           style="fill:#ffffff;fill-opacity:1;fill-rule:nonzero;stroke:none"
           id="path276" />
      </g>
      <g
         id="g278"
         transform="translate(219.8574,95.8994)">
        <path
           d="m 0,0 h 0.281 c 0.231,0 0.416,0.065 0.553,0.195 0.137,0.13 0.205,0.31 0.205,0.539 0,0.386 -0.215,0.579 -0.641,0.579 H 0 Z M 2.602,0.742 C 2.602,0.104 2.412,-0.389 2.037,-0.736 1.66,-1.084 1.125,-1.258 0.434,-1.258 H 0 v -1.894 h -1.543 v 5.711 h 1.977 c 0.72,0 1.261,-0.158 1.625,-0.473 C 2.42,1.771 2.602,1.323 2.602,0.742"
           style="fill:#ffffff;fill-opacity:1;fill-rule:nonzero;stroke:none"
           id="path280" />
      </g>
      <g
         id="g282"
         transform="translate(228.2637,95.083)">
        <path
           d="M 0,0 -0.246,0.938 C -0.305,1.146 -0.373,1.415 -0.455,1.746 -0.537,2.077 -0.592,2.313 -0.617,2.457 -0.641,2.324 -0.688,2.105 -0.756,1.801 -0.826,1.496 -0.979,0.896 -1.215,0 Z m 0.602,-2.336 -0.282,1.07 h -1.855 l -0.289,-1.07 H -3.52 l 1.864,5.734 h 2.058 l 1.887,-5.734 z"
           style="fill:#ffffff;fill-opacity:1;fill-rule:nonzero;stroke:none"
           id="path284" />
      </g>
      <g
         id="g286"
         transform="translate(233.1621,92.7471)">
        <path
           d="M 0,0 V 5.711 H 1.543 V 1.246 H 3.742 V 0 Z"
           style="fill:#ffffff;fill-opacity:1;fill-rule:nonzero;stroke:none"
           id="path288" />
      </g>
      <g
         id="g290"
         transform="translate(243.2012,92.7471)">
        <path
           d="M 0,0 H -3.391 V 5.711 H 0 V 4.473 H -1.848 V 3.574 h 1.711 V 2.336 H -1.848 V 1.258 H 0 Z"
           style="fill:#ffffff;fill-opacity:1;fill-rule:nonzero;stroke:none"
           id="path292" />
      </g>
      <g
         id="g294"
         transform="translate(218.3145,64.7471)">
        <path
           d="M 0,0 V 5.711 H 1.543 V 1.246 H 3.742 V 0 Z"
           style="fill:#ffffff;fill-opacity:1;fill-rule:nonzero;stroke:none"
           id="path296" />
      </g>
      <path
         d="m 223.387,70.458 h 1.551 v -5.711 h -1.551 z"
         style="fill:#ffffff;fill-opacity:1;fill-rule:nonzero;stroke:none"
         id="path298" />
      <g
         id="g300"
         transform="translate(228.8828,68.0908)">
        <path
           d="m 0,0 h 2.465 v -3.078 c -0.67,-0.23 -1.406,-0.344 -2.207,-0.344 -0.881,0 -1.561,0.255 -2.041,0.766 -0.481,0.51 -0.721,1.238 -0.721,2.183 0,0.922 0.262,1.64 0.789,2.153 0.526,0.512 1.262,0.769 2.211,0.769 0.359,0 0.697,-0.034 1.018,-0.101 C 1.832,2.28 2.109,2.194 2.348,2.09 L 1.859,0.879 C 1.447,1.082 0.996,1.184 0.504,1.184 0.053,1.184 -0.295,1.037 -0.541,0.744 -0.787,0.451 -0.91,0.032 -0.91,-0.512 c 0,-0.534 0.111,-0.94 0.334,-1.22 0.222,-0.281 0.543,-0.42 0.963,-0.42 0.228,0 0.439,0.022 0.633,0.066 v 0.895 H 0 Z"
           style="fill:#ffffff;fill-opacity:1;fill-rule:nonzero;stroke:none"
           id="path302" />
      </g>
      <g
         id="g304"
         transform="translate(237.8223,64.7471)">
        <path
           d="M 0,0 H -1.551 V 2.328 H -3.344 V 0 h -1.551 v 5.711 h 1.551 V 3.594 h 1.793 V 5.711 H 0 Z"
           style="fill:#ffffff;fill-opacity:1;fill-rule:nonzero;stroke:none"
           id="path306" />
      </g>
      <g
         id="g308"
         transform="translate(241.9941,64.7471)">
        <path
           d="M 0,0 H -1.543 V 4.449 H -2.938 V 5.711 H 1.391 V 4.449 H 0 Z"
           style="fill:#ffffff;fill-opacity:1;fill-rule:nonzero;stroke:none"
           id="path310" />
      </g>
      <text
         y="-112.6377"
         x="255.2056"
         transform="scale(1,-1)"
         style="font-variant:normal;font-weight:normal;font-stretch:normal;font-size:12px;font-family:'Myriad Pro';-inkscape-font-specification:MyriadPro-Regular;writing-mode:lr-tb;fill:#ffffff;fill-opacity:1;fill-rule:nonzero;stroke:none"
         id="text314">
        <tspan
           x="255.2056 262.0336 268.62161 272.4856 278.26959 281.10159 283.6456 290.52161 296.20959 301.8616"
           y="-112.6377"
           id="tspan312">Coral Cave</tspan>
      </text>
    </g>
  </g>
</svg>
