<?xml version="1.0" encoding="UTF-8" standalone="no"?>
<svg
   xmlns:dc="http://purl.org/dc/elements/1.1/"
   xmlns:cc="http://creativecommons.org/ns#"
   xmlns:rdf="http://www.w3.org/1999/02/22-rdf-syntax-ns#"
   xmlns:svg="http://www.w3.org/2000/svg"
   xmlns="http://www.w3.org/2000/svg"
   id="svg4410"
   version="1.1"
   viewBox="0 0 92.604164 39.687501"
   height="150"
   width="350">
  <defs
     id="defs4404" />
  <metadata
     id="metadata4407">
    <rdf:RDF>
      <cc:Work
         rdf:about="">
        <dc:format>image/svg+xml</dc:format>
        <dc:type
           rdf:resource="http://purl.org/dc/dcmitype/StillImage" />
        <dc:title></dc:title>
      </cc:Work>
    </rdf:RDF>
  </metadata>
  <g
     transform="translate(0,-257.31248)"
     id="layer1">
    <g
       id="g7076"
       transform="matrix(0.71286891,0,0,-0.69068606,-155.63062,399.42451)">
      <g
         id="g460"
         transform="translate(248.7954,148.6689)">
        <path
           d="m 0,0 c 0,0.209 0.167,0.375 0.376,0.375 1.147,0 2.181,0.283 2.9,0.716 0.726,0.438 1.103,0.991 1.099,1.535 0,0.099 0.04,0.195 0.109,0.266 0.071,0.069 0.167,0.109 0.266,0.109 0.1,0 0.196,-0.04 0.267,-0.109 C 5.086,2.821 5.126,2.725 5.126,2.626 5.122,2.082 5.499,1.529 6.225,1.091 6.944,0.658 7.978,0.375 9.125,0.375 c 1.147,0 2.182,0.283 2.899,0.716 0.728,0.438 1.103,0.991 1.099,1.535 0,0.099 0.042,0.195 0.111,0.266 0.071,0.069 0.165,0.109 0.267,0.109 0.097,0 0.193,-0.04 0.264,-0.109 0.069,-0.071 0.109,-0.167 0.109,-0.266 -0.004,-0.544 0.373,-1.097 1.099,-1.535 0.719,-0.433 1.755,-0.716 2.902,-0.716 1.147,0 2.181,0.283 2.9,0.716 0.726,0.438 1.103,0.991 1.099,1.535 0,0.099 0.04,0.195 0.109,0.266 0.071,0.069 0.167,0.109 0.267,0.109 0.099,0 0.195,-0.04 0.264,-0.109 0.071,-0.071 0.111,-0.167 0.111,-0.266 -0.004,-0.544 0.373,-1.097 1.099,-1.535 0.719,-0.433 1.753,-0.716 2.9,-0.716 1.147,0 2.183,0.283 2.9,0.716 0.728,0.438 1.103,0.991 1.099,1.535 0,0.099 0.042,0.195 0.112,0.266 0.07,0.069 0.164,0.109 0.264,0.109 0.099,0 0.195,-0.04 0.266,-0.109 0.069,-0.071 0.109,-0.167 0.109,-0.266 -0.004,-0.544 0.373,-1.097 1.099,-1.535 0.719,-0.433 1.755,-0.716 2.902,-0.716 1.147,0 2.181,0.283 2.9,0.716 0.726,0.438 1.104,0.991 1.099,1.535 0,0.099 0.04,0.195 0.11,0.266 0.07,0.069 0.166,0.109 0.266,0.109 0.099,0 0.196,-0.04 0.264,-0.109 0.071,-0.071 0.111,-0.167 0.111,-0.266 -0.004,-0.544 0.373,-1.097 1.099,-1.535 0.719,-0.433 1.753,-0.716 2.9,-0.716 1.147,0 2.181,0.283 2.9,0.716 0.728,0.438 1.104,0.991 1.099,1.535 0,0.099 0.042,0.195 0.11,0.266 0.072,0.069 0.166,0.109 0.266,0.109 0.099,0 0.196,-0.04 0.266,-0.109 0.069,-0.071 0.109,-0.167 0.109,-0.266 -0.004,-0.544 0.373,-1.097 1.099,-1.535 0.719,-0.433 1.755,-0.716 2.902,-0.716 1.147,0 2.182,0.283 2.9,0.716 0.726,0.438 1.101,0.991 1.099,1.535 0,0.099 0.04,0.195 0.11,0.266 0.07,0.069 0.166,0.109 0.266,0.109 0.099,0 0.193,-0.04 0.264,-0.109 0.071,-0.071 0.111,-0.167 0.111,-0.266 -0.004,-0.544 0.374,-1.097 1.1,-1.535 0.718,-0.433 1.752,-0.716 2.899,-0.716 0.207,0 0.374,-0.168 0.374,-0.375 0,-0.205 -0.167,-0.373 -0.374,-0.373 -1.912,0.01 -3.639,0.689 -4.375,1.821 -0.735,-1.132 -2.459,-1.811 -4.374,-1.821 -1.915,0.01 -3.64,0.689 -4.376,1.822 -0.735,-1.133 -2.46,-1.812 -4.375,-1.822 -1.913,0.01 -3.639,0.689 -4.375,1.821 -0.735,-1.132 -2.459,-1.811 -4.374,-1.821 -1.914,0.01 -3.64,0.688 -4.376,1.821 -0.735,-1.133 -2.46,-1.811 -4.375,-1.821 -1.913,0.01 -3.639,0.689 -4.375,1.821 -0.735,-1.132 -2.46,-1.811 -4.374,-1.821 -1.914,0.01 -3.64,0.688 -4.376,1.821 C 12.764,0.315 11.038,-0.363 9.125,-0.373 7.212,-0.363 5.486,0.316 4.75,1.448 4.015,0.315 2.29,-0.364 0.376,-0.375 0.167,-0.375 0,-0.207 0,0"
           style="fill:#ffffff;fill-opacity:1;fill-rule:nonzero;stroke:none"
           id="path462" />
      </g>
      <g
         id="g464"
         transform="translate(306.0444,164.1172)">
        <path
           d="m 0,0 c -0.734,-1.133 -2.459,-1.813 -4.374,-1.823 -1.915,0.01 -3.641,0.69 -4.376,1.823 -0.735,-1.133 -2.46,-1.813 -4.375,-1.823 -1.913,0.01 -3.64,0.69 -4.375,1.823 -0.734,-1.133 -2.459,-1.813 -4.374,-1.823 -1.915,0.01 -3.641,0.69 -4.375,1.823 -0.735,-1.133 -2.461,-1.813 -4.376,-1.823 -1.913,0.01 -3.64,0.69 -4.375,1.823 -0.735,-1.133 -2.459,-1.813 -4.374,-1.823 -1.915,0.01 -3.641,0.69 -4.376,1.823 -0.734,-1.133 -2.46,-1.813 -4.374,-1.823 -1.913,0.01 -3.64,0.69 -4.375,1.823 -0.735,-1.133 -2.459,-1.813 -4.374,-1.823 -0.209,0 -0.376,0.169 -0.376,0.376 0,0.207 0.167,0.375 0.376,0.375 1.147,-0.002 2.181,0.281 2.9,0.715 0.726,0.437 1.103,0.99 1.099,1.533 0,0.099 0.04,0.197 0.109,0.265 0.071,0.071 0.167,0.111 0.266,0.111 0.1,0 0.194,-0.038 0.267,-0.111 0.069,-0.071 0.107,-0.164 0.107,-0.265 -0.002,-0.543 0.375,-1.096 1.101,-1.533 0.719,-0.434 1.753,-0.717 2.9,-0.715 1.147,-0.002 2.182,0.281 2.899,0.715 0.728,0.437 1.103,0.99 1.101,1.533 0,0.099 0.038,0.197 0.109,0.265 0.069,0.071 0.165,0.111 0.267,0.111 0.099,0 0.193,-0.038 0.264,-0.111 0.071,-0.071 0.109,-0.164 0.109,-0.265 -0.004,-0.543 0.373,-1.096 1.099,-1.533 0.719,-0.434 1.755,-0.717 2.902,-0.715 1.147,-0.002 2.181,0.281 2.9,0.715 0.726,0.437 1.103,0.99 1.099,1.533 0,0.099 0.04,0.197 0.109,0.265 0.071,0.071 0.167,0.111 0.267,0.111 0.099,0 0.193,-0.038 0.264,-0.111 0.071,-0.071 0.109,-0.164 0.109,-0.265 -0.002,-0.543 0.375,-1.096 1.101,-1.533 0.719,-0.434 1.753,-0.717 2.9,-0.715 1.147,-0.002 2.183,0.281 2.9,0.715 0.728,0.437 1.103,0.99 1.101,1.533 0,0.099 0.038,0.197 0.11,0.265 0.068,0.071 0.164,0.111 0.264,0.111 0.101,0 0.195,-0.038 0.266,-0.111 0.071,-0.071 0.109,-0.164 0.109,-0.265 -0.004,-0.543 0.373,-1.096 1.099,-1.533 0.719,-0.434 1.755,-0.717 2.902,-0.715 1.147,-0.002 2.181,0.281 2.9,0.715 0.726,0.437 1.104,0.99 1.099,1.533 0,0.099 0.04,0.197 0.11,0.265 0.07,0.071 0.166,0.111 0.266,0.111 0.099,0 0.193,-0.038 0.264,-0.111 0.071,-0.071 0.109,-0.164 0.109,-0.265 -0.002,-0.543 0.375,-1.096 1.101,-1.533 0.719,-0.434 1.753,-0.717 2.9,-0.715 1.147,-0.002 2.181,0.281 2.9,0.715 0.728,0.437 1.104,0.99 1.101,1.533 0,0.099 0.038,0.197 0.108,0.265 0.07,0.071 0.166,0.111 0.266,0.111 0.101,0 0.196,-0.038 0.266,-0.111 0.071,-0.071 0.109,-0.164 0.109,-0.265 -0.004,-0.543 0.373,-1.096 1.099,-1.533 0.719,-0.434 1.755,-0.717 2.902,-0.715 1.147,-0.002 2.182,0.281 2.9,0.715 0.726,0.437 1.101,0.99 1.099,1.533 0,0.099 0.04,0.197 0.11,0.265 0.07,0.071 0.166,0.111 0.266,0.111 C 0.1,1.552 0.194,1.514 0.265,1.441 0.336,1.37 0.374,1.277 0.374,1.176 0.372,0.633 0.75,0.08 1.476,-0.357 2.194,-0.791 3.228,-1.074 4.375,-1.072 v -0.002 c 0.207,0 0.374,-0.166 0.374,-0.373 0,-0.207 -0.167,-0.376 -0.374,-0.376 C 2.462,-1.813 0.735,-1.133 0,0"
           style="fill:#ffffff;fill-opacity:1;fill-rule:nonzero;stroke:none"
           id="path466" />
      </g>
      <g
         id="g468"
         transform="translate(306.0444,178.1953)">
        <path
           d="m 0,0 c -0.734,-1.133 -2.459,-1.813 -4.374,-1.822 -1.915,0.009 -3.641,0.689 -4.376,1.823 -0.735,-1.134 -2.46,-1.814 -4.375,-1.823 -1.913,0.009 -3.64,0.689 -4.375,1.822 -0.734,-1.133 -2.459,-1.813 -4.374,-1.822 -1.915,0.009 -3.641,0.689 -4.375,1.822 -0.735,-1.133 -2.461,-1.813 -4.376,-1.822 -1.913,0.009 -3.64,0.689 -4.375,1.822 -0.735,-1.133 -2.459,-1.813 -4.374,-1.822 -1.915,0.009 -3.641,0.689 -4.376,1.822 -0.734,-1.133 -2.46,-1.813 -4.374,-1.822 -1.913,0.009 -3.64,0.689 -4.375,1.822 -0.735,-1.133 -2.459,-1.813 -4.374,-1.822 -0.209,0 -0.376,0.166 -0.376,0.373 0,0.209 0.167,0.376 0.376,0.376 1.147,0 2.181,0.282 2.9,0.715 0.726,0.438 1.103,0.991 1.099,1.536 0,0.098 0.04,0.195 0.109,0.265 0.071,0.07 0.167,0.11 0.266,0.11 0.1,0 0.194,-0.04 0.267,-0.11 0.069,-0.072 0.107,-0.167 0.107,-0.265 -0.002,-0.545 0.375,-1.098 1.101,-1.536 0.719,-0.433 1.753,-0.715 2.9,-0.715 1.147,0 2.182,0.282 2.899,0.715 0.728,0.438 1.103,0.991 1.101,1.536 0,0.098 0.038,0.195 0.109,0.265 0.069,0.07 0.165,0.11 0.267,0.11 0.099,0 0.193,-0.04 0.264,-0.11 0.071,-0.072 0.109,-0.167 0.109,-0.265 -0.004,-0.545 0.373,-1.098 1.099,-1.536 0.719,-0.433 1.755,-0.715 2.902,-0.715 1.147,0 2.181,0.282 2.9,0.715 0.726,0.438 1.103,0.991 1.099,1.536 0,0.098 0.04,0.195 0.109,0.265 0.071,0.07 0.167,0.11 0.267,0.11 0.099,0 0.193,-0.04 0.264,-0.11 0.071,-0.072 0.109,-0.167 0.109,-0.265 -0.002,-0.545 0.375,-1.098 1.101,-1.536 0.719,-0.433 1.753,-0.715 2.9,-0.715 1.147,0 2.183,0.282 2.9,0.715 0.728,0.438 1.103,0.991 1.101,1.536 0,0.098 0.038,0.195 0.11,0.265 0.068,0.07 0.164,0.11 0.264,0.11 0.101,0 0.195,-0.04 0.266,-0.11 0.071,-0.072 0.109,-0.167 0.109,-0.265 -0.004,-0.545 0.373,-1.098 1.099,-1.536 0.719,-0.433 1.755,-0.715 2.902,-0.715 1.147,0 2.181,0.282 2.9,0.715 0.726,0.438 1.104,0.991 1.099,1.536 0,0.098 0.04,0.195 0.11,0.265 0.07,0.07 0.166,0.11 0.266,0.11 0.099,0 0.193,-0.04 0.264,-0.11 0.071,-0.072 0.109,-0.167 0.109,-0.265 -0.002,-0.545 0.375,-1.098 1.101,-1.536 0.719,-0.433 1.753,-0.715 2.9,-0.715 1.147,0 2.181,0.282 2.9,0.715 0.728,0.438 1.104,0.991 1.101,1.536 0,0.098 0.038,0.195 0.108,0.265 0.07,0.07 0.166,0.11 0.266,0.11 0.101,0 0.196,-0.04 0.266,-0.11 0.071,-0.072 0.109,-0.167 0.109,-0.265 -0.004,-0.545 0.373,-1.098 1.099,-1.536 0.719,-0.433 1.755,-0.715 2.902,-0.715 1.147,0 2.182,0.282 2.9,0.715 0.726,0.438 1.101,0.991 1.099,1.536 0,0.098 0.04,0.195 0.11,0.265 0.07,0.07 0.166,0.11 0.266,0.11 0.099,0 0.193,-0.04 0.264,-0.11 C 0.336,1.371 0.374,1.276 0.374,1.178 0.372,0.633 0.75,0.08 1.476,-0.358 c 0.718,-0.433 1.752,-0.715 2.899,-0.715 0.207,0 0.374,-0.167 0.374,-0.376 0,-0.207 -0.167,-0.373 -0.374,-0.373 C 2.462,-1.813 0.735,-1.133 0,0"
           style="fill:#ffffff;fill-opacity:1;fill-rule:nonzero;stroke:none"
           id="path470" />
      </g>
      <g
         id="g472"
         transform="translate(269.1626,183.917)">
        <path
           d="M 0,0 H 3.768 L 4.121,-2.02 1.883,-1.211 -0.355,-2.02 Z m 1.883,-4.545 c 0,-1.021 0.98,-1.895 2.398,-2.33 L 5.682,-2.582 4.789,-2.26 4.393,0 H 4.729 V 1.232 H 3.133 L 2.602,2.752 H 1.164 L 0.635,1.232 H -0.959 V 0 h 0.334 l -0.396,-2.262 -0.893,-0.322 1.398,-4.291 c 1.418,0.434 2.399,1.309 2.399,2.33"
           style="fill:#ffffff;fill-opacity:1;fill-rule:nonzero;stroke:none"
           id="path474" />
      </g>
      <g
         id="g476"
         transform="translate(269.1626,169.8389)">
        <path
           d="M 0,0 H 3.768 L 4.121,-2.02 1.883,-1.211 -0.355,-2.02 Z m 1.883,-4.545 c 0,-1.021 0.98,-1.895 2.398,-2.33 L 5.682,-2.582 4.789,-2.26 4.393,0 H 4.729 V 1.232 H 3.133 L 2.602,2.752 H 1.164 L 0.635,1.232 H -0.959 V 0 h 0.334 l -0.396,-2.262 -0.893,-0.322 1.398,-4.291 c 1.418,0.434 2.399,1.309 2.399,2.33"
           style="fill:#ffffff;fill-opacity:1;fill-rule:nonzero;stroke:none"
           id="path478" />
      </g>
      <g
         id="g480"
         transform="translate(269.1626,155.8389)">
        <path
           d="M 0,0 H 3.768 L 4.121,-2.02 1.883,-1.211 -0.355,-2.02 Z m 1.883,-4.545 c 0,-1.02 0.98,-1.894 2.398,-2.329 L 5.682,-2.582 4.789,-2.26 4.393,0 H 4.729 V 1.232 H 3.133 L 2.602,2.753 H 1.164 L 0.635,1.232 H -0.959 V 0 h 0.334 l -0.396,-2.261 -0.893,-0.322 1.398,-4.292 c 1.418,0.435 2.399,1.31 2.399,2.33"
           style="fill:#ffffff;fill-opacity:1;fill-rule:nonzero;stroke:none"
           id="path482" />
      </g>
      <g
         id="g484"
         transform="translate(319.3911,150.4814)">
        <path
           d="m 0,0 c 0,-0.354 -0.09,-0.669 -0.27,-0.943 -0.179,-0.275 -0.438,-0.489 -0.777,-0.641 -0.339,-0.152 -0.735,-0.229 -1.191,-0.229 -0.38,0 -0.7,0.027 -0.957,0.081 -0.258,0.053 -0.527,0.146 -0.805,0.279 v 1.375 c 0.294,-0.151 0.601,-0.269 0.918,-0.354 0.317,-0.085 0.609,-0.127 0.875,-0.127 0.229,0 0.397,0.04 0.504,0.12 0.106,0.079 0.16,0.181 0.16,0.306 0,0.078 -0.021,0.147 -0.064,0.205 -0.043,0.059 -0.113,0.118 -0.207,0.178 -0.095,0.06 -0.349,0.182 -0.76,0.367 -0.372,0.17 -0.652,0.334 -0.838,0.492 -0.187,0.159 -0.324,0.342 -0.414,0.547 -0.09,0.205 -0.135,0.449 -0.135,0.731 0,0.525 0.191,0.935 0.574,1.23 0.383,0.295 0.909,0.442 1.578,0.442 0.591,0 1.195,-0.137 1.809,-0.411 L -0.473,2.457 C -1.007,2.701 -1.468,2.824 -1.855,2.824 -2.056,2.824 -2.202,2.789 -2.293,2.719 -2.384,2.648 -2.43,2.561 -2.43,2.457 -2.43,2.346 -2.372,2.244 -2.256,2.156 -2.14,2.068 -1.825,1.906 -1.313,1.672 -0.82,1.451 -0.479,1.213 -0.287,0.959 -0.096,0.705 0,0.385 0,0"
           style="fill:#ffffff;fill-opacity:1;fill-rule:nonzero;stroke:none"
           id="path486" />
      </g>
      <g
         id="g488"
         transform="translate(322.7935,148.7471)">
        <path
           d="M 0,0 H -1.543 V 4.449 H -2.938 V 5.711 H 1.391 V 4.449 H 0 Z"
           style="fill:#ffffff;fill-opacity:1;fill-rule:nonzero;stroke:none"
           id="path490" />
      </g>
      <g
         id="g492"
         transform="translate(326.5435,151.9854)">
        <path
           d="m 0,0 h 0.289 c 0.539,0 0.809,0.238 0.809,0.715 0,0.392 -0.265,0.59 -0.793,0.59 H 0 Z M 0,-1.16 V -3.238 H -1.543 V 2.473 H 0.328 C 1.88,2.473 2.656,1.91 2.656,0.785 2.656,0.123 2.333,-0.389 1.688,-0.75 L 3.352,-3.238 H 1.602 L 0.391,-1.16 Z"
           style="fill:#ffffff;fill-opacity:1;fill-rule:nonzero;stroke:none"
           id="path494" />
      </g>
      <g
         id="g496"
         transform="translate(331.8286,151.6104)">
        <path
           d="m 0,0 c 0,-1.104 0.384,-1.656 1.152,-1.656 0.391,0 0.681,0.134 0.869,0.402 C 2.21,-0.985 2.305,-0.568 2.305,0 2.305,0.57 2.209,0.992 2.018,1.264 1.826,1.535 1.54,1.672 1.16,1.672 0.387,1.672 0,1.115 0,0 m 3.93,0 c 0,-0.961 -0.236,-1.691 -0.707,-2.191 -0.472,-0.5 -1.161,-0.75 -2.071,-0.75 -0.895,0 -1.583,0.251 -2.06,0.753 -0.478,0.503 -0.717,1.235 -0.717,2.196 0,0.951 0.237,1.676 0.713,2.178 0.475,0.502 1.166,0.752 2.072,0.752 0.909,0 1.598,-0.249 2.067,-0.747 C 3.695,1.693 3.93,0.963 3.93,0"
           style="fill:#ffffff;fill-opacity:1;fill-rule:nonzero;stroke:none"
           id="path498" />
      </g>
      <g
         id="g500"
         transform="translate(342.2271,148.7471)">
        <path
           d="M 0,0 H -2.023 L -4.109,4.023 H -4.145 C -4.095,3.391 -4.07,2.908 -4.07,2.574 V 0 h -1.368 v 5.711 h 2.016 L -1.344,1.742 H -1.32 C -1.356,2.318 -1.375,2.779 -1.375,3.129 V 5.711 H 0 Z"
           style="fill:#ffffff;fill-opacity:1;fill-rule:nonzero;stroke:none"
           id="path502" />
      </g>
      <g
         id="g504"
         transform="translate(345.7544,152.0908)">
        <path
           d="M 0,0 H 2.465 V -3.078 C 1.796,-3.308 1.06,-3.422 0.258,-3.422 c -0.88,0 -1.561,0.255 -2.041,0.766 -0.481,0.51 -0.721,1.238 -0.721,2.183 0,0.922 0.263,1.639 0.789,2.153 0.527,0.513 1.263,0.769 2.211,0.769 0.359,0 0.698,-0.033 1.018,-0.101 C 1.833,2.279 2.11,2.193 2.348,2.09 L 1.859,0.879 C 1.448,1.082 0.996,1.184 0.504,1.184 0.054,1.184 -0.295,1.037 -0.541,0.744 -0.787,0.451 -0.91,0.033 -0.91,-0.512 c 0,-0.533 0.111,-0.94 0.334,-1.22 0.222,-0.281 0.544,-0.42 0.963,-0.42 0.229,0 0.44,0.022 0.633,0.066 v 0.895 H 0 Z"
           style="fill:#ffffff;fill-opacity:1;fill-rule:nonzero;stroke:none"
           id="path506" />
      </g>
      <g
         id="g508"
         transform="translate(316.9341,165.1377)">
        <path
           d="m 0,0 v -1.199 h 0.543 c 0.481,0 0.723,0.203 0.723,0.609 0,0.191 -0.065,0.336 -0.194,0.438 C 0.943,-0.051 0.757,0 0.512,0 Z m 0,1.129 h 0.465 c 0.222,0 0.392,0.046 0.514,0.137 0.121,0.09 0.181,0.226 0.181,0.406 0,0.32 -0.242,0.48 -0.726,0.48 H 0 Z M -1.543,3.32 H 0.449 C 1.226,3.32 1.802,3.205 2.178,2.975 2.554,2.744 2.742,2.386 2.742,1.898 2.742,1.578 2.66,1.305 2.496,1.078 2.332,0.852 2.116,0.706 1.848,0.641 V 0.602 C 2.202,0.508 2.458,0.352 2.617,0.133 2.776,-0.086 2.855,-0.37 2.855,-0.719 2.855,-1.237 2.661,-1.646 2.271,-1.943 1.882,-2.241 1.352,-2.391 0.68,-2.391 h -2.223 z"
           style="fill:#ffffff;fill-opacity:1;fill-rule:nonzero;stroke:none"
           id="path510" />
      </g>
      <path
         d="m 320.782,168.458 h 1.551 v -5.711 h -1.551 z"
         style="fill:#ffffff;fill-opacity:1;fill-rule:nonzero;stroke:none"
         id="path512" />
      <g
         id="g514"
         transform="translate(326.0864,162.7471)">
        <path
           d="M 0,0 H -1.543 V 4.449 H -2.938 V 5.711 H 1.391 V 4.449 H 0 Z"
           style="fill:#ffffff;fill-opacity:1;fill-rule:nonzero;stroke:none"
           id="path516" />
      </g>
      <g
         id="g518"
         transform="translate(330.813,162.7471)">
        <path
           d="M 0,0 H -1.543 V 4.449 H -2.938 V 5.711 H 1.391 V 4.449 H 0 Z"
           style="fill:#ffffff;fill-opacity:1;fill-rule:nonzero;stroke:none"
           id="path520" />
      </g>
      <g
         id="g522"
         transform="translate(336.4106,162.7471)">
        <path
           d="M 0,0 H -3.391 V 5.711 H 0 V 4.473 H -1.848 V 3.574 h 1.711 V 2.336 H -1.848 V 1.258 H 0 Z"
           style="fill:#ffffff;fill-opacity:1;fill-rule:nonzero;stroke:none"
           id="path524" />
      </g>
      <g
         id="g526"
         transform="translate(338.9536,165.9854)">
        <path
           d="m 0,0 h 0.289 c 0.539,0 0.809,0.238 0.809,0.715 0,0.393 -0.265,0.59 -0.793,0.59 H 0 Z M 0,-1.16 V -3.238 H -1.543 V 2.473 H 0.328 C 1.88,2.473 2.656,1.91 2.656,0.785 2.656,0.124 2.333,-0.388 1.688,-0.75 L 3.352,-3.238 H 1.602 L 0.391,-1.16 Z"
           style="fill:#ffffff;fill-opacity:1;fill-rule:nonzero;stroke:none"
           id="path528" />
      </g>
      <g
         id="g530"
         transform="translate(318.6372,179.6689)">
        <path
           d="m 0,0 c 0,0.523 -0.104,0.911 -0.311,1.164 -0.207,0.253 -0.521,0.379 -0.943,0.379 h -0.449 v -3.199 h 0.344 c 0.468,0 0.812,0.135 1.031,0.408 C -0.109,-0.976 0,-0.56 0,0 m 1.602,0.055 c 0,-0.953 -0.263,-1.688 -0.788,-2.203 -0.524,-0.516 -1.262,-0.774 -2.212,-0.774 h -1.848 v 5.711 h 1.976 c 0.917,0 1.624,-0.234 2.124,-0.703 C 1.353,1.617 1.602,0.94 1.602,0.055"
           style="fill:#ffffff;fill-opacity:1;fill-rule:nonzero;stroke:none"
           id="path532" />
      </g>
      <g
         id="g534"
         transform="translate(324.1646,179.083)">
        <path
           d="M 0,0 -0.246,0.938 C -0.304,1.146 -0.373,1.415 -0.455,1.746 -0.537,2.077 -0.591,2.313 -0.617,2.457 -0.641,2.324 -0.687,2.105 -0.756,1.801 -0.825,1.496 -0.978,0.896 -1.215,0 Z m 0.602,-2.336 -0.282,1.07 h -1.855 l -0.289,-1.07 H -3.52 l 1.864,5.734 h 2.058 l 1.887,-5.734 z"
           style="fill:#ffffff;fill-opacity:1;fill-rule:nonzero;stroke:none"
           id="path536" />
      </g>
      <g
         id="g538"
         transform="translate(328.6138,179.9854)">
        <path
           d="m 0,0 h 0.289 c 0.539,0 0.809,0.238 0.809,0.715 0,0.393 -0.265,0.59 -0.793,0.59 H 0 Z M 0,-1.16 V -3.238 H -1.543 V 2.473 H 0.328 C 1.88,2.473 2.656,1.91 2.656,0.785 2.656,0.124 2.333,-0.388 1.688,-0.75 L 3.352,-3.238 H 1.602 L 0.391,-1.16 Z"
           style="fill:#ffffff;fill-opacity:1;fill-rule:nonzero;stroke:none"
           id="path540" />
      </g>
      <g
         id="g542"
         transform="translate(337.3638,176.7471)">
        <path
           d="M 0,0 H -1.742 L -2.871,2.184 -3.328,1.91 V 0 h -1.551 v 5.711 h 1.551 V 3.23 c 0.078,0.154 0.235,0.398 0.473,0.731 l 1.199,1.75 H 0.031 L -1.77,3.152 Z"
           style="fill:#ffffff;fill-opacity:1;fill-rule:nonzero;stroke:none"
           id="path544" />
      </g>
      <g
         id="g546"
         transform="translate(222.3149,164.4814)">
        <path
           d="m 0,0 c 0,-0.354 -0.09,-0.669 -0.27,-0.943 -0.179,-0.276 -0.438,-0.489 -0.777,-0.641 -0.339,-0.152 -0.735,-0.229 -1.191,-0.229 -0.38,0 -0.699,0.027 -0.956,0.081 -0.258,0.052 -0.527,0.146 -0.805,0.279 v 1.375 c 0.294,-0.151 0.601,-0.27 0.918,-0.354 0.316,-0.085 0.608,-0.127 0.874,-0.127 0.229,0 0.397,0.039 0.504,0.12 0.106,0.079 0.16,0.181 0.16,0.306 0,0.078 -0.021,0.147 -0.064,0.205 C -1.65,0.131 -1.72,0.189 -1.814,0.25 -1.909,0.31 -2.163,0.432 -2.574,0.617 -2.945,0.786 -3.225,0.95 -3.411,1.109 -3.598,1.268 -3.735,1.45 -3.825,1.656 -3.915,1.861 -3.96,2.105 -3.96,2.387 c 0,0.525 0.191,0.935 0.574,1.23 0.383,0.294 0.908,0.442 1.577,0.442 0.591,0 1.195,-0.137 1.809,-0.411 L -0.473,2.457 C -1.007,2.701 -1.468,2.824 -1.855,2.824 -2.056,2.824 -2.202,2.789 -2.293,2.719 -2.384,2.648 -2.43,2.561 -2.43,2.457 -2.43,2.345 -2.372,2.244 -2.256,2.156 -2.14,2.067 -1.825,1.906 -1.313,1.672 -0.82,1.45 -0.479,1.213 -0.287,0.959 -0.096,0.705 0,0.385 0,0"
           style="fill:#ffffff;fill-opacity:1;fill-rule:nonzero;stroke:none"
           id="path548" />
      </g>
      <g
         id="g550"
         transform="translate(229.3657,162.7471)">
        <path
           d="M 0,0 H -1.824 L -2.371,2.488 C -2.397,2.592 -2.438,2.799 -2.494,3.109 -2.55,3.419 -2.591,3.678 -2.617,3.887 -2.638,3.717 -2.672,3.507 -2.719,3.256 -2.766,3.004 -2.812,2.773 -2.857,2.563 -2.903,2.352 -3.093,1.497 -3.426,0 H -5.25 l -1.414,5.711 h 1.488 l 0.621,-2.863 c 0.141,-0.633 0.238,-1.137 0.289,-1.512 0.035,0.266 0.095,0.626 0.182,1.082 0.087,0.455 0.169,0.833 0.244,1.133 l 0.504,2.16 h 1.43 l 0.488,-2.16 c 0.083,-0.347 0.168,-0.746 0.254,-1.199 0.086,-0.454 0.143,-0.792 0.172,-1.016 0.034,0.289 0.126,0.79 0.277,1.504 l 0.633,2.871 h 1.488 z"
           style="fill:#ffffff;fill-opacity:1;fill-rule:nonzero;stroke:none"
           id="path552" />
      </g>
      <g
         id="g554"
         transform="translate(234.9009,162.7471)">
        <path
           d="M 0,0 H -3.391 V 5.711 H 0 V 4.473 H -1.848 V 3.574 h 1.711 V 2.336 H -1.848 V 1.258 H 0 Z"
           style="fill:#ffffff;fill-opacity:1;fill-rule:nonzero;stroke:none"
           id="path556" />
      </g>
      <g
         id="g558"
         transform="translate(239.2915,162.7471)">
        <path
           d="M 0,0 H -3.391 V 5.711 H 0 V 4.473 H -1.848 V 3.574 h 1.711 V 2.336 H -1.848 V 1.258 H 0 Z"
           style="fill:#ffffff;fill-opacity:1;fill-rule:nonzero;stroke:none"
           id="path560" />
      </g>
      <g
         id="g562"
         transform="translate(242.8101,162.7471)">
        <path
           d="M 0,0 H -1.543 V 4.449 H -2.938 V 5.711 H 1.391 V 4.449 H 0 Z"
           style="fill:#ffffff;fill-opacity:1;fill-rule:nonzero;stroke:none"
           id="path564" />
      </g>
      <g
         id="g566"
         transform="translate(219.8579,179.8994)">
        <path
           d="m 0,0 h 0.281 c 0.232,0 0.416,0.065 0.553,0.195 0.137,0.13 0.205,0.31 0.205,0.539 0,0.386 -0.214,0.579 -0.641,0.579 H 0 Z M 2.602,0.742 C 2.602,0.104 2.413,-0.389 2.037,-0.736 1.661,-1.084 1.126,-1.258 0.434,-1.258 H 0 V -3.152 H -1.542 V 2.559 H 0.434 C 1.155,2.559 1.696,2.401 2.059,2.086 2.421,1.771 2.602,1.323 2.602,0.742"
           style="fill:#ffffff;fill-opacity:1;fill-rule:nonzero;stroke:none"
           id="path568" />
      </g>
      <g
         id="g570"
         transform="translate(228.2642,179.083)">
        <path
           d="M 0,0 -0.246,0.938 C -0.304,1.146 -0.373,1.415 -0.455,1.746 -0.537,2.077 -0.591,2.313 -0.617,2.457 -0.641,2.324 -0.687,2.105 -0.756,1.801 -0.825,1.496 -0.978,0.896 -1.215,0 Z m 0.602,-2.336 -0.282,1.07 h -1.855 l -0.289,-1.07 H -3.52 l 1.864,5.734 h 2.058 l 1.887,-5.734 z"
           style="fill:#ffffff;fill-opacity:1;fill-rule:nonzero;stroke:none"
           id="path572" />
      </g>
      <g
         id="g574"
         transform="translate(233.1626,176.7471)">
        <path
           d="M 0,0 V 5.711 H 1.543 V 1.246 H 3.742 V 0 Z"
           style="fill:#ffffff;fill-opacity:1;fill-rule:nonzero;stroke:none"
           id="path576" />
      </g>
      <g
         id="g578"
         transform="translate(243.2007,176.7471)">
        <path
           d="M 0,0 H -3.391 V 5.711 H 0 V 4.473 H -1.848 V 3.574 h 1.711 V 2.336 H -1.848 V 1.258 H 0 Z"
           style="fill:#ffffff;fill-opacity:1;fill-rule:nonzero;stroke:none"
           id="path580" />
      </g>
      <g
         id="g582"
         transform="translate(218.3159,148.7471)">
        <path
           d="M 0,0 V 5.711 H 1.542 V 1.246 H 3.741 V 0 Z"
           style="fill:#ffffff;fill-opacity:1;fill-rule:nonzero;stroke:none"
           id="path584" />
      </g>
      <path
         d="m 223.388,154.458 h 1.551 v -5.711 h -1.551 z"
         style="fill:#ffffff;fill-opacity:1;fill-rule:nonzero;stroke:none"
         id="path586" />
      <g
         id="g588"
         transform="translate(228.8833,152.0908)">
        <path
           d="M 0,0 H 2.465 V -3.078 C 1.796,-3.308 1.06,-3.422 0.258,-3.422 c -0.88,0 -1.561,0.255 -2.041,0.766 -0.481,0.51 -0.721,1.238 -0.721,2.183 0,0.922 0.263,1.64 0.789,2.153 0.527,0.512 1.263,0.769 2.211,0.769 0.359,0 0.698,-0.034 1.018,-0.101 C 1.833,2.28 2.11,2.194 2.348,2.09 L 1.859,0.879 C 1.448,1.082 0.996,1.184 0.504,1.184 0.054,1.184 -0.295,1.037 -0.541,0.744 -0.787,0.451 -0.91,0.032 -0.91,-0.512 c 0,-0.534 0.111,-0.94 0.334,-1.22 0.222,-0.281 0.544,-0.42 0.963,-0.42 0.229,0 0.44,0.022 0.633,0.066 v 0.895 H 0 Z"
           style="fill:#ffffff;fill-opacity:1;fill-rule:nonzero;stroke:none"
           id="path590" />
      </g>
      <g
         id="g592"
         transform="translate(237.8237,148.7471)">
        <path
           d="M 0,0 H -1.551 V 2.328 H -3.344 V 0 h -1.551 v 5.711 h 1.551 V 3.594 h 1.793 V 5.711 H 0 Z"
           style="fill:#ffffff;fill-opacity:1;fill-rule:nonzero;stroke:none"
           id="path594" />
      </g>
      <g
         id="g596"
         transform="translate(241.9937,148.7471)">
        <path
           d="M 0,0 H -1.543 V 4.449 H -2.937 V 5.711 H 1.391 V 4.449 H 0 Z"
           style="fill:#ffffff;fill-opacity:1;fill-rule:nonzero;stroke:none"
           id="path598" />
      </g>
      <text
         y="-196.6377"
         x="253.0103"
         transform="scale(1,-1)"
         style="font-variant:normal;font-weight:normal;font-stretch:normal;font-size:12px;font-family:'Myriad Pro';-inkscape-font-specification:MyriadPro-Regular;writing-mode:lr-tb;fill:#ffffff;fill-opacity:1;fill-rule:nonzero;stroke:none"
         id="text602">
        <tspan
           x="253.0103 260.8223 267.41031 270.24231 277.01031 283.02231 289.68231 292.22629 298.73032 304.4183"
           y="-196.6377"
           id="tspan600">Golden Bay</tspan>
      </text>
    </g>
  </g>
</svg>
