<?xml version="1.0" encoding="UTF-8" standalone="no"?>
<svg
   xmlns:dc="http://purl.org/dc/elements/1.1/"
   xmlns:cc="http://creativecommons.org/ns#"
   xmlns:rdf="http://www.w3.org/1999/02/22-rdf-syntax-ns#"
   xmlns:svg="http://www.w3.org/2000/svg"
   xmlns="http://www.w3.org/2000/svg"
   id="svg4410"
   version="1.1"
   viewBox="0 0 92.604164 39.687501"
   height="150"
   width="350">
  <defs
     id="defs4404" />
  <metadata
     id="metadata4407">
    <rdf:RDF>
      <cc:Work
         rdf:about="">
        <dc:format>image/svg+xml</dc:format>
        <dc:type
           rdf:resource="http://purl.org/dc/dcmitype/StillImage" />
        <dc:title></dc:title>
      </cc:Work>
    </rdf:RDF>
  </metadata>
  <g
     transform="translate(0,-257.31248)"
     id="layer1">
    <g
       id="g5446"
       transform="matrix(0.71284751,0,0,-0.69516403,-290.76102,633.66437)">
      <g
         id="g1036"
         transform="translate(438.3682,484.6699)">
        <path
           d="m 0,0 c 0,0.209 0.168,0.375 0.375,0.375 1.148,0 2.184,0.282 2.902,0.717 0.727,0.438 1.102,0.99 1.098,1.533 0,0.1 0.041,0.196 0.111,0.266 C 4.557,2.961 4.65,3 4.752,3 4.85,3 4.945,2.961 5.016,2.891 5.086,2.821 5.127,2.725 5.127,2.625 5.123,2.082 5.5,1.53 6.225,1.092 6.945,0.657 7.979,0.375 9.127,0.375 c 1.146,0 2.18,0.282 2.898,0.717 0.727,0.438 1.104,0.99 1.1,1.533 0,0.1 0.041,0.196 0.109,0.266 C 13.307,2.961 13.4,3 13.5,3 c 0.1,0 0.197,-0.039 0.266,-0.109 0.07,-0.07 0.109,-0.166 0.109,-0.266 -0.004,-0.543 0.373,-1.095 1.1,-1.533 0.718,-0.435 1.754,-0.717 2.902,-0.717 1.146,0 2.18,0.282 2.898,0.717 0.729,0.438 1.104,0.99 1.1,1.533 0,0.1 0.041,0.196 0.111,0.266 C 22.055,2.961 22.152,3 22.252,3 22.35,3 22.447,2.961 22.516,2.891 22.586,2.821 22.627,2.725 22.627,2.625 22.621,2.082 23,1.53 23.725,1.092 c 0.72,-0.435 1.754,-0.717 2.9,-0.717 1.148,0 2.184,0.282 2.902,0.717 0.727,0.438 1.102,0.99 1.098,1.533 0,0.1 0.041,0.196 0.111,0.266 C 30.807,2.961 30.9,3 31.002,3 31.1,3 31.195,2.961 31.266,2.891 31.336,2.821 31.377,2.725 31.377,2.625 31.373,2.082 31.75,1.53 32.475,1.092 c 0.72,-0.435 1.754,-0.717 2.902,-0.717 1.146,0 2.18,0.282 2.898,0.717 0.727,0.438 1.104,0.99 1.1,1.533 0,0.1 0.041,0.196 0.109,0.266 C 39.557,2.961 39.65,3 39.75,3 c 0.1,0 0.195,-0.039 0.266,-0.109 0.07,-0.07 0.109,-0.166 0.109,-0.266 -0.004,-0.543 0.373,-1.095 1.1,-1.533 0.718,-0.435 1.754,-0.717 2.902,-0.717 1.146,0 2.18,0.282 2.898,0.717 0.729,0.438 1.104,0.99 1.1,1.533 0,0.1 0.041,0.196 0.111,0.266 C 48.305,2.961 48.402,3 48.5,3 c 0.1,0 0.197,-0.039 0.266,-0.109 0.07,-0.07 0.111,-0.166 0.111,-0.266 -0.006,-0.543 0.371,-1.095 1.098,-1.533 0.72,-0.435 1.754,-0.717 2.9,-0.717 1.148,0 2.184,0.282 2.902,0.717 0.727,0.438 1.102,0.99 1.098,1.533 0,0.1 0.041,0.196 0.111,0.266 C 57.057,2.961 57.15,3 57.252,3 57.348,3 57.445,2.961 57.516,2.891 57.586,2.821 57.627,2.725 57.627,2.625 57.623,2.082 58,1.53 58.725,1.092 c 0.72,-0.435 1.754,-0.717 2.9,-0.717 0.207,0 0.377,-0.168 0.377,-0.375 0,-0.206 -0.17,-0.373 -0.377,-0.373 -1.912,0.01 -3.639,0.689 -4.375,1.821 -0.734,-1.132 -2.459,-1.811 -4.375,-1.821 -1.912,0.01 -3.639,0.69 -4.375,1.822 -0.734,-1.132 -2.459,-1.812 -4.373,-1.822 -1.914,0.01 -3.641,0.69 -4.377,1.822 C 39.016,0.317 37.291,-0.363 35.377,-0.373 33.463,-0.363 31.736,0.316 31,1.448 30.266,0.316 28.541,-0.363 26.625,-0.373 24.713,-0.363 22.986,0.317 22.25,1.449 21.516,0.317 19.791,-0.363 17.877,-0.373 15.963,-0.363 14.236,0.317 13.5,1.449 12.766,0.317 11.041,-0.363 9.127,-0.373 7.213,-0.363 5.486,0.316 4.75,1.449 4.014,0.316 2.289,-0.363 0.375,-0.375 0.168,-0.375 0,-0.206 0,0"
           style="fill:#ffffff;fill-opacity:1;fill-rule:nonzero;stroke:none"
           id="path1038" />
      </g>
      <g
         id="g1040"
         transform="translate(495.6182,500.1191)">
        <path
           d="m 0,0 c -0.734,-1.133 -2.459,-1.813 -4.375,-1.822 -1.912,0.009 -3.639,0.688 -4.375,1.821 -0.734,-1.132 -2.459,-1.812 -4.373,-1.821 -1.914,0.009 -3.641,0.688 -4.377,1.821 -0.734,-1.132 -2.459,-1.812 -4.373,-1.821 -1.916,0.009 -3.643,0.688 -4.377,1.822 -0.734,-1.133 -2.459,-1.813 -4.375,-1.822 -1.914,0.009 -3.641,0.688 -4.375,1.822 -0.734,-1.133 -2.459,-1.813 -4.373,-1.822 -1.914,0.009 -3.641,0.688 -4.377,1.821 -0.734,-1.132 -2.459,-1.812 -4.373,-1.821 -1.916,0.009 -3.643,0.688 -4.377,1.822 -0.734,-1.133 -2.461,-1.813 -4.375,-1.822 -0.207,0 -0.375,0.166 -0.375,0.372 0,0.209 0.168,0.376 0.375,0.376 1.148,0 2.184,0.281 2.902,0.716 0.727,0.438 1.102,0.99 1.1,1.534 0,0.098 0.037,0.195 0.109,0.265 0.067,0.069 0.164,0.11 0.266,0.11 0.1,0 0.193,-0.038 0.264,-0.11 0.07,-0.07 0.109,-0.165 0.109,-0.265 -0.002,-0.544 0.375,-1.096 1.1,-1.534 0.72,-0.435 1.754,-0.716 2.902,-0.716 1.146,0 2.18,0.281 2.898,0.716 0.727,0.438 1.104,0.99 1.1,1.534 0,0.098 0.041,0.195 0.109,0.265 0.071,0.069 0.166,0.11 0.266,0.11 0.102,0 0.197,-0.038 0.266,-0.11 0.072,-0.07 0.109,-0.165 0.109,-0.265 -0.004,-0.544 0.373,-1.096 1.1,-1.534 0.718,-0.435 1.754,-0.716 2.902,-0.716 1.146,0 2.18,0.281 2.898,0.716 0.729,0.438 1.104,0.99 1.1,1.534 0,0.098 0.041,0.195 0.111,0.265 0.069,0.069 0.166,0.11 0.266,0.11 0.098,0 0.193,-0.038 0.264,-0.11 0.07,-0.07 0.107,-0.165 0.107,-0.265 -0.002,-0.544 0.377,-1.096 1.102,-1.534 0.72,-0.435 1.754,-0.716 2.9,-0.716 1.148,0 2.184,0.281 2.902,0.716 0.727,0.438 1.102,0.99 1.1,1.534 0,0.098 0.037,0.195 0.109,0.265 0.067,0.069 0.164,0.11 0.266,0.11 0.1,0 0.193,-0.038 0.264,-0.11 0.07,-0.07 0.109,-0.165 0.109,-0.265 -0.002,-0.544 0.375,-1.096 1.1,-1.534 0.72,-0.435 1.754,-0.716 2.902,-0.716 1.146,0 2.18,0.281 2.898,0.716 0.727,0.438 1.104,0.99 1.1,1.534 0,0.098 0.041,0.195 0.109,0.265 0.071,0.069 0.166,0.11 0.266,0.11 0.102,0 0.195,-0.038 0.266,-0.11 0.072,-0.07 0.109,-0.165 0.109,-0.265 -0.004,-0.544 0.373,-1.096 1.1,-1.534 0.718,-0.435 1.754,-0.716 2.902,-0.716 1.146,0 2.18,0.281 2.898,0.716 0.729,0.438 1.104,0.99 1.1,1.534 0,0.098 0.041,0.195 0.111,0.265 0.069,0.069 0.166,0.11 0.264,0.11 0.1,0 0.195,-0.038 0.266,-0.11 0.07,-0.07 0.111,-0.165 0.111,-0.265 -0.006,-0.544 0.371,-1.096 1.098,-1.534 0.72,-0.435 1.754,-0.716 2.9,-0.716 1.148,0 2.184,0.281 2.902,0.716 0.727,0.438 1.102,0.99 1.1,1.534 0,0.098 0.037,0.195 0.109,0.265 0.071,0.069 0.164,0.11 0.266,0.11 0.1,0 0.193,-0.038 0.264,-0.11 0.07,-0.07 0.109,-0.165 0.109,-0.265 -0.002,-0.544 0.375,-1.096 1.1,-1.534 0.72,-0.435 1.754,-0.716 2.9,-0.716 0.207,0 0.377,-0.167 0.377,-0.376 0,-0.206 -0.17,-0.372 -0.377,-0.372 C 2.461,-1.813 0.734,-1.134 0,0"
           style="fill:#ffffff;fill-opacity:1;fill-rule:nonzero;stroke:none"
           id="path1042" />
      </g>
      <g
         id="g1044"
         transform="translate(495.6182,514.1973)">
        <path
           d="m 0,0 c -0.734,-1.133 -2.459,-1.814 -4.375,-1.824 -1.912,0.01 -3.639,0.69 -4.375,1.824 -0.734,-1.134 -2.459,-1.814 -4.373,-1.824 -1.914,0.01 -3.641,0.69 -4.377,1.824 -0.734,-1.134 -2.459,-1.814 -4.373,-1.824 -1.916,0.01 -3.641,0.691 -4.377,1.824 -0.734,-1.133 -2.459,-1.814 -4.375,-1.824 -1.912,0.01 -3.639,0.691 -4.375,1.824 -0.734,-1.133 -2.459,-1.814 -4.373,-1.824 -1.914,0.01 -3.641,0.69 -4.377,1.824 -0.734,-1.134 -2.459,-1.814 -4.373,-1.824 -1.916,0.01 -3.641,0.691 -4.377,1.824 -0.734,-1.133 -2.459,-1.814 -4.375,-1.824 -0.207,0 -0.375,0.169 -0.375,0.375 0,0.207 0.168,0.375 0.375,0.375 1.148,-0.002 2.184,0.283 2.902,0.715 0.727,0.438 1.102,0.99 1.1,1.536 0,0.098 0.037,0.196 0.109,0.265 0.067,0.07 0.164,0.11 0.266,0.11 0.1,0 0.193,-0.04 0.264,-0.113 0.07,-0.068 0.109,-0.164 0.109,-0.262 -0.002,-0.546 0.375,-1.098 1.1,-1.536 0.72,-0.432 1.754,-0.717 2.902,-0.715 1.146,-0.002 2.18,0.283 2.898,0.715 0.727,0.438 1.104,0.99 1.1,1.536 0,0.098 0.041,0.196 0.109,0.265 0.071,0.07 0.166,0.11 0.266,0.11 0.102,0 0.197,-0.04 0.266,-0.113 0.072,-0.068 0.109,-0.164 0.109,-0.262 -0.004,-0.546 0.373,-1.098 1.1,-1.536 0.718,-0.432 1.754,-0.717 2.902,-0.715 1.146,-0.002 2.18,0.283 2.898,0.715 0.729,0.438 1.104,0.99 1.1,1.536 0,0.098 0.041,0.196 0.111,0.265 0.069,0.07 0.166,0.11 0.266,0.11 0.098,0 0.193,-0.04 0.264,-0.113 0.07,-0.068 0.107,-0.164 0.107,-0.262 -0.002,-0.546 0.377,-1.098 1.102,-1.536 0.72,-0.432 1.754,-0.717 2.9,-0.715 1.148,-0.002 2.184,0.283 2.902,0.715 0.727,0.438 1.102,0.99 1.1,1.536 0,0.098 0.037,0.196 0.109,0.265 0.067,0.07 0.164,0.11 0.266,0.11 0.1,0 0.193,-0.04 0.264,-0.113 0.07,-0.068 0.109,-0.164 0.109,-0.262 -0.002,-0.546 0.375,-1.098 1.1,-1.536 0.72,-0.432 1.754,-0.717 2.902,-0.715 1.146,-0.002 2.18,0.283 2.898,0.715 0.727,0.438 1.104,0.99 1.1,1.536 0,0.098 0.041,0.196 0.109,0.265 0.071,0.07 0.166,0.11 0.266,0.11 0.102,0 0.195,-0.04 0.266,-0.113 0.072,-0.068 0.109,-0.164 0.109,-0.262 -0.004,-0.546 0.373,-1.098 1.1,-1.536 0.718,-0.432 1.754,-0.717 2.902,-0.715 1.146,-0.002 2.18,0.283 2.898,0.715 0.729,0.438 1.104,0.99 1.1,1.536 0,0.098 0.041,0.196 0.111,0.265 0.069,0.07 0.166,0.11 0.264,0.11 0.1,0 0.195,-0.04 0.266,-0.113 0.07,-0.068 0.111,-0.164 0.111,-0.262 -0.006,-0.546 0.371,-1.098 1.098,-1.536 0.72,-0.432 1.754,-0.717 2.9,-0.715 1.148,-0.002 2.184,0.283 2.902,0.715 0.727,0.438 1.102,0.99 1.1,1.536 0,0.098 0.037,0.196 0.109,0.265 0.071,0.07 0.164,0.11 0.266,0.11 0.1,0 0.193,-0.04 0.264,-0.113 0.07,-0.068 0.109,-0.164 0.109,-0.262 -0.002,-0.546 0.375,-1.098 1.1,-1.536 0.72,-0.432 1.754,-0.717 2.9,-0.715 0.207,0 0.377,-0.168 0.377,-0.375 0,-0.206 -0.17,-0.375 -0.377,-0.375 C 2.461,-1.814 0.736,-1.133 0,0"
           style="fill:#ffffff;fill-opacity:1;fill-rule:nonzero;stroke:none"
           id="path1046" />
      </g>
      <g
         id="g1048"
         transform="translate(476.2373,519.918)">
        <path
           d="M 0,0 H 3.768 L 4.121,-2.02 1.883,-1.211 -0.355,-2.02 Z m 1.883,-4.545 c 0,-1.021 0.98,-1.895 2.398,-2.33 L 5.682,-2.582 4.789,-2.26 4.393,0 H 4.729 V 1.232 H 3.133 L 2.602,2.752 H 1.164 L 0.635,1.232 H -0.959 V 0 h 0.334 l -0.396,-2.262 -0.893,-0.322 1.398,-4.291 c 1.418,0.434 2.399,1.309 2.399,2.33"
           style="fill:#ffffff;fill-opacity:1;fill-rule:nonzero;stroke:none"
           id="path1050" />
      </g>
      <g
         id="g1052"
         transform="translate(441.2373,505.8398)">
        <path
           d="M 0,0 H 3.768 L 4.121,-2.02 1.883,-1.211 -0.355,-2.02 Z m 1.883,-4.545 c 0,-1.021 0.98,-1.895 2.398,-2.33 L 5.682,-2.582 4.789,-2.26 4.393,0 H 4.729 V 1.232 H 3.133 L 2.602,2.752 H 1.164 L 0.635,1.232 H -0.959 V 0 h 0.334 l -0.396,-2.262 -0.893,-0.322 1.398,-4.291 c 1.418,0.434 2.399,1.309 2.399,2.33"
           style="fill:#ffffff;fill-opacity:1;fill-rule:nonzero;stroke:none"
           id="path1054" />
      </g>
      <g
         id="g1056"
         transform="translate(493.7373,491.8398)">
        <path
           d="M 0,0 H 3.768 L 4.121,-2.02 1.883,-1.211 -0.355,-2.02 Z m 1.883,-4.545 c 0,-1.021 0.98,-1.894 2.398,-2.33 L 5.682,-2.582 4.789,-2.26 4.393,0 H 4.729 V 1.232 H 3.133 L 2.602,2.753 H 1.164 L 0.635,1.232 H -0.959 V 0 h 0.334 l -0.396,-2.261 -0.893,-0.322 1.398,-4.292 c 1.418,0.434 2.399,1.309 2.399,2.33"
           style="fill:#ffffff;fill-opacity:1;fill-rule:nonzero;stroke:none"
           id="path1058" />
      </g>
      <g
         id="g1060"
         transform="translate(508.9658,486.4824)">
        <path
           d="m 0,0 c 0,-0.354 -0.09,-0.669 -0.27,-0.943 -0.179,-0.275 -0.439,-0.489 -0.777,-0.641 -0.34,-0.152 -0.736,-0.229 -1.191,-0.229 -0.381,0 -0.7,0.027 -0.957,0.081 -0.258,0.053 -0.528,0.146 -0.805,0.279 v 1.375 c 0.293,-0.151 0.6,-0.269 0.918,-0.354 0.316,-0.085 0.609,-0.127 0.875,-0.127 0.228,0 0.396,0.04 0.504,0.12 0.105,0.079 0.16,0.181 0.16,0.306 0,0.078 -0.021,0.147 -0.064,0.205 -0.043,0.059 -0.114,0.118 -0.207,0.178 -0.096,0.06 -0.35,0.182 -0.76,0.367 -0.373,0.17 -0.653,0.334 -0.838,0.492 -0.188,0.159 -0.324,0.342 -0.414,0.547 -0.09,0.205 -0.135,0.449 -0.135,0.731 0,0.525 0.191,0.935 0.574,1.23 0.383,0.295 0.908,0.442 1.578,0.442 0.59,0 1.194,-0.137 1.809,-0.411 L -0.473,2.457 C -1.008,2.701 -1.469,2.824 -1.855,2.824 -2.057,2.824 -2.203,2.789 -2.293,2.719 -2.385,2.648 -2.43,2.561 -2.43,2.457 c 0,-0.111 0.057,-0.213 0.174,-0.301 0.115,-0.088 0.43,-0.25 0.943,-0.484 C -0.82,1.451 -0.479,1.213 -0.287,0.959 -0.096,0.705 0,0.385 0,0"
           style="fill:#ffffff;fill-opacity:1;fill-rule:nonzero;stroke:none"
           id="path1062" />
      </g>
      <g
         id="g1064"
         transform="translate(512.3682,484.748)">
        <path
           d="M 0,0 H -1.543 V 4.449 H -2.938 V 5.711 H 1.391 V 4.449 H 0 Z"
           style="fill:#ffffff;fill-opacity:1;fill-rule:nonzero;stroke:none"
           id="path1066" />
      </g>
      <g
         id="g1068"
         transform="translate(516.1182,487.9863)">
        <path
           d="m 0,0 h 0.289 c 0.539,0 0.809,0.238 0.809,0.715 0,0.392 -0.266,0.59 -0.793,0.59 H 0 Z m 0,-1.16 v -2.078 h -1.543 v 5.711 h 1.871 c 1.551,0 2.328,-0.563 2.328,-1.688 0,-0.662 -0.324,-1.174 -0.968,-1.535 L 3.352,-3.238 H 1.602 L 0.391,-1.16 Z"
           style="fill:#ffffff;fill-opacity:1;fill-rule:nonzero;stroke:none"
           id="path1070" />
      </g>
      <g
         id="g1072"
         transform="translate(521.4033,487.6113)">
        <path
           d="m 0,0 c 0,-1.104 0.383,-1.656 1.152,-1.656 0.391,0 0.68,0.134 0.869,0.402 C 2.209,-0.985 2.305,-0.568 2.305,0 2.305,0.57 2.209,0.992 2.018,1.264 1.826,1.535 1.539,1.672 1.16,1.672 0.387,1.672 0,1.115 0,0 m 3.93,0 c 0,-0.961 -0.237,-1.691 -0.707,-2.191 -0.473,-0.5 -1.162,-0.75 -2.071,-0.75 -0.896,0 -1.584,0.251 -2.06,0.753 -0.479,0.503 -0.717,1.235 -0.717,2.196 0,0.951 0.236,1.676 0.713,2.178 0.474,0.502 1.166,0.752 2.072,0.752 0.908,0 1.598,-0.249 2.067,-0.747 C 3.695,1.693 3.93,0.963 3.93,0"
           style="fill:#ffffff;fill-opacity:1;fill-rule:nonzero;stroke:none"
           id="path1074" />
      </g>
      <g
         id="g1076"
         transform="translate(531.8018,484.748)">
        <path
           d="M 0,0 H -2.023 L -4.109,4.023 H -4.145 C -4.096,3.391 -4.07,2.908 -4.07,2.574 V 0 h -1.368 v 5.711 h 2.016 L -1.344,1.742 H -1.32 C -1.357,2.318 -1.375,2.779 -1.375,3.129 V 5.711 H 0 Z"
           style="fill:#ffffff;fill-opacity:1;fill-rule:nonzero;stroke:none"
           id="path1078" />
      </g>
      <g
         id="g1080"
         transform="translate(535.3291,488.0918)">
        <path
           d="m 0,0 h 2.465 v -3.078 c -0.67,-0.23 -1.406,-0.344 -2.207,-0.344 -0.881,0 -1.561,0.255 -2.041,0.766 -0.481,0.51 -0.721,1.238 -0.721,2.183 0,0.922 0.262,1.639 0.789,2.153 0.526,0.513 1.262,0.769 2.211,0.769 0.359,0 0.697,-0.033 1.018,-0.101 C 1.832,2.279 2.109,2.193 2.348,2.09 L 1.859,0.879 C 1.447,1.082 0.996,1.184 0.504,1.184 0.053,1.184 -0.295,1.037 -0.541,0.744 -0.787,0.451 -0.91,0.033 -0.91,-0.512 c 0,-0.533 0.111,-0.94 0.334,-1.22 0.222,-0.281 0.543,-0.42 0.963,-0.42 0.228,0 0.439,0.022 0.633,0.066 v 0.895 H 0 Z"
           style="fill:#ffffff;fill-opacity:1;fill-rule:nonzero;stroke:none"
           id="path1082" />
      </g>
      <g
         id="g1084"
         transform="translate(506.5088,501.1387)">
        <path
           d="m 0,0 v -1.199 h 0.543 c 0.48,0 0.723,0.203 0.723,0.609 0,0.191 -0.065,0.336 -0.194,0.438 C 0.943,-0.051 0.756,0 0.512,0 Z m 0,1.129 h 0.465 c 0.221,0 0.392,0.046 0.514,0.137 0.121,0.09 0.181,0.226 0.181,0.406 0,0.32 -0.242,0.48 -0.726,0.48 H 0 Z M -1.543,3.32 H 0.449 C 1.225,3.32 1.801,3.205 2.178,2.975 2.553,2.744 2.742,2.386 2.742,1.898 2.742,1.578 2.66,1.305 2.496,1.078 2.332,0.852 2.115,0.706 1.848,0.641 V 0.602 C 2.201,0.508 2.457,0.352 2.617,0.133 2.775,-0.086 2.855,-0.37 2.855,-0.719 2.855,-1.237 2.66,-1.646 2.271,-1.943 1.881,-2.241 1.352,-2.391 0.68,-2.391 h -2.223 z"
           style="fill:#ffffff;fill-opacity:1;fill-rule:nonzero;stroke:none"
           id="path1086" />
      </g>
      <path
         d="m 510.356,504.459 h 1.551 v -5.711 h -1.551 z"
         style="fill:#ffffff;fill-opacity:1;fill-rule:nonzero;stroke:none"
         id="path1088" />
      <g
         id="g1090"
         transform="translate(515.6611,498.748)">
        <path
           d="M 0,0 H -1.543 V 4.449 H -2.938 V 5.711 H 1.391 V 4.449 H 0 Z"
           style="fill:#ffffff;fill-opacity:1;fill-rule:nonzero;stroke:none"
           id="path1092" />
      </g>
      <g
         id="g1094"
         transform="translate(520.3877,498.748)">
        <path
           d="M 0,0 H -1.543 V 4.449 H -2.938 V 5.711 H 1.391 V 4.449 H 0 Z"
           style="fill:#ffffff;fill-opacity:1;fill-rule:nonzero;stroke:none"
           id="path1096" />
      </g>
      <g
         id="g1098"
         transform="translate(525.9854,498.748)">
        <path
           d="M 0,0 H -3.391 V 5.711 H 0 V 4.473 H -1.848 V 3.574 h 1.711 V 2.336 H -1.848 V 1.258 H 0 Z"
           style="fill:#ffffff;fill-opacity:1;fill-rule:nonzero;stroke:none"
           id="path1100" />
      </g>
      <g
         id="g1102"
         transform="translate(528.5283,501.9863)">
        <path
           d="m 0,0 h 0.289 c 0.539,0 0.809,0.238 0.809,0.715 0,0.393 -0.266,0.59 -0.793,0.59 H 0 Z m 0,-1.16 v -2.078 h -1.543 v 5.711 h 1.871 c 1.551,0 2.328,-0.563 2.328,-1.688 0,-0.661 -0.324,-1.173 -0.968,-1.535 L 3.352,-3.238 H 1.602 L 0.391,-1.16 Z"
           style="fill:#ffffff;fill-opacity:1;fill-rule:nonzero;stroke:none"
           id="path1104" />
      </g>
      <g
         id="g1106"
         transform="translate(508.2119,515.6699)">
        <path
           d="m 0,0 c 0,0.523 -0.104,0.911 -0.311,1.164 -0.207,0.253 -0.521,0.379 -0.943,0.379 h -0.449 v -3.199 h 0.344 c 0.468,0 0.812,0.135 1.031,0.408 C -0.109,-0.976 0,-0.56 0,0 m 1.602,0.055 c 0,-0.953 -0.264,-1.688 -0.788,-2.203 -0.525,-0.516 -1.263,-0.774 -2.212,-0.774 h -1.848 v 5.711 h 1.976 c 0.916,0 1.624,-0.234 2.124,-0.703 C 1.352,1.617 1.602,0.94 1.602,0.055"
           style="fill:#ffffff;fill-opacity:1;fill-rule:nonzero;stroke:none"
           id="path1108" />
      </g>
      <g
         id="g1110"
         transform="translate(513.7393,515.084)">
        <path
           d="M 0,0 -0.246,0.938 C -0.305,1.146 -0.373,1.415 -0.455,1.746 -0.537,2.077 -0.592,2.313 -0.617,2.457 -0.641,2.324 -0.688,2.105 -0.756,1.801 -0.826,1.496 -0.979,0.896 -1.215,0 Z m 0.602,-2.336 -0.282,1.07 h -1.855 l -0.289,-1.07 H -3.52 l 1.864,5.734 h 2.058 l 1.887,-5.734 z"
           style="fill:#ffffff;fill-opacity:1;fill-rule:nonzero;stroke:none"
           id="path1112" />
      </g>
      <g
         id="g1114"
         transform="translate(518.1885,515.9863)">
        <path
           d="m 0,0 h 0.289 c 0.539,0 0.809,0.238 0.809,0.715 0,0.393 -0.266,0.59 -0.793,0.59 H 0 Z m 0,-1.16 v -2.078 h -1.543 v 5.711 h 1.871 c 1.551,0 2.328,-0.563 2.328,-1.688 0,-0.661 -0.324,-1.173 -0.968,-1.535 L 3.352,-3.238 H 1.602 L 0.391,-1.16 Z"
           style="fill:#ffffff;fill-opacity:1;fill-rule:nonzero;stroke:none"
           id="path1116" />
      </g>
      <g
         id="g1118"
         transform="translate(526.9385,512.748)">
        <path
           d="M 0,0 H -1.742 L -2.871,2.184 -3.328,1.91 V 0 h -1.551 v 5.711 h 1.551 V 3.23 c 0.078,0.154 0.234,0.398 0.473,0.731 l 1.199,1.75 H 0.031 L -1.77,3.152 Z"
           style="fill:#ffffff;fill-opacity:1;fill-rule:nonzero;stroke:none"
           id="path1120" />
      </g>
      <g
         id="g1122"
         transform="translate(411.8867,500.4824)">
        <path
           d="m 0,0 c 0,-0.354 -0.09,-0.669 -0.27,-0.943 -0.179,-0.276 -0.439,-0.489 -0.777,-0.641 -0.34,-0.152 -0.736,-0.229 -1.191,-0.229 -0.381,0 -0.7,0.027 -0.957,0.081 -0.258,0.052 -0.528,0.146 -0.805,0.279 v 1.375 c 0.293,-0.151 0.6,-0.27 0.918,-0.354 0.316,-0.085 0.609,-0.127 0.875,-0.127 0.228,0 0.396,0.039 0.504,0.12 0.105,0.079 0.16,0.181 0.16,0.306 0,0.078 -0.021,0.147 -0.064,0.205 C -1.65,0.131 -1.721,0.189 -1.814,0.25 -1.91,0.31 -2.164,0.432 -2.574,0.617 -2.947,0.786 -3.227,0.95 -3.412,1.109 -3.6,1.268 -3.736,1.45 -3.826,1.656 c -0.09,0.205 -0.135,0.449 -0.135,0.731 0,0.525 0.191,0.935 0.574,1.23 0.383,0.294 0.908,0.442 1.578,0.442 0.59,0 1.194,-0.137 1.809,-0.411 L -0.473,2.457 C -1.008,2.701 -1.469,2.824 -1.855,2.824 -2.057,2.824 -2.203,2.789 -2.293,2.719 -2.385,2.648 -2.43,2.561 -2.43,2.457 c 0,-0.112 0.057,-0.213 0.174,-0.301 0.115,-0.089 0.43,-0.25 0.943,-0.484 C -0.82,1.45 -0.479,1.213 -0.287,0.959 -0.096,0.705 0,0.385 0,0"
           style="fill:#ffffff;fill-opacity:1;fill-rule:nonzero;stroke:none"
           id="path1124" />
      </g>
      <g
         id="g1126"
         transform="translate(418.938,498.748)">
        <path
           d="M 0,0 H -1.824 L -2.371,2.488 C -2.398,2.592 -2.439,2.799 -2.494,3.109 -2.551,3.419 -2.592,3.678 -2.617,3.887 -2.639,3.717 -2.672,3.507 -2.719,3.256 -2.766,3.004 -2.813,2.773 -2.857,2.563 -2.904,2.352 -3.094,1.497 -3.426,0 H -5.25 l -1.414,5.711 h 1.488 l 0.621,-2.863 c 0.141,-0.633 0.237,-1.137 0.289,-1.512 0.034,0.266 0.094,0.626 0.182,1.082 0.086,0.455 0.168,0.833 0.244,1.133 l 0.504,2.16 h 1.43 l 0.488,-2.16 c 0.082,-0.347 0.168,-0.746 0.254,-1.199 0.086,-0.454 0.143,-0.792 0.172,-1.016 0.033,0.289 0.125,0.79 0.277,1.504 l 0.633,2.871 h 1.488 z"
           style="fill:#ffffff;fill-opacity:1;fill-rule:nonzero;stroke:none"
           id="path1128" />
      </g>
      <g
         id="g1130"
         transform="translate(424.4736,498.748)">
        <path
           d="M 0,0 H -3.391 V 5.711 H 0 V 4.473 H -1.848 V 3.574 h 1.711 V 2.336 H -1.848 V 1.258 H 0 Z"
           style="fill:#ffffff;fill-opacity:1;fill-rule:nonzero;stroke:none"
           id="path1132" />
      </g>
      <g
         id="g1134"
         transform="translate(428.8643,498.748)">
        <path
           d="M 0,0 H -3.391 V 5.711 H 0 V 4.473 H -1.848 V 3.574 h 1.711 V 2.336 H -1.848 V 1.258 H 0 Z"
           style="fill:#ffffff;fill-opacity:1;fill-rule:nonzero;stroke:none"
           id="path1136" />
      </g>
      <g
         id="g1138"
         transform="translate(432.3838,498.748)">
        <path
           d="M 0,0 H -1.543 V 4.449 H -2.938 V 5.711 H 1.391 V 4.449 H 0 Z"
           style="fill:#ffffff;fill-opacity:1;fill-rule:nonzero;stroke:none"
           id="path1140" />
      </g>
      <g
         id="g1142"
         transform="translate(409.4297,515.9004)">
        <path
           d="m 0,0 h 0.281 c 0.231,0 0.416,0.065 0.553,0.195 0.137,0.13 0.205,0.31 0.205,0.539 0,0.386 -0.215,0.579 -0.641,0.579 H 0 Z M 2.602,0.742 C 2.602,0.104 2.412,-0.389 2.037,-0.736 1.66,-1.084 1.125,-1.258 0.434,-1.258 H 0 v -1.894 h -1.543 v 5.711 h 1.977 c 0.72,0 1.261,-0.158 1.625,-0.473 C 2.42,1.771 2.602,1.323 2.602,0.742"
           style="fill:#ffffff;fill-opacity:1;fill-rule:nonzero;stroke:none"
           id="path1144" />
      </g>
      <g
         id="g1146"
         transform="translate(417.8364,515.084)">
        <path
           d="M 0,0 -0.246,0.938 C -0.305,1.146 -0.373,1.415 -0.455,1.746 -0.537,2.077 -0.592,2.313 -0.617,2.457 -0.641,2.324 -0.688,2.105 -0.756,1.801 -0.826,1.496 -0.979,0.896 -1.215,0 Z m 0.602,-2.336 -0.282,1.07 h -1.855 l -0.289,-1.07 H -3.52 l 1.864,5.734 h 2.058 l 1.887,-5.734 z"
           style="fill:#ffffff;fill-opacity:1;fill-rule:nonzero;stroke:none"
           id="path1148" />
      </g>
      <g
         id="g1150"
         transform="translate(422.7354,512.748)">
        <path
           d="M 0,0 V 5.711 H 1.543 V 1.246 H 3.742 V 0 Z"
           style="fill:#ffffff;fill-opacity:1;fill-rule:nonzero;stroke:none"
           id="path1152" />
      </g>
      <g
         id="g1154"
         transform="translate(432.7744,512.748)">
        <path
           d="M 0,0 H -3.391 V 5.711 H 0 V 4.473 H -1.848 V 3.574 h 1.711 V 2.336 H -1.848 V 1.258 H 0 Z"
           style="fill:#ffffff;fill-opacity:1;fill-rule:nonzero;stroke:none"
           id="path1156" />
      </g>
      <g
         id="g1158"
         transform="translate(407.8867,484.748)">
        <path
           d="M 0,0 V 5.711 H 1.543 V 1.246 H 3.742 V 0 Z"
           style="fill:#ffffff;fill-opacity:1;fill-rule:nonzero;stroke:none"
           id="path1160" />
      </g>
      <path
         d="m 412.959,490.459 h 1.551 v -5.711 h -1.551 z"
         style="fill:#ffffff;fill-opacity:1;fill-rule:nonzero;stroke:none"
         id="path1162" />
      <g
         id="g1164"
         transform="translate(418.4556,488.0918)">
        <path
           d="m 0,0 h 2.465 v -3.078 c -0.67,-0.23 -1.406,-0.344 -2.207,-0.344 -0.881,0 -1.561,0.255 -2.041,0.766 -0.481,0.51 -0.721,1.238 -0.721,2.183 0,0.922 0.262,1.64 0.789,2.153 0.526,0.512 1.262,0.769 2.211,0.769 0.359,0 0.697,-0.034 1.018,-0.101 C 1.832,2.28 2.109,2.194 2.348,2.09 L 1.859,0.879 C 1.447,1.082 0.996,1.184 0.504,1.184 0.053,1.184 -0.295,1.037 -0.541,0.744 -0.787,0.451 -0.91,0.032 -0.91,-0.512 c 0,-0.534 0.111,-0.94 0.334,-1.22 0.222,-0.281 0.543,-0.42 0.963,-0.42 0.228,0 0.439,0.022 0.633,0.066 v 0.895 H 0 Z"
           style="fill:#ffffff;fill-opacity:1;fill-rule:nonzero;stroke:none"
           id="path1166" />
      </g>
      <g
         id="g1168"
         transform="translate(427.3955,484.748)">
        <path
           d="M 0,0 H -1.551 V 2.328 H -3.344 V 0 h -1.551 v 5.711 h 1.551 V 3.594 h 1.793 V 5.711 H 0 Z"
           style="fill:#ffffff;fill-opacity:1;fill-rule:nonzero;stroke:none"
           id="path1170" />
      </g>
      <g
         id="g1172"
         transform="translate(431.5674,484.748)">
        <path
           d="M 0,0 H -1.543 V 4.449 H -2.938 V 5.711 H 1.391 V 4.449 H 0 Z"
           style="fill:#ffffff;fill-opacity:1;fill-rule:nonzero;stroke:none"
           id="path1174" />
      </g>
      <text
         y="-532.6377"
         x="456.46921"
         transform="scale(1,-1)"
         style="font-variant:normal;font-weight:normal;font-stretch:normal;font-size:12px;font-family:'Myriad Pro';-inkscape-font-specification:MyriadPro-Regular;writing-mode:lr-tb;fill:#ffffff;fill-opacity:1;fill-rule:nonzero;stroke:none"
         id="text1178">
        <tspan
           x="456.46921 464.29321 470.8812 477.5412 483.55319"
           y="-532.6377"
           id="tspan1176">Honey</tspan>
      </text>
    </g>
  </g>
</svg>
