<?xml version="1.0" encoding="UTF-8" standalone="no"?>
<svg
   xmlns:dc="http://purl.org/dc/elements/1.1/"
   xmlns:cc="http://creativecommons.org/ns#"
   xmlns:rdf="http://www.w3.org/1999/02/22-rdf-syntax-ns#"
   xmlns:svg="http://www.w3.org/2000/svg"
   xmlns="http://www.w3.org/2000/svg"
   id="svg4410"
   version="1.1"
   viewBox="0 0 66.145832 66.145835"
   height="250"
   width="250">
  <defs
     id="defs4404" />
  <metadata
     id="metadata4407">
    <rdf:RDF>
      <cc:Work
         rdf:about="">
        <dc:format>image/svg+xml</dc:format>
        <dc:type
           rdf:resource="http://purl.org/dc/dcmitype/StillImage" />
        <dc:title></dc:title>
      </cc:Work>
    </rdf:RDF>
  </metadata>
  <g
     transform="translate(0,-230.85415)"
     id="layer1">
    <path
       id="path26"
       style="fill:#ffffff;fill-opacity:1;fill-rule:nonzero;stroke:none;stroke-width:1.77152312"
       d="m 42.299737,281.58144 h 2.635213 v -13.47321 h -2.635213 z m -5.974798,-3.00563 c -0.276071,0.6809 -0.725613,1.02139 -1.34681,1.02139 -0.635357,0 -1.084879,-0.33678 -1.353886,-1.00903 -0.265485,-0.67029 -0.399984,-1.78387 -0.399984,-3.33723 0,-1.55161 0.134499,-2.667 0.4053,-3.34614 0.270803,-0.67919 0.720303,-1.01788 1.348581,-1.01788 0.615882,0 1.063638,0.33879 1.343268,1.01788 0.27963,0.67914 0.419447,1.79453 0.419447,3.34614 0,1.53561 -0.13806,2.64392 -0.415885,3.32487 m -1.34681,-9.85403 c -1.499012,0 -2.608665,0.5302 -3.3272,1.58885 -0.718535,1.0604 -1.079572,2.706 -1.079572,4.94031 0,2.14207 0.369883,3.76107 1.109658,4.85872 0.73977,1.09585 1.84058,1.6456 3.297114,1.6456 1.502547,0 2.615747,-0.53201 3.339591,-1.59418 0.723841,-1.06221 1.084875,-2.69891 1.084875,-4.91014 0,-2.13504 -0.373444,-3.75932 -1.118503,-4.86763 -0.746849,-1.10825 -1.849429,-1.66153 -3.305963,-1.66153 m -11.999158,10.48707 1.624665,-1.5339 c 1.084876,-0.993 1.840574,-1.75553 2.270633,-2.29282 0.428277,-0.53729 0.745084,-1.06216 0.950377,-1.57286 0.203528,-0.5107 0.306171,-1.05865 0.306171,-1.64203 0,-0.66854 -0.16811,-1.26433 -0.502621,-1.78393 -0.332709,-0.51955 -0.803482,-0.92208 -1.406979,-1.21115 -0.605267,-0.28702 -1.304332,-0.43279 -2.091887,-0.43279 -0.598189,0 -1.141515,0.0583 -1.624665,0.17744 -0.484916,0.12064 -0.929142,0.28702 -1.33973,0.50718 -0.408813,0.21815 -0.923829,0.59404 -1.546796,1.126 l 1.451227,1.72185 c 0.502621,-0.41469 0.982234,-0.73413 1.444148,-0.95932 0.46194,-0.22519 0.934445,-0.3403 1.424679,-0.3403 0.467207,0 0.840646,0.12617 1.120274,0.37398 0.279631,0.24831 0.419448,0.62596 0.419448,1.13314 0,0.3403 -0.06372,0.67029 -0.191138,0.98767 -0.127424,0.31768 -0.334463,0.6632 -0.621195,1.03557 -0.286705,0.37247 -0.902593,1.04095 -1.840579,2.0056 l -3.171461,3.20956 v 1.8637 h 8.831249 v -2.252 h -5.505805 z m 26.569816,-5.50952 c -0.268995,10.54378 -1.07426,13.74806 -3.412148,17.2166 -0.09201,0.26942 -1.560953,0.95398 -2.364435,1.87963 -0.899052,1.353 -5.861536,2.49674 -10.703675,2.42758 -4.845681,0.0694 -9.809936,-1.07991 -10.705446,-2.42758 -0.808791,-0.92921 -2.272409,-1.61011 -2.364436,-1.87963 -2.341428,-3.46854 -3.141375,-6.67282 -3.412152,-17.2166 l 0.31505,-19.19378 c 4.934165,0.90971 10.234682,1.4399 16.165238,1.43458 h 0.0584 c 5.90932,0 11.192138,-0.52845 16.108604,-1.43634 0.05488,2.69891 0.325636,15.92918 0.325636,18.69726 0,0.15783 -0.0036,0.27998 -0.0036,0.35639 v 0.0729 l 0.01254,0.002 z m -31.174804,-29.8777 c 0.185819,-0.11511 0.645972,-0.35136 1.072489,-0.54081 0.486672,-0.33175 1.031789,-0.30863 1.43707,-1.11896 l 6.250888,-0.003 c 0.217676,0 0.399984,-0.1523 0.437157,-0.36895 0.196456,-1.15616 0.394666,-3.68839 0.607034,-5.95462 h 9.77631 c 0.212357,2.26271 0.412375,4.7967 0.605266,5.95462 0.03361,0.21614 0.217676,0.37046 0.435352,0.37046 h 6.24381 c 0.203528,0.44334 0.499063,0.57986 0.732692,0.75187 0.454815,0.27144 0.985771,0.48758 1.396364,0.69513 0.1646,0.0814 0.30617,0.15934 0.391104,0.21815 0.628274,4.13525 1.106117,6.69584 1.424677,9.78662 -4.911162,0.9168 -10.195745,1.44167 -16.117453,1.44519 -5.927019,-0.003 -11.211608,-0.52839 -16.124538,-1.44695 0.315,-3.0571 0.796405,-5.62126 1.431757,-9.78843 m 3.256419,-7.98656 h 5.658008 c -0.185819,2.01977 -0.366371,4.24166 -0.532705,5.44035 h -5.66155 c 0.169916,-1.31575 0.352173,-3.4915 0.536247,-5.44035 m 0.352174,-3.20781 h 22.166585 c 0.0885,0.55504 0.178745,1.38669 0.270753,2.31941 H 21.71532 c 0.09025,-0.93272 0.180502,-1.76437 0.267241,-2.31941 m 23.055022,8.64816 h -5.661535 c -0.164599,-1.19869 -0.345102,-3.42058 -0.530935,-5.44035 h 5.661551 c 0.178745,1.95061 0.362808,4.1246 0.530938,5.44035 m 5.951793,12.61321 c -0.338027,-3.48622 -0.849496,-6.14432 -1.509627,-10.53849 -0.176989,-0.71282 -0.562796,-0.85824 -0.845959,-1.07101 -0.458378,-0.27847 -0.992849,-0.49814 -1.40698,-0.70402 -0.164598,-0.0799 -0.307926,-0.15784 -0.398227,-0.21615 -0.327392,-2.16519 -0.660131,-8.3255 -1.120279,-9.88419 -0.116788,-0.37045 -0.456621,-0.62062 -0.842418,-0.62062 H 21.2711 c -0.387593,0 -0.730922,0.24981 -0.844189,0.62062 -0.463696,1.55869 -0.792868,7.719 -1.122045,9.88419 -0.191137,0.11712 -0.654823,0.34935 -1.086652,0.54262 -0.539784,0.36694 -1.182215,0.31567 -1.562718,1.45228 -0.667214,4.3906 -1.178679,7.0487 -1.509632,10.46581 l -0.329197,19.88462 c 0.249532,10.57223 1.10258,14.36874 3.720094,18.20607 0.75924,0.98421 2.183919,1.56402 2.433461,1.98077 1.996318,2.34067 6.990659,3.0376 12.098263,3.10853 5.104071,-0.0709 10.093099,-0.76786 12.092961,-3.10501 0.254849,-0.4167 1.67599,-1.00008 2.436997,-1.98429 2.606899,-3.82491 3.465244,-7.61258 3.716552,-18.07306 0.01053,-0.0402 0.0055,-0.0533 0,-0.0568 0.0017,-0.0101 0.0017,-0.0251 0.0017,-0.0402 0.0017,-0.003 0.0017,-0.005 0.0055,-0.0101 0.007,-0.11863 0.007,-0.27646 0.007,-0.5302 0,-3.14402 -0.339782,-19.30905 -0.339782,-19.31262" />
  </g>
</svg>
