<?xml version="1.0" encoding="UTF-8" standalone="no"?>
<svg
   xmlns:dc="http://purl.org/dc/elements/1.1/"
   xmlns:cc="http://creativecommons.org/ns#"
   xmlns:rdf="http://www.w3.org/1999/02/22-rdf-syntax-ns#"
   xmlns:svg="http://www.w3.org/2000/svg"
   xmlns="http://www.w3.org/2000/svg"
   viewBox="0 0 991.99997 315"
   height="315"
   width="992"
   xml:space="preserve"
   id="svg2"
   version="1.1"><metadata
     id="metadata8"><rdf:RDF><cc:Work
         rdf:about=""><dc:format>image/svg+xml</dc:format><dc:type
           rdf:resource="http://purl.org/dc/dcmitype/StillImage" /><dc:title></dc:title></cc:Work></rdf:RDF></metadata><defs
     id="defs6"><clipPath
       id="clipPath20"
       clipPathUnits="userSpaceOnUse"><path
         id="path18"
         d="M 0,255.118 H 804.753 V 0 H 0 Z" /></clipPath></defs><g
     transform="matrix(1.3333333,0,0,-1.3333333,0,315.00001)"
     id="g10"><g
       transform="scale(0.92450729,0.92604354)"
       id="g842"><path
         d="M 549.635,4.254 H 4.252 v 246.612 h 545.383 z"
         style="fill:#ffffff;fill-opacity:1;fill-rule:nonzero;stroke:none"
         id="path12" /><g
         id="g14"><g
           id="g16"
           clip-path="url(#clipPath20)"><g
             id="g22"
             transform="translate(309.9858,105.7666)"><path
               d="M 0,0 H 7.365 C 14.164,-0.008 19.648,-5.512 19.666,-12.287 19.648,-19.079 14.164,-24.576 7.365,-24.584 H 0 Z M -19.668,-73.751 H 0 v 29.506 h 7.506 c 9.443,-0.089 17.057,-7.751 17.072,-17.206 -0.004,-4.825 -1.994,-9.174 -5.176,-12.3 h 22.733 c 1.371,3.85 2.113,7.989 2.113,12.3 0,11.215 -5.004,21.256 -12.918,28.029 4.983,5.625 7.996,13.024 7.996,21.135 0,17.644 -14.293,31.949 -31.961,31.955 H -19.668 Z M 14.588,45.235 v 66.207 h 14.256 c 3.701,-0.018 6.822,-0.966 9.547,-2.655 3.25,-2.012 5.97,-5.318 8.127,-9.503 3.07,-5.941 4.752,-13.42 4.753,-20.925 V 78.306 C 51.279,70.927 49.609,63.559 46.752,57.839 44.615,53.54 41.859,50.04 38.383,47.874 35.666,46.202 32.566,45.238 28.861,45.235 Z m 26.928,-2.359 c 4.699,2.941 8.056,7.406 10.523,12.334 3.318,6.685 5.131,14.828 5.135,23.052 v 0.062 c -0.004,8.394 -1.838,16.721 -5.404,23.669 -2.497,4.831 -5.825,9.043 -10.266,11.801 -3.611,2.251 -7.908,3.555 -12.66,3.544 H 8.697 V 39.332 h 20.186 c 4.736,0 9.021,1.293 12.633,3.544 m -117.107,2.359 h -41.761 v 72.103 h -5.9 V 39.332 h 47.661 z m -18.649,60.103 c 3.781,3.775 8.951,6.091 14.717,6.104 5.76,-0.013 10.933,-2.329 14.714,-6.104 3.776,-3.787 6.092,-8.949 6.097,-14.715 -0.005,-5.758 -2.321,-10.934 -6.097,-14.715 -3.781,-3.769 -8.954,-6.091 -14.714,-6.094 -5.766,0.003 -10.936,2.325 -14.717,6.094 -3.773,3.781 -6.089,8.957 -6.095,14.715 0.006,5.766 2.322,10.928 6.095,14.715 m 14.717,-41.43 c 7.366,0 14.057,3 18.883,7.826 4.831,4.837 7.827,11.524 7.821,18.889 0.006,7.368 -2.99,14.058 -7.821,18.894 -4.826,4.829 -11.517,7.821 -18.883,7.821 -7.376,0 -14.06,-2.992 -18.894,-7.821 -4.826,-4.836 -7.823,-11.526 -7.823,-18.894 0,-7.365 2.997,-14.052 7.823,-18.883 4.834,-4.832 11.518,-7.832 18.894,-7.832 m 43.718,47.534 h 10.463 c 7.885,-0.024 14.272,-6.406 14.279,-14.292 -0.007,-7.884 -6.394,-14.261 -14.279,-14.283 h -10.463 z m 0,-34.478 10.463,0.011 c 0.938,0 1.848,0.067 2.756,0.194 L -3.482,39.332 H 3.135 L -16.84,78.85 c 6.895,3.207 11.682,10.192 11.682,18.3 0,11.15 -9.03,20.188 -20.184,20.188 H -41.697 V 39.332 h 5.892 z M -74.062,19.668 h -20.391 v -93.419 h 19.664 v 21.65 l 5.925,-21.65 h 19.67 l 5.929,21.65 v -21.65 h 19.663 v 93.419 h -20.387 l -15.04,-54.883 z m 285.951,0 h -20.015 l -11.375,-37.051 -6.942,37.051 h -20.012 l 14.534,-77.51 -4.885,-15.909 h 20.012 z m -451.228,-89.726 c -0.181,-0.42 -0.369,-0.801 -0.56,-1.19 -0.059,-0.121 -0.111,-0.231 -0.175,-0.348 -0.135,-0.265 -0.269,-0.519 -0.404,-0.782 -0.059,-0.113 -0.124,-0.223 -0.189,-0.34 -0.145,-0.258 -0.29,-0.517 -0.436,-0.76 -0.045,-0.08 -0.091,-0.156 -0.134,-0.23 -0.011,-0.016 -0.017,-0.021 -0.022,-0.043 h 21.619 l -15.902,15.909 c -0.978,-4.737 -2.286,-8.898 -3.797,-12.216 M 67.85,0 75.223,-0.008 c 6.783,0 12.285,-5.504 12.285,-12.279 0,-6.792 -5.502,-12.289 -12.285,-12.297 H 67.85 Z m 67.826,-33.688 2.907,-15.466 h -5.809 z M 48.188,-73.751 H 67.85 v 29.506 h 7.306 l 14.903,-29.506 h 38.1 l 0.927,4.916 h 13.18 l 0.916,-4.916 h 20.012 L 145.676,19.668 H 125.67 v -0.006 l -16.447,-87.732 -15.15,29.984 c 7.941,5.819 13.094,15.193 13.101,25.799 C 107.167,5.357 92.875,19.662 75.229,19.668 H 48.188 Z m -174.101,40.063 2.909,-15.466 h -5.807 z m -6.587,-35.147 h 13.175 l 0.926,-4.916 h 20.011 l -17.514,93.419 h -20.012 v -0.006 l -17.513,-93.413 h 20.006 z m -118.278,-4.916 c -0.198,0.322 -0.397,0.672 -0.585,1.027 -0.043,0.075 -0.086,0.153 -0.126,0.219 -0.199,0.362 -0.397,0.751 -0.59,1.136 -0.025,0.059 -0.043,0.098 -0.067,0.148 -0.187,0.377 -0.37,0.776 -0.55,1.168 -0.025,0.069 -0.059,0.135 -0.086,0.205 -0.192,0.432 -0.377,0.873 -0.563,1.321 -0.043,0.099 -0.078,0.193 -0.113,0.293 -0.188,0.468 -0.372,0.945 -0.555,1.424 -0.008,0.046 -0.024,0.083 -0.043,0.13 -0.167,0.471 -0.329,0.953 -0.496,1.449 -0.034,0.096 -0.069,0.188 -0.091,0.285 -0.167,0.516 -0.334,1.036 -0.49,1.573 -0.032,0.104 -0.062,0.209 -0.097,0.322 -0.156,0.561 -0.31,1.131 -0.466,1.711 -1.629,6.307 -2.617,13.893 -2.61,22.004 0,0.975 0.011,1.934 0.038,2.893 0.003,0.127 0.011,0.242 0.016,0.355 0.024,0.856 0.065,1.701 0.113,2.545 0.006,0.105 0.009,0.218 0.02,0.32 0.115,1.842 0.274,3.635 0.487,5.387 l 0.086,0.667 c 0.072,0.593 0.15,1.169 0.239,1.734 0.049,0.33 0.098,0.652 0.149,0.972 0.072,0.481 0.156,0.951 0.239,1.426 0.063,0.33 0.116,0.65 0.173,0.979 0.135,0.695 0.271,1.376 0.423,2.047 0.064,0.308 0.135,0.612 0.21,0.915 0.102,0.461 0.21,0.924 0.328,1.371 0.07,0.288 0.148,0.584 0.222,0.87 0.08,0.291 0.155,0.577 0.231,0.865 0.1,0.326 0.188,0.64 0.279,0.956 0.092,0.329 0.195,0.636 0.297,0.95 0.065,0.227 0.135,0.455 0.215,0.676 0.156,0.488 0.326,0.975 0.493,1.452 0.014,0.024 0.027,0.052 0.035,0.083 0.808,2.219 1.692,4.185 2.582,5.817 0.973,1.778 1.958,3.157 2.828,4.128 1.861,1.953 3.477,1.875 5.325,-0.179 0.09,-0.104 0.182,-0.2 0.274,-0.313 0.026,-0.027 0.06,-0.07 0.086,-0.111 0.156,-0.188 0.313,-0.391 0.466,-0.608 0.059,-0.06 0.099,-0.134 0.153,-0.211 0.113,-0.156 0.233,-0.314 0.351,-0.49 0.013,-0.015 0.018,-0.037 0.032,-0.051 0.205,-0.306 0.417,-0.64 0.625,-0.98 0.302,-0.5 0.603,-1.028 0.91,-1.594 0.124,-0.242 0.253,-0.479 0.374,-0.738 l 0.014,-0.027 c 0.132,-0.264 0.256,-0.528 0.385,-0.797 0.016,-0.024 0.024,-0.054 0.041,-0.086 0.118,-0.248 0.228,-0.501 0.338,-0.754 0.06,-0.119 0.114,-0.254 0.167,-0.375 0.203,-0.471 0.405,-0.961 0.598,-1.448 0.027,-0.079 0.06,-0.157 0.086,-0.23 0.119,-0.295 0.222,-0.576 0.329,-0.885 0.132,-0.359 0.264,-0.724 0.388,-1.101 0.049,-0.141 0.099,-0.286 0.145,-0.426 0.143,-0.432 0.283,-0.867 0.417,-1.309 0.009,-0.033 0.022,-0.064 0.025,-0.094 0.307,-0.978 0.576,-1.986 0.841,-3.038 0.101,-0.399 0.193,-0.816 0.293,-1.231 0.084,-0.35 0.164,-0.686 0.237,-1.039 0.061,-0.254 0.11,-0.52 0.161,-0.773 l 15.902,15.896 h 0.006 c -0.554,1.509 -1.142,2.971 -1.769,4.385 -2.403,5.3 -5.332,9.937 -9.273,13.67 -1.966,1.852 -4.22,3.47 -6.807,4.642 -2.591,1.182 -5.527,1.891 -8.535,1.885 -3.007,0.006 -5.948,-0.703 -8.528,-1.885 -4.543,-2.082 -8.009,-5.404 -10.845,-9.214 -4.233,-5.753 -7.219,-12.85 -9.334,-20.963 -2.097,-8.101 -3.239,-17.236 -3.248,-26.936 0.025,-12.808 1.972,-24.603 5.576,-34.415 z m 54.745,24.597 h 19.008 v -24.597 h 19.664 v 93.419 h -19.664 v -49.164 h -19.008 v 49.164 h -19.661 v -93.419 h 19.661 z m 435.682,-52.359 h -545.383 v 246.612 h 545.383 z m -549.635,-4.254 h 804.754 v 255.118 h -804.754 z"
               style="fill:#002b96;fill-opacity:1;fill-rule:nonzero;stroke:none"
               id="path24" /></g><g
             id="g26"
             transform="translate(777.6914,39.0088)"><path
               d="m 0,0 c -1.934,0 -3.5,-1.566 -3.5,-3.496 0,-1.934 1.566,-3.498 3.5,-3.498 1.93,0 3.496,1.564 3.496,3.498 C 3.496,-1.566 1.93,0 0,0 m -159.129,2.65 c -1.631,-1.611 -3.846,-2.654 -8.48,-2.654 h -11.194 v 17.307 h 11.194 c 4.634,0 6.849,-1.026 8.48,-2.639 1.463,-1.553 2.42,-3.611 2.42,-5.973 0,-2.357 -0.957,-4.488 -2.42,-6.041 m -19.674,34.918 h 8.836 c 4.129,0 5.895,-0.814 7.069,-2.136 1.111,-1.174 1.775,-2.727 1.775,-4.491 0,-1.777 -0.664,-3.312 -1.775,-4.502 -1.174,-1.318 -2.94,-2.132 -7.069,-2.132 h -8.836 z m 20.996,-15.615 c 2.426,2.285 4.047,5.676 4.047,9.205 0,3.832 -1.621,7.362 -4.275,9.799 -2.43,2.203 -5.594,3.609 -10.6,3.609 h -17.529 v -51.56 h 19.877 c 5.234,0 8.621,1.256 11.275,3.459 3.461,2.797 5.662,7.142 5.662,11.931 0,5.827 -3.607,11.122 -8.457,13.557 m 19.385,-28.947 h 30.209 v 6.99 h -22.848 v 15.285 h 15.832 v 6.998 h -15.832 v 15.289 h 22.848 v 6.998 h -30.209 z m 41.545,0 h 30.207 v 6.99 h -22.846 v 15.285 h 15.83 v 6.998 h -15.83 v 15.289 h 22.846 v 6.998 h -30.207 z m 48.914,31.301 v 13.261 h 10.309 c 3.316,0 5.002,-0.742 6.193,-1.916 1.168,-1.175 1.908,-2.877 1.908,-4.711 0,-1.847 -0.74,-3.533 -1.908,-4.716 -1.191,-1.182 -2.877,-1.918 -6.193,-1.918 z m 20.693,-3.969 c 3.1,2.5 5.077,6.32 5.077,10.603 0,4.27 -1.977,8.098 -5.077,10.604 -2.355,1.91 -5.306,3.021 -10.017,3.021 h -18.047 v -51.56 h 7.371 v 24.297 h 5.889 l 18.345,-24.297 h 8.897 l -18.475,24.605 c 2.58,0.44 4.418,1.393 6.037,2.727 M 4.947,114.326 H -4.785 L -21.459,95.549 v 18.777 h -7.363 V 62.771 h 7.363 V 81.549 L -4.785,62.771 h 9.732 l -22.894,25.774 z m -65.564,-22.281 2.422,8.725 2.416,-8.725 z m 12.951,-29.274 h 7.504 l -14.274,51.559 h -7.511 L -76.236,62.771 h 7.509 l 6.174,22.274 h 8.705 z m -39.908,44.561 v 6.998 h -30.211 V 62.771 h 30.211 v 6.989 h -22.832 v 15.285 h 15.822 v 7 h -15.822 v 15.287 z m -50.688,-11.127 c -1.176,-1.32 -2.941,-2.133 -7.068,-2.133 h -8.834 v 13.26 h 8.834 c 4.127,0 5.892,-0.814 7.068,-2.137 1.112,-1.174 1.774,-2.724 1.774,-4.492 0,-1.775 -0.662,-3.31 -1.774,-4.498 m 9.143,4.717 c 0,3.832 -1.621,7.361 -4.279,9.799 -2.426,2.205 -5.596,3.609 -10.604,3.609 h -17.525 V 62.771 h 7.363 v 24.745 h 10.162 c 5.008,0 8.178,1.402 10.604,3.607 2.658,2.436 4.279,5.967 4.279,9.799 m -43.738,-23.619 c 0,5.734 -3.153,9.242 -6.516,11.459 -6.447,4.297 -17.117,5.652 -17.117,12.033 0,4.365 4.154,6.728 8.304,6.728 3.153,0 6.233,-1.148 8.954,-3.439 l 4.224,5.23 c -2.648,2.221 -7.088,5.012 -13.461,5.012 -8.738,0 -15.181,-6.015 -15.181,-13.322 0,-5.223 2.795,-8.662 6.375,-11.024 6.658,-4.367 17.254,-5.226 17.254,-12.894 0,-4.506 -4.083,-7.514 -8.733,-7.514 -5.158,0 -9.307,2.864 -12.244,6.446 l -4.943,-4.872 c 4.441,-5.367 10.673,-8.375 17.545,-8.375 8.736,0 15.539,5.729 15.539,14.532 m 41.263,55.23 10.533,38 10.536,-38 h 7.517 l 16.199,51.561 h -7.502 l -12.222,-38.858 -10.776,38.858 h -7.505 l -10.772,-38.858 -12.215,38.858 h -7.506 l 16.205,-51.561 z m 85.906,6.992 h -22.833 v 15.286 h 15.826 v 6.998 h -15.826 v 15.287 h 22.833 v 6.998 h -30.21 v -51.561 h 30.21 z"
               style="fill:#ffffff;fill-opacity:1;fill-rule:nonzero;stroke:none"
               id="path28" /></g></g></g></g></g></svg>